<svg width="32" height="32" viewBox="0 0 32 32" fill="none" xmlns="http://www.w3.org/2000/svg">
<path d="M16 18.9744C17.1258 18.9754 18.2344 18.6926 19.2264 18.1512C20.2185 17.6099 21.0633 16.8268 21.6851 15.8722L20.0614 14.7746C19.6169 15.4565 19.0134 16.0158 18.3047 16.4027C17.5961 16.7897 16.8043 16.9922 16 16.9922C15.1957 16.9922 14.404 16.7897 13.6953 16.4027C12.9867 16.0158 12.3832 15.4565 11.9387 14.7746L10.3149 15.8722C10.9368 16.8268 11.7815 17.6099 12.7736 18.1512C13.7657 18.6926 14.8742 18.9754 16 18.9744ZM12.1014 8.06846C12.487 8.06846 12.8638 8.18476 13.1844 8.40264C13.505 8.62052 13.7548 8.93021 13.9023 9.29254C14.0499 9.65487 14.0885 10.0536 14.0133 10.4382C13.9381 10.8229 13.7524 11.1762 13.4798 11.4535C13.2072 11.7308 12.8599 11.9197 12.4817 11.9962C12.1036 12.0727 11.7117 12.0334 11.3555 11.8833C10.9993 11.7332 10.6949 11.4791 10.4807 11.153C10.2665 10.8269 10.1521 10.4435 10.1521 10.0514C10.1495 9.79023 10.1982 9.53119 10.2952 9.28941C10.3923 9.04764 10.5357 8.82799 10.7173 8.64333C10.8988 8.45867 11.1147 8.31271 11.3524 8.214C11.5901 8.11529 11.8447 8.06581 12.1014 8.06846ZM19.8986 8.06846C20.2841 8.06846 20.661 8.18476 20.9816 8.40264C21.3021 8.62052 21.552 8.93021 21.6995 9.29254C21.8471 9.65487 21.8857 10.0536 21.8104 10.4382C21.7352 10.8229 21.5496 11.1762 21.277 11.4535C21.0044 11.7308 20.657 11.9197 20.2789 11.9962C19.9008 12.0727 19.5088 12.0334 19.1526 11.8833C18.7965 11.7332 18.492 11.4791 18.2778 11.153C18.0636 10.8269 17.9493 10.4435 17.9493 10.0514C17.9467 9.79023 17.9953 9.53119 18.0924 9.28941C18.1894 9.04764 18.3329 8.82799 18.5144 8.64333C18.696 8.45867 18.9119 8.31271 19.1496 8.214C19.3872 8.11529 19.6419 8.06581 19.8986 8.06846Z" fill="white"/>
<path d="M14.308 29.8807L16 28.8893L12.1014 21.9491H6.25351C5.99742 21.9495 5.74377 21.8985 5.50709 21.799C5.27042 21.6995 5.05538 21.5534 4.8743 21.3692C4.69321 21.185 4.54964 20.9663 4.45182 20.7255C4.35399 20.4848 4.30383 20.2267 4.30422 19.9662V6.08592C4.30383 5.82541 4.35399 5.56739 4.45182 5.32663C4.54964 5.08588 4.69321 4.86713 4.8743 4.68292C5.05538 4.49872 5.27042 4.35267 5.50709 4.25316C5.74377 4.15365 5.99742 4.10263 6.25351 4.10302H25.7464C26.0025 4.10263 26.2562 4.15365 26.4929 4.25316C26.7295 4.35267 26.9446 4.49872 27.1257 4.68292C27.3067 4.86713 27.4503 5.08588 27.5481 5.32663C27.646 5.56739 27.6961 5.82541 27.6957 6.08592V19.9662C27.6961 20.2267 27.646 20.4848 27.5481 20.7255C27.4503 20.9663 27.3067 21.185 27.1257 21.3692C26.9446 21.5534 26.7295 21.6995 26.4929 21.799C26.2562 21.8985 26.0025 21.9495 25.7464 21.9491H16.9746V23.932H25.7464C26.7804 23.932 27.772 23.5142 28.5032 22.7705C29.2343 22.0267 29.645 21.018 29.645 19.9662V6.08592C29.645 5.03412 29.2343 4.02541 28.5032 3.28167C27.772 2.53794 26.7804 2.12012 25.7464 2.12012H6.25351C5.21954 2.12012 4.22792 2.53794 3.4968 3.28167C2.76567 4.02541 2.35493 5.03412 2.35493 6.08592V19.9662C2.35493 21.018 2.76567 22.0267 3.4968 22.7705C4.22792 23.5142 5.21954 23.932 6.25351 23.932H10.9659L14.308 29.8807Z" fill="white"/>
</svg>
