<svg width="769" height="200" viewBox="0 0 769 200" fill="none" xmlns="http://www.w3.org/2000/svg">
<path d="M26.315 1H333.606C354.773 1 364.336 27.484 348.05 41.0067L347.337 41.5989C344.254 44.1587 340.463 45.7149 336.47 46.0589L327.539 46.8285C321.395 47.3578 316.678 52.499 316.678 58.665C316.678 65.2264 321.997 70.5455 328.559 70.5455H548.488C563.13 70.5455 575 82.4152 575 97.0572C575 110.897 564.354 122.408 550.557 123.488L524.409 125.534C520.509 125.84 517.5 129.094 517.5 133.006C517.5 137.145 520.855 140.5 524.994 140.5H739.586C755.003 140.5 767.5 152.997 767.5 168.414C767.5 183.706 755.196 196.152 739.904 196.326L505.265 199.001C485.507 199.226 472.137 178.94 480.134 160.871L483.167 154.018C486.997 145.367 484.221 135.215 476.522 129.715C473.139 127.299 469.086 126 464.929 126H208.272C192.658 126 180 113.342 180 97.7283C180 82.5311 192.014 70.0528 207.201 69.477L268.729 67.1442C273.408 66.9668 277.11 63.1217 277.11 58.4389C277.11 53.6276 273.21 49.7273 268.399 49.7273H26.315C6.67938 49.7273 -4.88974 27.6894 6.26144 11.5274C10.8095 4.93568 18.3065 1 26.315 1Z" stroke="#FF9D65" stroke-width="2"/>
</svg>
