<svg width="56" height="56" viewBox="0 0 56 56" fill="none" xmlns="http://www.w3.org/2000/svg">
<path d="M50.8148 15.0801H44.0896C45.0522 13.6267 45.5872 11.9142 45.6296 10.1509C45.668 8.80759 45.4415 7.47035 44.964 6.22129C44.4866 4.97224 43.7682 3.83773 42.8531 2.88748C41.9379 1.93722 40.8454 1.19128 39.6425 0.69548C38.4396 0.199677 37.1518 -0.0355203 35.8581 0.00433726C34.6633 0.0308155 33.4866 0.313525 32.402 0.834713C31.3174 1.3559 30.3483 2.10431 29.5556 3.03295C28.9709 3.72561 28.4501 4.4737 28 5.26739C27.5499 4.4737 27.0291 3.72561 26.4444 3.03295C25.6517 2.10431 24.6826 1.3559 23.598 0.834713C22.5134 0.313525 21.3367 0.0308155 20.1419 0.00433726C18.8482 -0.0355203 17.5604 0.199677 16.3575 0.69548C15.1546 1.19128 14.0621 1.93722 13.1469 2.88748C12.2318 3.83773 11.5134 4.97224 11.036 6.22129C10.5585 7.47035 10.332 8.80759 10.3704 10.1509C10.4127 11.9142 10.9478 13.6267 11.9104 15.0801H5.18518C3.80999 15.0801 2.49112 15.6474 1.51871 16.6571C0.546295 17.6668 1.08089e-07 19.0363 1.08089e-07 20.4643V29.079C-0.00024386 30.3202 0.412516 31.5234 1.16842 32.4849C1.92433 33.4465 2.97696 34.1073 4.14815 34.3555V50.6158C4.14815 52.0438 4.69444 53.4133 5.66685 54.423C6.63926 55.4327 7.95814 56 9.33333 56H46.6667C48.0419 56 49.3607 55.4327 50.3331 54.423C51.3056 53.4133 51.8519 52.0438 51.8519 50.6158V34.3555C53.023 34.1073 54.0757 33.4465 54.8316 32.4849C55.5875 31.5234 56.0002 30.3202 56 29.079V20.4643C56 19.0363 55.4537 17.6668 54.4813 16.6571C53.5089 15.6474 52.19 15.0801 50.8148 15.0801ZM49.7778 28.0022H31.1111V21.5411H49.7778V28.0022ZM34.2222 7.31877C34.4518 7.05441 34.7315 6.84215 35.0438 6.6953C35.3561 6.54844 35.6942 6.47017 36.037 6.46538H36.1278C36.5665 6.46409 37.001 6.55444 37.4054 6.73105C37.8099 6.90767 38.176 7.16694 38.4819 7.49345C38.7879 7.81995 39.0275 8.20703 39.1865 8.63164C39.3455 9.05625 39.4206 9.50973 39.4074 9.9651C39.4028 10.3211 39.3274 10.6722 39.186 10.9965C39.0446 11.3207 38.8401 11.6112 38.5856 11.8496C36.7967 13.4971 33.8541 14.3425 31.4222 14.7463C31.8111 12.2319 32.6252 9.17632 34.2222 7.31877ZM17.5519 7.46145C18.1673 6.82928 18.9962 6.47184 19.8619 6.46538H19.963C20.3058 6.47017 20.6439 6.54844 20.9562 6.6953C21.2685 6.84215 21.5482 7.05441 21.7778 7.31877C23.3644 9.17632 24.1785 12.2292 24.5648 14.7517C22.1537 14.3451 19.1852 13.4998 17.4144 11.8496C17.1599 11.6112 16.9554 11.3207 16.814 10.9965C16.6726 10.6722 16.5972 10.3211 16.5926 9.9651C16.5811 9.50212 16.6602 9.04152 16.8251 8.61119C16.99 8.18085 17.2372 7.78972 17.5519 7.46145ZM6.22222 21.5411H24.8889V28.0022H6.22222V21.5411ZM10.3704 34.4632H24.8889V49.539H10.3704V34.4632ZM31.1111 49.539V34.4632H45.6296V49.539H31.1111Z" fill="white"/>
</svg>
