<svg width="23" height="19" viewBox="0 0 23 19" fill="none" xmlns="http://www.w3.org/2000/svg">
<path d="M21.5 6.99967H16.71L12.33 0.439666C12.2382 0.303456 12.1141 0.192047 11.9688 0.115346C11.8236 0.0386454 11.6616 -0.000971495 11.4973 1.80938e-05C11.333 0.00100768 11.1716 0.0425732 11.0272 0.121019C10.8829 0.199464 10.7602 0.312359 10.67 0.449666L6.29 6.99967H1.5C0.95 6.99967 0.5 7.44967 0.5 7.99967C0.5 8.08967 0.5 8.17967 0.54 8.26967L3.08 17.5397C3.31 18.3797 4.08 18.9997 5 18.9997H18C18.92 18.9997 19.69 18.3797 19.93 17.5397L22.47 8.26967L22.5 7.99967C22.5 7.44967 22.05 6.99967 21.5 6.99967ZM11.5 2.79967L14.3 6.99967H8.7L11.5 2.79967ZM18 16.9997H5L2.81 8.99967H20.2L18 16.9997ZM11.5 10.9997C10.4 10.9997 9.5 11.8997 9.5 12.9997C9.5 14.0997 10.4 14.9997 11.5 14.9997C12.6 14.9997 13.5 14.0997 13.5 12.9997C13.5 11.8997 12.6 10.9997 11.5 10.9997Z" fill="white"/>
</svg>
