<svg width="15" height="8" viewBox="0 0 15 8" fill="none" xmlns="http://www.w3.org/2000/svg">
<path d="M14.3776 6.91791C14.4467 6.86015 14.5026 6.79028 14.5411 6.71188C14.5798 6.63336 14.6 6.54828 14.6 6.46182C14.6 6.37536 14.5798 6.29028 14.5411 6.21176C14.5026 6.13335 14.4466 6.06346 14.3775 6.00569C14.3775 6.00566 14.3775 6.00564 14.3774 6.00561L8.91338 1.39618L8.91329 1.39611C8.53398 1.07689 8.02644 0.9 7.5003 0.9C6.97416 0.9 6.46661 1.07689 6.08731 1.39611L6.08722 1.39618L0.62327 6.00552C0.623187 6.00559 0.623104 6.00566 0.623021 6.00573C0.553783 6.06348 0.497723 6.1334 0.459047 6.21186C0.420289 6.29049 0.4 6.37572 0.4 6.46232C0.4 6.54892 0.420289 6.63414 0.459047 6.71278C0.497693 6.79118 0.5537 6.86105 0.622867 6.91878C0.762249 7.03618 0.94705 7.1 1.13702 7.1C1.32699 7.1 1.51179 7.03618 1.65117 6.91878L1.65123 6.91873L7.1168 2.30801L7.117 2.30784C7.21681 2.2232 7.35437 2.17373 7.5003 2.17373C7.64622 2.17373 7.78379 2.2232 7.8836 2.30784L7.88381 2.30801L13.3494 6.91774L13.3494 6.91778C13.4888 7.03518 13.6736 7.099 13.8636 7.099C14.0535 7.099 14.2382 7.03523 14.3776 6.91791ZM14.3776 6.91791C14.3775 6.91795 14.3775 6.91799 14.3774 6.91803L14.3133 6.8413M14.3776 6.91791C14.3776 6.91787 14.3777 6.91782 14.3777 6.91778L14.3133 6.8413M14.3133 6.8413C14.1933 6.94237 14.0318 6.999 13.8636 6.999C13.6953 6.999 13.5338 6.94237 13.4139 6.8413L14.3133 6.08234C14.3724 6.13172 14.4194 6.19073 14.4514 6.2559C14.4835 6.32107 14.5 6.39109 14.5 6.46182C14.5 6.53255 14.4835 6.60256 14.4514 6.66774C14.4194 6.73291 14.3724 6.79192 14.3133 6.8413Z" fill="#1A1722" stroke="#171717" stroke-width="0.2"/>
</svg>
