<svg width="70" height="85" viewBox="0 0 70 85" fill="none" xmlns="http://www.w3.org/2000/svg">
<path d="M10.5014 20.9047C11.3782 20.9025 12.2303 20.9218 13.1028 20.9713C12.0178 22.298 11.2686 24.1674 11.0231 26.3493C10.9886 26.6593 11.1519 26.9163 11.3595 26.848C13.1283 26.2302 14.7375 23.9595 14.94 21.1208C15.3522 21.1687 15.7596 21.1929 16.1712 21.2399C21.2585 27.3358 25.6985 34.5691 29.7779 42.308C29.1185 42.2714 28.2265 42.1333 27.2841 41.967C26.5732 38.5691 24.2385 36.4397 21.9573 36.7451C21.7491 36.7694 21.5468 37.1337 21.701 37.4501C22.4093 38.9192 23.1558 40.3439 24.0551 41.3161C23.1812 41.1338 22.5061 41.0009 22.2685 40.9815C22.182 40.9825 22.0895 40.9912 21.9979 40.9846C21.6763 38.1077 19.9139 36.015 18.0458 35.7617C17.7447 35.7211 17.6905 36.2902 17.8392 36.5685C18.6546 38.1253 19.5231 39.585 20.4389 40.9859C19.6839 41.0095 18.9291 41.0467 18.1798 41.1219C17.2019 38.3851 15.1301 37.0496 13.1708 37.5291C12.9436 37.5833 12.9118 38.0413 13.0502 38.2614C13.9716 39.7434 15.0419 40.7652 16.2511 41.3718C15.2417 41.5235 14.2366 41.7115 13.2378 41.9518C11.9782 39.4915 9.53854 38.8546 7.82237 40.4168C7.65053 40.5811 7.64615 40.9805 7.83252 41.1408C8.8566 41.9931 9.72352 43.4241 10.8598 43.9359C9.8929 45.0616 9.2647 46.5753 9.01965 48.4399C8.98051 48.7728 9.12964 49.0072 9.33302 49.0354C11.789 49.4513 13.072 45.6699 13.7183 42.6791C13.7275 42.6198 13.7268 42.5758 13.7211 42.5243C14.5574 42.4041 15.3987 42.3211 16.2356 42.245C15.017 43.4184 14.2065 45.3409 14.0891 47.683C14.0775 47.8827 14.2193 47.992 14.3253 47.9603C16.2202 47.3555 17.7711 45.0415 18.1418 42.134C18.9068 42.1103 19.6768 42.1237 20.4419 42.1448C19.2026 43.5476 18.5349 45.6818 18.5116 48.1336C18.5065 48.4442 18.7413 48.6183 18.9085 48.4769C20.5499 47.0771 22.2621 45.2342 22.23 42.2348C23.0349 42.2851 23.8441 42.3716 24.6547 42.4734C24.2228 42.7591 23.807 43.125 23.4302 43.5801C22.9972 44.1094 21.6747 45.8228 22.1161 46.926C22.512 47.9038 23.8838 46.9427 24.3258 46.7017C25.6949 45.9404 26.8592 44.6864 27.8136 43.0219C28.7119 43.2107 29.6061 43.4232 30.5055 43.6864C33.6213 49.7087 36.5274 55.9981 39.3564 62.2892C39.9312 63.5754 40.516 64.8615 41.0958 66.14C39.7662 65.2539 38.395 64.523 37.0024 63.9329C36.9419 62.3821 36.4994 60.888 35.8245 59.6985C35.3578 58.8908 34.1225 57.1323 33.298 57.7023C32.1038 58.521 33.264 61.1668 34.3653 63.0165C33.573 62.7961 32.7716 62.635 31.9713 62.5187C31.5118 59.7686 30.1165 57.6718 28.2532 57.0496C28.0096 56.9635 27.7487 57.2989 27.8408 57.6971C28.2079 59.3545 28.6584 61.1073 29.4265 62.3322C28.7489 62.3397 28.0711 62.3769 27.3991 62.4656C27.1272 59.3293 25.0438 57.1666 23.0562 57.3292C22.7515 57.3546 22.6378 57.8651 22.8312 58.2098C23.3823 59.1858 23.9538 61.5803 24.7727 63.0262C24.0643 63.2481 23.3508 63.5073 22.6533 63.8331C22.6384 63.8409 22.6243 63.8631 22.6105 63.8708C22.6607 63.6554 22.6182 63.3902 22.4338 63.3339C20.2457 62.679 18.1887 65.1687 17.7448 68.357C17.7007 68.6527 17.8498 68.9615 18.0584 68.966C20.1539 68.9054 22.551 68.207 23.1744 64.6919C23.1789 64.6555 23.1736 64.6327 23.1781 64.5963C24.0174 64.3796 24.848 64.2079 25.6791 64.0667C25.7226 64.0882 25.7716 64.1029 25.8152 64.1244C25.1016 64.6865 24.483 65.4623 23.9882 66.45C23.6683 67.0888 22.8634 68.7745 23.7045 69.3556C24.4135 69.8434 25.5753 68.773 26.1035 68.1547C26.9754 67.1332 27.5598 65.6573 27.7156 63.9932C27.7199 63.9416 27.7141 63.8901 27.7135 63.8461C28.5601 63.7842 29.398 63.7825 30.2361 63.8256C28.8322 64.8834 27.828 66.7921 27.5472 69.2696C27.5163 69.5136 27.6611 69.7996 27.8389 69.702C29.7217 68.6321 31.7354 67.2062 32.1072 63.9824C32.9129 64.0918 33.7092 64.2454 34.5013 64.4506C33.2485 65.2403 32.3073 66.8234 31.9351 68.9483C31.8902 69.2297 32.0449 69.5452 32.2388 69.5278C34.1389 69.3366 35.9679 67.8688 36.8415 65.2298C38.5848 65.9193 40.317 66.8821 42.0303 68.1632C46.7195 78.2971 51.5957 87.999 56.9062 97.2021C55.0898 97.8205 52.173 96.6636 50.7316 96.4217C50.2756 92.5785 47.8887 89.8499 45.405 89.4791C45.2011 89.4518 45.0037 89.8532 45.0849 90.1476C45.8108 92.8719 47.0894 94.9412 48.7717 96.1482C47.3409 95.9502 45.9087 95.7369 44.483 95.5464C43.8456 91.1875 41.0766 88.1095 38.1614 88.1276C37.8897 88.1307 37.7369 88.5833 37.8677 88.9363C38.8047 91.5263 40.0836 93.6244 41.6548 95.1718C40.5192 95.0221 39.3842 94.8867 38.2497 94.7369C38.2449 94.715 38.2439 94.6854 38.2392 94.6634C37.2845 91.1659 35.433 88.653 33.1292 87.3048C32.8703 87.1529 32.5863 87.6281 32.6793 88.0111C33.2497 90.3607 33.94 92.9611 35.2084 94.3496C34.2963 94.2413 33.3793 94.1111 32.4627 93.9961C32.3609 93.9744 32.2588 93.9687 32.1521 93.9547C30.6126 92.6133 29.4013 90.8308 28.493 88.545C30.191 89.4423 31.3591 91.2751 32.2654 93.7318C32.311 93.8573 32.3892 93.9005 32.4661 93.8852C32.5869 93.8771 32.706 93.7057 32.664 93.4846C31.9738 90.2201 30.0547 88.026 27.9191 87.2884C27.6465 87.1874 27.4493 87.6338 27.5709 88.0012C28.3595 90.3713 29.4667 92.3308 30.8528 93.8076C29.9746 93.7066 29.0967 93.5912 28.2193 93.5045C28.1543 93.38 28.0568 93.3067 27.9414 93.3824C27.8984 93.4049 27.8498 93.4207 27.8069 93.4432C26.7064 90.5826 24.1253 89.5471 22.2912 91.3255C22.1286 91.4753 22.0665 91.8753 22.2343 92.0942C23.8179 94.1669 26.1301 95.7146 28.1272 94.1781C29.1565 94.3738 30.1854 94.5392 31.2147 94.735C29.2585 95.7541 27.2859 97.342 27.0387 100.794C27.0184 101.082 27.1739 101.456 27.3995 101.329C29.5321 100.079 31.3361 98.2113 32.8489 95.5957C32.9529 95.4169 32.9549 95.2028 32.9042 95.0266C33.6569 95.1586 34.4183 95.2754 35.1754 95.4006C33.5013 96.5198 32.1999 98.6686 31.5797 101.423C31.5201 101.683 31.6946 102.028 31.8783 101.997C34.555 101.582 36.8586 99.4297 38.2084 95.9065C39.4945 96.107 40.785 96.299 42.0754 96.491C40.2725 97.7225 38.9804 100.218 38.7579 103.375C38.7469 103.619 38.9532 103.853 39.0978 103.763C41.3879 102.356 43.2063 100.136 44.5819 97.0248C44.605 96.973 44.6093 96.9213 44.6187 96.8772C45.7979 97.0485 46.9715 97.2131 48.1507 97.3843C46.8001 98.7961 45.7915 100.786 45.2069 103.274C45.1246 103.614 45.3961 103.988 45.6124 103.875C47.8424 102.683 49.6743 100.713 51.2152 98.0066C51.2483 97.9547 51.2669 97.8961 51.2804 97.8282C53.4593 98.1364 55.6378 98.459 57.8155 98.7672C61.1541 104.454 64.6595 109.94 68.4137 115.216C68.9077 115.92 69.6137 114.812 69.1338 114.085C65.6008 108.689 62.0588 103.322 58.6778 97.7314C58.9126 96.5174 59.1134 95.2961 59.3237 94.0756C59.3835 94.1925 59.4811 94.2659 59.6016 94.2425C61.2271 93.8031 62.6903 92.7903 64.0254 91.3424C64.1922 91.1705 64.2535 90.6817 64.014 90.5304C62.3626 89.4703 60.8991 90.4247 59.6713 91.9755C59.8846 90.6137 60.0885 89.2528 60.2773 87.8845C62.703 87.8794 64.8568 85.0562 65.4368 81.49C65.4988 81.09 65.2366 80.6581 64.9718 80.8006C63.2608 81.7063 61.8082 83.081 60.6208 85.0958C60.8895 82.862 61.1343 80.6209 61.3301 78.3668C63.7639 77.9116 65.513 74.8628 65.7471 71.1896C65.7707 70.7757 65.4441 70.6245 65.2425 70.7596C63.8086 71.7281 62.3628 72.9556 61.5924 74.9657C61.708 73.1693 61.8134 71.3891 61.8897 69.5923C61.9482 69.6509 62.0219 69.6873 62.1125 69.6194C64.053 68.158 65.4203 65.1659 65.8153 61.9333C65.8537 61.586 65.5963 61.1896 65.3773 61.4281C64.0134 62.9212 62.6547 64.4649 61.9986 66.7174C62.0349 65.1511 62.0611 63.585 62.0635 62.0115C63.7994 60.4339 64.9755 57.6951 65.2575 54.6263C65.2909 54.2418 65.0228 53.7863 64.775 54.0699C63.5022 55.4943 62.5846 57.056 62.0382 59.1812C62.0315 58.3464 62.0339 57.5266 62.0128 56.7003C62.1657 56.5658 62.2392 56.2689 62.0663 56.0424C62.0414 56.0055 62.0216 55.9761 62.0017 55.9467C62.0019 55.9171 62.0009 55.8875 62.0005 55.8588C62.0006 55.8291 61.9948 55.8072 61.99 55.7853C63.1373 53.3201 61.7113 50.4259 60.5183 48.5561C60.3402 48.2772 60.0419 48.443 59.9791 48.7838C59.4812 51.6038 60.0919 54.7355 61.6087 56.5949C61.6217 57.873 61.6063 59.1505 61.5898 60.4281C60.7807 58.3324 59.2929 56.8787 57.761 56.3569C57.5419 56.2773 57.3571 56.583 57.4055 56.915C57.8843 59.9669 59.5082 62.1872 61.5689 62.3782C61.5418 63.8852 61.4902 65.3856 61.4337 66.892C60.6027 64.981 59.4064 63.5537 57.7716 64.0372C57.5833 64.0909 57.5065 64.469 57.5969 64.704C58.4958 66.9908 59.6925 68.8098 61.2308 70.0632C61.2504 70.0774 61.2698 70.078 61.2844 70.0846C61.211 71.422 61.1234 72.7681 61.0262 74.0982C60.404 72.2068 59.2699 70.7424 57.8713 70.1151C57.691 70.035 57.4714 70.2743 57.4901 70.577C57.7151 73.8458 58.809 76.5524 60.6445 78.3195C60.4758 80.0936 60.2727 81.8614 60.0555 83.6217C59.2754 81.178 57.9758 78.2824 56.7234 79.4189C55.9293 80.1367 56.4816 81.8664 56.7565 82.8091C57.3675 84.929 58.2979 86.6994 59.4609 88.1635C59.3483 89.1096 59.2368 90.4483 59.0807 91.779C58.7171 89.6928 57.6756 87.9169 56.4165 86.8752C56.1814 86.6858 55.8462 86.9408 55.8718 87.3829C56.0438 90.3579 56.8998 92.6671 58.3562 94.6523C58.4253 94.7548 58.513 94.7987 58.5955 94.7901C58.4546 95.4194 58.2823 95.9458 58.0741 96.2882C58.0269 96.3623 57.9744 96.4153 57.927 96.4742C56.0376 93.312 54.2058 90.0747 52.4539 86.7121C48.9404 79.9414 45.7606 72.7972 42.5851 65.6463C42.3876 63.6622 42.331 61.6833 42.3856 59.7252C42.4345 59.7695 42.4933 59.8119 42.5567 59.8197C44.4301 60.1389 46.2701 59.0618 47.6172 57.1264C47.7927 56.8665 47.7279 56.3943 47.5173 56.2114C45.9441 54.878 44.0234 54.9806 42.5914 56.444C42.7571 54.8094 43.0011 53.1901 43.3373 51.6197C45.147 52.1756 47.0355 51.1572 48.2301 49.0239C48.3909 48.7421 48.3217 48.2767 48.0636 48.184C46.7196 47.6525 45.222 47.8756 44.0062 48.8942C44.3658 47.6052 44.7697 46.352 45.2365 45.1507C45.8764 45.8973 46.6715 46.2792 47.4748 46.2559C48.0508 46.2419 49.4594 45.8869 49.6922 44.887C49.9609 43.6802 48.83 43.1167 48.2718 43.0561C47.5492 42.9838 46.7809 43.0871 46.0333 43.2807C46.4329 42.3973 46.8713 41.5431 47.334 40.725C48.8399 41.4103 50.4944 41.347 51.9982 40.8134C52.2681 40.7216 52.3424 40.1675 52.145 39.888C51.2897 38.6201 50.0024 38.0136 48.8501 38.3445C49.358 37.6231 49.8857 36.9295 50.4434 36.2804C51.6942 38.1199 53.5232 38.706 55.171 38.126C55.441 38.0341 55.5019 37.5166 55.3233 37.2386C54.3878 35.7787 52.9996 34.8636 51.6601 34.975C51.966 34.6764 52.2718 34.3777 52.5872 34.0934C52.672 34.2472 52.7988 34.349 52.9536 34.3185C54.1029 34.0545 55.1756 33.2296 55.9461 31.8988C56.3338 31.2295 57.1137 29.8546 56.5586 28.9455C55.9738 27.9775 54.8524 28.846 54.2982 29.3547C53.3186 30.2446 52.6542 31.5886 52.2995 33.2329C52.2675 33.3593 52.2883 33.4614 52.3284 33.5506C52.0793 33.7463 51.8452 33.9773 51.5964 34.1865C52.121 32.2459 51.9485 29.9511 51.2687 28.1035C51.153 27.8028 50.896 27.7828 50.7398 27.9986C49.4007 29.8746 49.2663 33.1042 50.3969 35.3004C50.3248 35.3376 50.2632 35.4203 50.2308 35.5163C49.7439 36.0386 49.2869 36.5902 48.8352 37.1645C48.9955 35.4641 48.6744 33.643 48.0545 32.2321C47.9096 31.9012 47.604 31.897 47.4734 32.2385C46.5948 34.4791 46.468 37.1833 47.1221 39.614C47.1129 39.6285 47.0982 39.6515 47.089 39.666C46.8562 39.639 46.7345 39.9356 46.7722 40.2084C46.5166 40.6545 46.2619 41.115 46.0266 41.5762C46.0939 39.8108 45.7006 38.0268 44.9402 36.6395C44.7712 36.3309 44.4598 36.5484 44.3961 36.8748C43.9497 39.2061 43.4954 42.0477 44.5796 44.1039C44.5912 44.2223 44.6404 44.3249 44.7235 44.3604C44.7235 44.3604 44.7286 44.3679 44.7237 44.3756C44.2507 45.5262 43.8418 46.7422 43.4671 47.9789C43.2665 46.1345 42.7296 44.4274 41.8484 43.0482C41.6902 42.7987 41.416 42.9422 41.3621 43.2533C40.8945 45.8132 41.2134 48.905 42.5667 50.7654C42.5961 50.8091 42.6308 50.8306 42.6698 50.8454C42.6563 50.9116 42.6523 50.9784 42.6579 51.0596C42.3622 52.4003 42.1243 53.7836 41.9459 55.1822C41.439 53.5628 40.6645 52.1976 39.695 51.0783C39.5026 50.8512 39.1459 50.9584 39.1766 51.4097C39.3367 54.1632 40.1271 56.6652 41.4467 58.5784C41.5062 58.6665 41.5648 58.6955 41.6276 58.7024C41.5476 60.2768 41.5409 61.8571 41.6172 63.4593C40.537 61.0198 39.452 58.5862 38.3483 56.1681C36.3102 51.7005 34.1897 47.255 31.9598 42.952C31.668 41.7955 31.4481 40.6313 31.2665 39.466C33.2515 38.7197 34.5744 35.6917 34.4819 32.5762C34.4663 32.1771 34.2076 31.9956 33.9867 32.1452C32.587 33.1362 31.5259 34.8315 30.9546 36.9214C30.7718 34.9143 30.724 32.8905 30.7778 30.8749C32.9299 30.6961 34.6977 28.3128 35.0688 25.0729C35.1119 24.7027 34.914 24.3944 34.6684 24.4792C33.2175 24.9903 31.8593 26.172 30.9206 27.9327C31.0419 26.2175 31.2263 24.4948 31.444 22.7785C33.5938 22.4373 35.2863 20.1724 35.8809 17.0188C35.9438 16.6781 35.7445 16.2666 35.5026 16.2989C33.9713 16.53 32.6807 17.7558 31.8832 19.6114C32.0242 18.6345 32.1758 17.6582 32.3314 16.6896C33.8678 14.7301 34.2311 11.2467 33.1137 8.60796C32.9837 8.31417 32.708 8.30963 32.5914 8.61378C31.892 10.5123 31.2306 12.4256 31.265 14.4859C30.6326 13.2452 29.7287 12.3391 28.6887 12.0546C28.5089 12.005 28.3522 12.2216 28.3995 12.5087C28.8295 15.1704 29.81 17.4638 31.4879 18.6345C31.1666 20.2403 30.8843 21.8609 30.6461 23.5039C30.5392 21.0611 29.4389 18.923 27.9244 17.9797C27.69 17.8343 27.4173 18.081 27.4907 18.4947C27.989 21.2444 28.861 23.665 30.1681 25.7171C30.2224 25.7977 30.2762 25.8344 30.3395 25.8404C30.2524 26.5512 30.1753 27.2601 30.1176 27.9696C29.3526 26.2575 28.1587 25.0374 26.7697 24.7424C26.5223 24.6936 26.3082 24.9692 26.372 25.3669C26.8026 28.1174 27.9383 30.3643 29.57 31.7131C29.7019 31.8225 29.8228 31.7848 29.9133 31.6721C29.8742 33.3932 29.9227 35.1133 30.0726 36.8264C30.1027 37.2321 30.3154 38.2415 30.5142 39.2882C30.5148 39.3322 30.5249 39.3769 30.5406 39.4284C30.6293 39.863 30.7083 40.3131 30.7715 40.7116C26.6194 32.9659 22.0401 25.801 16.782 19.987C18.1022 18.8201 18.9105 16.3892 18.4609 14.0297C18.4032 13.7123 18.1388 13.5241 17.9529 13.7105C16.9639 14.6893 16.1999 16.1309 15.8408 17.8116C15.5004 16.6708 15.2272 15.4988 15.0167 14.2906C16.9286 13.87 17.3362 10.1509 17.4228 7.70515C17.4362 7.2761 17.099 7.03622 16.8788 7.23155C15.6199 8.30217 14.7485 10.3498 14.7449 12.5442C14.6409 11.6961 14.5518 10.8401 14.4857 9.96189C14.5766 9.87967 14.6422 9.73174 14.6499 9.56923C15.9798 6.99879 15.4585 3.00072 13.8982 0.891391C13.7106 0.64308 13.4021 0.748873 13.3398 1.13363C12.8632 4.08623 12.4756 7.53189 14.1022 9.90018C14.1118 9.91446 14.1269 9.9219 14.1365 9.93617C14.1419 11.0291 14.2105 12.0849 14.3365 13.1249C13.6901 10.8497 12.1673 9.31605 10.5362 9.38584C10.3232 9.38821 10.1637 9.75968 10.2886 10.0459C11.0094 11.6926 12.943 15.6292 14.5047 14.4012C14.7326 15.8241 15.0524 17.1943 15.4491 18.5494C13.6702 16.7073 11.8066 15.0294 9.85381 13.5225C11.1962 10.8563 8.95128 7.18034 7.68816 5.4966C7.52016 5.26246 7.18218 5.32459 7.14408 5.73192C6.98394 7.40276 6.89224 9.52461 7.29779 11.1959C7.24364 11.1305 7.17968 11.0788 7.10715 11.0872C7.10205 11.0796 7.10694 11.072 7.10241 11.0652C6.00107 7.82737 3.10279 8.30296 1.19486 9.00437C0.978063 9.08715 0.92621 9.50228 1.07424 9.73665C2.62805 12.0981 4.87782 13.0332 6.97701 12.1681C7.2956 12.4234 7.60949 12.6999 7.93206 12.9628C6.24072 12.8556 4.47629 13.7846 3.36032 15.6734C3.24712 15.8667 3.25176 16.2363 3.43317 16.3595C4.14701 16.8397 4.87608 17.0227 5.59662 16.9927C5.59257 17.0596 5.5987 17.1399 5.62837 17.1987C6.29165 18.5432 7.17091 19.4707 8.16511 19.9325C7.8844 19.9652 7.60402 19.9836 7.32406 20.0307C7.15979 20.0621 7.06561 20.2256 7.03403 20.4256C4.77896 18.1244 1.69878 22.8707 0.655586 25.52C0.528971 25.8242 0.70455 26.2436 0.932342 26.2334C3.31387 26.1629 6.59835 25.6238 7.06503 21.2535C7.17624 21.2742 7.27218 21.1547 7.31327 21.0003C7.32325 21.0002 7.32778 21.0069 7.33722 21.0076C7.94731 20.9712 8.55141 20.9425 9.16172 20.9213C7.93409 22.1244 7.1652 24.2825 7.13413 26.5356C7.13276 26.7937 7.32979 27.0427 7.49868 26.9453C9.21603 25.9414 10.646 23.9832 10.5014 20.9047ZM27.1725 93.7235C25.6969 94.168 24.2615 93.327 23.0599 91.8786C24.5252 91.0129 26.2205 91.7622 27.1725 93.7235ZM27.7572 100.143C28.4146 97.2694 30.252 96.0891 32.0995 95.2268C30.8841 97.3459 29.4455 99.0014 27.7572 100.143ZM32.354 100.956C33.1244 98.2371 34.6329 96.3372 36.4918 95.6211C36.773 95.6619 37.0599 95.7112 37.3462 95.7596C36.2227 98.535 34.4763 100.4 32.354 100.956ZM37.4502 94.5538C35.334 94.5258 34.2919 91.6789 33.6674 88.9459C35.3422 90.2858 36.6278 92.1918 37.6796 94.6621C37.6602 94.6631 37.6457 94.6548 37.6263 94.6559C37.5817 94.6048 37.5273 94.5538 37.4502 94.5538ZM39.4279 102.664C40.0245 99.6143 41.4692 97.3599 43.5815 96.7162C43.6788 96.7295 43.7655 96.7438 43.8627 96.7571C42.7866 99.4287 41.2988 101.417 39.4279 102.664ZM18.5119 67.9686C19.1418 65.5464 20.6623 64.2292 22.3752 64.1365C22.4041 64.1362 22.4378 64.1282 22.4619 64.106C22.4437 64.195 22.4449 64.2829 22.4605 64.364C22.4564 64.386 22.4515 64.3937 22.4462 64.4157C21.9681 67.1772 20.166 67.8317 18.5119 67.9686ZM24.5403 68.2855C24.3113 68.5241 24.2032 68.4517 24.2227 68.0598C24.1317 67.7808 24.1713 67.5215 24.338 67.3047C24.4812 66.8379 24.8515 66.272 25.098 65.9004C25.6194 65.1113 26.2217 64.5581 26.8883 64.0854C26.941 64.0476 26.9694 63.9737 26.9778 63.9C26.9778 63.9 26.9878 63.8999 26.9921 63.893C26.7589 65.6163 25.8507 68.1592 24.5403 68.2855ZM43.1121 95.3561C41.32 93.9134 39.8772 91.8755 38.8038 89.2439C41.1954 89.5793 43.0656 92.0768 43.8979 95.4657C43.6451 95.439 43.3933 95.3969 43.1361 95.3634C43.1315 95.355 43.1215 95.3551 43.1121 95.3561ZM46.108 102.516C46.7554 100.351 47.8113 98.6486 49.1615 97.5262C49.5782 97.5807 49.9957 97.6497 50.4135 97.7043C49.2374 99.8517 47.7928 101.44 46.108 102.516ZM12.9699 43.5672C12.2643 45.7314 11.3981 47.8763 9.71097 48.0651C9.93607 46.5187 10.4573 45.3235 11.3389 44.3612C11.4006 44.2936 11.4382 44.2052 11.4469 44.1154C12.0053 44.1913 12.5403 44.0153 12.9699 43.5672ZM8.53999 40.891C10.0166 40.158 11.501 40.6955 12.7084 42.2403C12.6906 42.3581 12.7121 42.5059 12.7808 42.5796C11.6656 44.5275 9.76422 42.2139 8.53999 40.891ZM25.5048 62.831C24.7179 61.9676 24.1646 59.8022 23.67 58.3899C25.2374 58.6313 26.4026 60.2578 27.0162 62.5257C26.5137 62.6058 26.0066 62.707 25.5048 62.831ZM28.1443 68.7402C28.6534 66.3709 29.8336 64.5474 31.4516 63.8949C31.192 66.4602 29.6127 67.778 28.1443 68.7402ZM50.0981 95.9347C48.2564 95.1126 46.8067 93.2533 45.9813 90.6697C47.9261 91.2537 49.2809 93.2621 50.0981 95.9347ZM17.463 42.1729C17.0456 44.5192 16.054 46.3025 14.556 47.2057C14.9408 44.9419 15.941 43.0688 17.3566 42.1741C17.3954 42.1737 17.4242 42.1734 17.463 42.1729ZM1.53195 25.2522C2.6049 23.0247 4.66058 20.0841 6.4732 20.8912C6.0252 24.5371 3.61761 25.1621 1.53195 25.2522ZM32.6783 68.5196C33.1881 66.5124 34.3162 65.1336 35.77 64.8738C35.7844 64.8668 35.7941 64.8515 35.8079 64.8438C35.9249 64.8864 36.0315 64.9301 36.1486 64.9728C35.2945 66.8721 34.1748 68.1772 32.6783 68.5196ZM30.3454 62.371C29.5185 61.4201 29.0619 59.9033 28.7059 58.3634C29.9653 59.0727 30.916 60.5399 31.3925 62.4473C31.0387 62.4149 30.6895 62.3892 30.3454 62.371ZM21.5543 42.1789C21.641 44.5635 20.3317 46.1507 19.0854 47.3693C19.2916 45.1438 20.1707 43.2949 21.4527 42.1724C21.487 42.1653 21.5204 42.1717 21.5543 42.1789ZM17.5505 41.1746C16.1562 40.8137 14.8874 39.8304 13.8736 38.3275C15.3554 38.3262 16.6482 39.3599 17.5893 41.1741C17.5793 41.1742 17.5656 41.182 17.5505 41.1746ZM22.8777 46.382C22.3259 46.0261 22.9762 45.458 23.2747 44.9894C23.606 44.4536 23.9964 43.9772 24.4177 43.6029C24.9342 43.1394 25.487 42.8592 26.0659 42.6903C26.3721 42.7385 26.6823 42.7943 26.9882 42.8568C26.477 43.6907 25.9211 44.427 25.2759 45.0475C24.7062 45.5927 23.5567 46.8254 22.8777 46.382ZM9.84993 21.0371C9.84375 23.0091 9.11202 25.3665 7.78808 25.9497C8.09906 23.9227 8.77887 22.3713 9.84993 21.0371ZM35.3316 63.3128C34.8924 62.7196 34.5149 62.0589 34.1937 61.2648C34.0382 60.89 33.8084 60.3605 33.7633 59.9177C33.525 59.4915 33.5791 59.2405 33.9416 59.1848C34.1069 58.9098 34.262 58.8928 34.4106 59.128C35.014 59.3285 35.7391 60.9667 36.021 61.7325C36.2523 62.3652 36.3928 63.0506 36.5144 63.7361C36.1202 63.584 35.7305 63.4403 35.3316 63.3128ZM21.451 40.9839C21.3734 40.9847 21.2869 40.9857 21.2093 40.9866C20.3589 39.7111 19.5647 38.3613 18.8139 36.9434C20.1048 37.5271 20.9685 39.0393 21.451 40.9839ZM9.67417 19.5773C8.36665 19.5919 7.16399 18.7779 6.31565 17.2884C7.04473 17.155 7.77828 17.3017 8.46369 17.8109C9.10442 18.2986 9.48276 19.0186 9.93914 19.7664C9.9103 19.7667 9.89033 19.7669 9.87148 19.7671C9.84009 19.6643 9.77554 19.5685 9.67417 19.5773ZM58.5534 93.6029C57.5897 92.2322 56.9792 90.4591 56.7244 88.5044C57.7872 89.704 58.3721 91.3513 58.7235 93.3201C58.6671 93.4087 58.6104 93.5134 58.5534 93.6029ZM4.15984 15.8565C5.54375 14.408 6.98151 13.6755 8.7023 13.8264C7.66603 15.8614 5.77888 16.6218 4.15984 15.8565ZM6.57502 11.2657C4.93678 11.86 3.26377 11.3178 1.93366 9.72199C3.63818 9.38491 5.21091 9.30138 6.57502 11.2657ZM14.5281 21.0882C14.0274 23.3541 13.1504 25.077 11.6559 25.8398C12.0094 23.7599 12.8377 22.0824 14.0482 21.0411C14.2083 21.063 14.3632 21.0756 14.5281 21.0882ZM25.8038 41.6806C24.4608 41.1787 23.4286 39.4315 22.586 37.7202C24.3562 37.9145 25.7625 39.4495 26.6431 41.8117C26.5994 41.8198 26.5606 41.8203 26.5123 41.8199C26.2748 41.7727 26.0368 41.7229 25.8038 41.6806ZM10.306 19.7471C10.0322 17.8222 8.6652 16.6785 7.33964 16.4344C8.10276 15.9606 8.80428 15.2067 9.37055 14.181C11.3906 15.9747 13.3164 17.9336 15.1567 20.0407C15.0794 20.0272 15.0018 20.028 14.9239 20.0137C14.9008 19.7474 14.7616 19.513 14.5554 19.6413C14.4208 19.7316 14.2919 19.8287 14.1626 19.9418C12.8782 19.7852 11.5937 19.7031 10.306 19.7471ZM59.7399 93.2648C60.6947 91.9471 61.7742 90.9005 63.0759 91.1373C62.0335 92.1082 60.9345 92.793 59.7399 93.2648ZM9.20865 12.957C7.54908 12.0306 7.50462 9.21661 7.69515 6.86528C8.90639 8.64604 9.76496 10.4688 9.47183 13.0573C9.3975 12.9769 9.30039 12.934 9.20865 12.957ZM59.6173 86.9359C59.1188 86.2698 58.6681 85.5287 58.2787 84.6913C57.9197 83.9272 57.1664 82.3765 57.1673 81.4087C57.1743 79.1779 58.8649 82.6384 59.0501 83.072C59.3756 83.8145 59.6191 84.6095 59.8193 85.4414C59.7487 85.9447 59.693 86.4402 59.6173 86.9359ZM60.5556 86.851C60.5891 86.8278 60.6326 86.8062 60.6557 86.7543C61.6786 84.7558 62.94 83.2283 64.4519 82.2877C63.7373 84.7997 62.2964 86.3376 60.5556 86.851ZM41.8237 56.2749C41.7766 56.7119 41.7345 57.1548 41.6968 57.5909C40.7952 56.1383 40.1952 54.4387 39.9165 52.5215C40.7055 53.5769 41.3289 54.8474 41.8237 56.2749ZM42.5443 58.66C42.4955 58.6606 42.4574 58.6754 42.4237 58.6834C42.4381 58.3288 42.4671 57.9808 42.491 57.6269C43.6832 56.3134 45.2526 55.993 46.6395 56.8497C45.4535 58.2139 44.0609 58.7683 42.5443 58.66ZM16.3285 19.2882C16.303 19.2073 16.2782 19.1408 16.2527 19.0599C16.4874 17.4846 16.9816 16.1484 17.81 15.1502C17.7756 16.8501 17.2549 18.3922 16.3285 19.2882ZM14.164 13.7951C13.1392 14.2718 11.7984 11.8783 11.1138 10.3581C12.3877 10.7128 13.396 11.8613 14.0557 13.6643C14.081 13.73 14.1205 13.7736 14.164 13.7951ZM16.6402 8.72985C16.5163 10.5703 16.2488 12.2576 15.3061 13.3763C15.2502 11.4862 15.6768 9.78957 16.6402 8.72985ZM33.7992 33.4459C33.6674 35.7517 32.6996 37.572 31.3277 38.4882C31.6944 36.3269 32.5511 34.5739 33.7992 33.4459ZM60.7728 77.1515C59.4262 75.763 58.5016 73.6982 58.1871 71.279C59.5399 72.0836 60.4982 73.7792 60.8756 75.8577C60.8428 76.2861 60.8149 76.7086 60.777 77.1294C60.7726 77.1362 60.7726 77.1362 60.7728 77.1515ZM29.874 30.8519C28.561 29.7584 27.6315 28.0625 27.171 25.9485C28.3894 26.5406 29.3645 27.6963 30.0084 29.403C29.9968 29.6028 29.9752 29.8027 29.9681 30.0092C29.948 30.3122 29.9429 30.6228 29.9373 30.9324C29.9137 30.9107 29.8987 30.8737 29.874 30.8519ZM43.0536 49.4217C43.0032 49.6219 42.9576 49.8144 42.9072 50.0146C42.0748 48.3185 41.5936 46.4323 41.7966 44.376C42.4947 45.8301 42.9249 47.48 43.0331 49.3035C43.0337 49.3474 43.0487 49.3845 43.0536 49.4217ZM14.3271 8.81571C13.3185 6.97263 13.5116 4.52567 13.8485 2.29199C14.8669 4.16288 14.935 6.60777 14.3271 8.81571ZM43.5503 50.6351C43.5969 50.4722 43.6234 50.3095 43.6648 50.139C44.794 49.151 46.0024 48.6731 47.3194 48.9757C46.2921 50.3897 44.9397 50.9589 43.5503 50.6351ZM30.7985 30.0955C30.8058 29.9474 30.8186 29.7924 30.8252 29.63C30.835 29.6146 30.8542 29.6 30.8683 29.5779C31.7766 27.6694 32.8518 26.3132 34.2992 25.6398C33.7959 28.031 32.4787 29.7672 30.7985 30.0955ZM61.5457 77.3713C61.7329 74.4667 63.3935 73.0955 64.9664 72.0299C64.5587 74.6788 63.2634 76.5916 61.5457 77.3713ZM30.4662 24.7148C30.4571 24.7741 30.4579 24.8333 30.4493 24.8917C29.4431 23.2559 28.6856 21.366 28.2496 19.2586C29.4609 20.3752 30.1856 22.3027 30.3324 24.5014C30.3393 24.6426 30.4035 24.7078 30.4662 24.7148ZM61.3369 69.0494C60.1303 67.9547 59.148 66.5995 58.363 64.8427C59.8046 64.7387 60.6916 66.5307 61.3658 68.3402C61.3597 68.5763 61.3479 68.8057 61.3369 69.0494ZM45.0636 43.5791C45.0536 43.5792 45.0536 43.5792 45.0487 43.5869C44.2993 41.9558 44.4751 39.9735 44.8221 38.1457C45.3755 39.6022 45.5577 41.2024 45.3678 42.8888C45.2656 43.1116 45.1618 43.3488 45.0636 43.5791ZM45.578 44.3119C45.5829 44.3042 45.5921 44.2897 45.6019 44.2744C46.0508 44.2178 46.5009 44.1612 46.9509 44.1342C47.372 44.1075 48.5829 43.8055 48.9414 44.496C47.919 45.5412 46.5903 45.3936 45.578 44.3119ZM64.9611 62.9529C64.3737 65.279 63.4459 67.0989 62.1505 68.6935C62.3719 66.1727 63.6399 64.3634 64.9611 62.9529ZM31.8826 21.7821C32.3558 19.6197 33.5016 18.0783 34.9324 17.597C34.3508 19.627 33.2531 21.0791 31.8826 21.7821ZM61.5839 61.4314C60.0183 61.3085 58.621 59.7438 58.1246 57.489C59.4913 58.2562 60.4965 59.5013 61.5033 61.1811C61.5279 61.2324 61.5618 61.2397 61.5863 61.2462C61.5872 61.3054 61.5831 61.3722 61.5839 61.4314ZM31.6662 17.7443C30.4028 16.7094 29.3875 15.1033 28.9799 13.0098C30.1139 13.7501 30.982 14.9078 31.5625 16.5933C31.5733 16.6524 31.579 16.7039 31.5936 16.7553C31.6034 16.7848 31.6185 16.7923 31.6332 16.8141C31.6688 16.9398 31.7142 17.05 31.7499 17.1892C31.755 17.1968 31.7645 17.1958 31.7747 17.2109C31.7338 17.3806 31.7026 17.5662 31.6662 17.7443ZM62.0575 61.0353C62.0561 60.9321 62.0544 60.8138 62.053 60.7106C62.0579 60.7029 62.0622 60.6961 62.0671 60.6884C62.4652 58.7044 63.291 56.8045 64.4163 55.5806C63.9729 57.741 63.1896 59.5448 62.0575 61.0353ZM47.8635 39.8469C47.8966 39.7949 47.9297 39.7429 47.9628 39.691C48.976 39.096 50.0757 39.0913 51.0025 39.9303C49.95 40.1341 48.9177 40.0796 47.8635 39.8469ZM32.1424 16.1063C32.0847 16.1069 32.0217 16.1592 31.9847 16.2485C31.2726 14.1957 32.0461 11.6534 32.8182 9.76173C33.415 11.9038 33.1491 14.3735 32.1424 16.1063ZM48.2007 37.9896C47.9966 38.2652 47.8072 38.5625 47.6122 38.8532C47.2483 37.0697 47.2901 35.2234 47.7894 33.5336C48.26 34.9385 48.3425 36.3926 48.2007 37.9896ZM60.4838 49.9363C61.401 51.4699 62.2608 53.3806 61.6155 55.3741C60.7225 53.863 60.3032 51.9246 60.4838 49.9363ZM50.9681 34.7459C50.9489 34.7605 50.9391 34.7758 50.9205 34.7912C50.0985 33.1237 50.0906 30.8558 50.9013 29.2666C51.4008 31.0324 51.3637 32.9024 50.9681 34.7459ZM54.2819 37.2865C53.1419 37.4617 52.0685 36.9271 51.1344 35.8886C52.2918 35.8833 53.3481 36.2632 54.2819 37.2865ZM52.936 33.1361C53.2294 32.3123 53.5967 31.5696 54.0679 30.9663C54.3012 30.6761 55.6696 29.1466 55.9362 29.8449C56.122 30.3225 54.7079 32.0293 54.5504 32.1867C54.0483 32.688 53.5099 32.9749 52.936 33.1361Z" fill="#4D504F" fill-opacity="0.7"/>
</svg>
