<svg width="271" height="273" viewBox="0 0 271 273" fill="none" xmlns="http://www.w3.org/2000/svg">
<g filter="url(#filter0_b_265_12452)">
<path d="M173.52 70.1969C171.981 69.9798 170.484 69.7953 168.949 69.6432C170.787 71.5546 172.008 74.0571 172.329 76.8242C172.374 77.2172 172.074 77.4962 171.713 77.3607C168.639 76.1615 165.928 72.9508 165.716 69.3794C164.989 69.3379 164.273 69.2683 163.548 69.226C154.307 75.5444 146.145 83.4324 138.591 92.0359C139.751 92.1517 141.324 92.1986 142.987 92.2227C144.407 88.1811 148.615 86.1102 152.605 87.0472C152.969 87.1283 153.306 87.6297 153.019 87.9845C151.701 89.634 150.318 91.2189 148.69 92.205C150.234 92.1926 151.426 92.1928 151.844 92.227C151.996 92.2493 152.158 92.2827 152.319 92.2969C153.029 88.8064 156.229 86.6412 159.522 86.7839C160.053 86.8072 160.119 87.5264 159.844 87.8354C158.334 89.5673 156.735 91.1659 155.056 92.6798C156.381 92.8938 157.704 93.1246 159.016 93.4012C160.872 90.245 164.577 89.0949 167.993 90.169C168.389 90.2918 168.422 90.8678 168.168 91.107C166.475 92.7202 164.544 93.7262 162.39 94.183C164.155 94.6181 165.91 95.0971 167.652 95.6397C169.988 92.8953 174.304 92.702 177.238 95.0598C177.532 95.3057 177.519 95.8023 177.184 95.9556C175.343 96.7625 173.748 98.3258 171.727 98.6828C173.368 100.316 174.395 102.348 174.731 104.721C174.783 105.143 174.509 105.398 174.15 105.383C169.817 105.298 167.755 100.293 166.771 96.4244C166.758 96.3486 166.762 96.2942 166.774 96.2316C165.312 95.878 163.839 95.5693 162.373 95.2701C164.454 97.0239 165.78 99.6074 165.868 102.542C165.878 102.792 165.623 102.893 165.439 102.828C162.142 101.614 159.536 98.364 159.032 94.6662C157.69 94.4496 156.337 94.2779 154.993 94.1169C157.098 96.1605 158.162 98.9716 158.079 102.019C158.073 102.406 157.651 102.564 157.365 102.348C154.554 100.21 151.64 97.5046 151.848 93.7913C150.433 93.6567 149.007 93.5662 147.579 93.4942C148.323 93.9542 149.034 94.5099 149.673 95.1667C150.406 95.9292 152.642 98.3784 151.811 99.6393C151.067 100.755 148.707 99.2275 147.943 98.8205C145.577 97.541 143.596 95.7005 142.004 93.402C140.418 93.4165 138.837 93.4614 137.244 93.568C131.469 100.277 126.048 107.369 120.763 114.483C119.689 115.938 118.597 117.39 117.514 118.835C119.894 118.06 122.338 117.489 124.813 117.098C124.998 115.188 125.85 113.443 127.096 112.132C127.956 111.244 130.214 109.365 131.633 110.274C133.688 111.581 131.517 114.58 129.49 116.606C130.892 116.526 132.308 116.522 133.719 116.574C134.665 113.274 137.221 111.014 140.524 110.698C140.956 110.651 141.397 111.131 141.215 111.602C140.487 113.569 139.607 115.633 138.197 116.965C139.386 117.14 140.574 117.352 141.75 117.626C142.386 113.802 146.153 111.628 149.635 112.316C150.169 112.422 150.343 113.083 149.986 113.464C148.969 114.54 147.844 117.37 146.333 118.964C147.566 119.413 148.805 119.909 150.014 120.484C150.04 120.497 150.063 120.528 150.087 120.541C150.01 120.261 150.098 119.943 150.424 119.918C154.3 119.641 157.786 123.233 158.404 127.297C158.466 127.674 158.189 128.021 157.823 127.976C154.146 127.388 149.972 125.935 149.055 121.422C149.049 121.375 149.06 121.348 149.054 121.302C147.591 120.828 146.141 120.412 144.689 120.033C144.611 120.049 144.525 120.056 144.447 120.072C145.672 120.943 146.719 122.057 147.537 123.404C148.067 124.274 149.395 126.563 147.889 127.078C146.619 127.51 144.633 125.898 143.737 125.001C142.258 123.521 141.306 121.547 141.117 119.444C141.112 119.379 141.125 119.316 141.128 119.262C139.645 118.978 138.173 118.771 136.7 118.619C139.111 120.275 140.778 122.889 141.146 126.031C141.188 126.342 140.919 126.661 140.612 126.496C137.36 124.708 133.896 122.447 133.406 118.356C131.986 118.295 130.58 118.291 129.179 118.352C131.339 119.638 132.911 121.832 133.458 124.559C133.522 124.919 133.235 125.273 132.895 125.204C129.568 124.502 126.431 122.234 125.03 118.746C121.934 119.175 118.844 119.946 115.771 121.116C107.025 132.542 97.9733 143.386 88.1835 153.504C91.3418 154.716 96.5217 153.994 99.0649 154.046C100.06 149.39 104.389 146.589 108.769 146.736C109.128 146.752 109.454 147.298 109.297 147.644C107.885 150.846 105.535 153.101 102.52 154.187C105.042 154.291 107.568 154.377 110.081 154.489C111.42 149.237 116.438 146.096 121.556 146.831C122.033 146.901 122.278 147.5 122.031 147.906C120.254 150.89 117.903 153.18 115.066 154.716C117.067 154.808 119.067 154.918 121.067 155.009C121.076 154.983 121.079 154.947 121.089 154.921C122.942 150.815 126.32 148.15 130.433 147.041C130.896 146.916 131.37 147.575 131.188 148.028C130.067 150.803 128.724 153.86 126.426 155.273C128.034 155.361 129.65 155.424 131.266 155.506C131.445 155.504 131.625 155.522 131.813 155.53C134.584 154.243 136.801 152.328 138.511 149.714C135.484 150.412 133.341 152.4 131.625 155.226C131.539 155.371 131.399 155.405 131.265 155.367C131.053 155.328 130.853 155.086 130.938 154.822C132.315 150.941 135.795 148.688 139.582 148.295C140.066 148.237 140.39 148.839 140.158 149.265C138.653 152.012 136.61 154.173 134.102 155.666C135.649 155.755 137.196 155.827 138.741 155.934C138.862 155.795 139.037 155.728 139.235 155.85C139.31 155.889 139.394 155.92 139.468 155.959C141.545 152.679 146.13 152.026 149.26 154.68C149.538 154.906 149.627 155.418 149.321 155.648C146.436 157.832 142.298 159.187 138.869 156.792C137.052 156.783 135.237 156.737 133.42 156.728C136.803 158.471 140.186 160.923 140.446 165.266C140.467 165.628 140.175 166.055 139.785 165.841C136.104 163.769 133.031 161.011 130.507 157.396C130.333 157.149 130.34 156.883 130.438 156.676C129.11 156.656 127.767 156.615 126.431 156.585C129.314 158.383 131.491 161.367 132.441 164.936C132.532 165.273 132.208 165.658 131.887 165.575C127.208 164.405 123.272 161.172 121.08 156.47C118.812 156.405 116.536 156.327 114.261 156.25C117.364 158.219 119.507 161.631 119.738 165.602C119.745 165.907 119.371 166.148 119.122 166C115.171 163.694 112.091 160.495 109.833 156.299C109.795 156.229 109.79 156.164 109.775 156.107C107.696 156.031 105.627 155.948 103.548 155.872C105.848 157.954 107.519 160.669 108.419 163.899C108.547 164.341 108.051 164.739 107.677 164.545C103.822 162.522 100.705 159.629 98.1356 155.895C98.0801 155.822 98.0504 155.745 98.0302 155.657C94.1888 155.507 90.3473 155.374 86.5078 155.224C80.3585 161.462 73.9262 167.412 67.0676 173.039C66.1645 173.792 64.9809 172.244 65.8603 171.46C72.3365 165.629 78.827 159.836 85.0461 153.728C84.6952 152.164 84.4043 150.6 84.0968 149.034C83.9858 149.165 83.8108 149.232 83.6003 149.173C80.7684 148.231 78.2503 146.616 75.9792 144.493C75.6951 144.239 75.6121 143.618 76.0402 143.489C78.9936 142.577 81.515 144.119 83.5924 146.344C83.2867 144.602 82.9976 142.864 82.7352 141.12C78.4762 140.52 74.8371 136.491 73.9988 131.925C73.9101 131.413 74.3924 130.942 74.8501 131.183C77.8086 132.725 80.2898 134.786 82.2729 137.576C81.9139 134.739 81.5974 131.899 81.3676 129.054C77.1171 127.894 74.1999 123.684 73.9744 119.07C73.9539 118.55 74.535 118.443 74.8822 118.66C77.351 120.212 79.8276 122.088 81.0788 124.771C80.9665 122.514 80.8714 120.279 80.8283 118.031C80.7226 118.09 80.5913 118.117 80.4357 118.011C77.1022 115.723 74.8527 111.676 74.3224 107.569C74.2726 107.129 74.7445 106.7 75.117 107.049C77.4364 109.235 79.7441 111.483 80.7823 114.438C80.7978 112.486 80.8308 110.537 80.9062 108.584C77.9378 106.202 76.011 102.516 75.671 98.6401C75.6317 98.155 76.1256 97.6555 76.5464 98.068C78.7093 100.146 80.2415 102.308 81.0936 105.079C81.1476 104.045 81.1848 103.027 81.2635 102.007C81.0019 101.803 80.8879 101.416 81.2029 101.178C81.2485 101.138 81.2848 101.106 81.3211 101.075C81.3223 101.038 81.3255 101.001 81.3277 100.966C81.3289 100.929 81.3403 100.903 81.3498 100.877C79.4599 97.5382 82.1099 94.2964 84.2993 92.2684C84.626 91.966 85.1414 92.2446 85.2346 92.6828C85.9662 96.3032 84.7356 100.039 81.9784 101.975C81.8911 103.557 81.8535 105.146 81.8179 106.735C83.3445 104.333 86.0304 102.894 88.7466 102.621C89.1353 102.576 89.4444 103 89.3425 103.4C88.3477 107.069 85.3841 109.427 81.756 109.16C81.7275 111.036 81.7423 112.91 81.7654 114.793C83.321 112.625 85.4937 111.147 88.3398 112.147C88.6679 112.259 88.7835 112.747 88.613 113.017C86.9191 115.634 84.7257 117.598 81.9614 118.777C81.9262 118.79 81.8921 118.786 81.8663 118.79C81.9274 120.468 82.0133 122.159 82.1169 123.833C83.3049 121.638 85.3702 120.099 87.8577 119.663C88.1783 119.608 88.5518 119.958 88.5037 120.329C87.9435 124.33 85.886 127.42 82.5738 129.163C82.7803 131.406 83.0477 133.649 83.3399 135.886C84.8333 133.045 87.2615 129.77 89.4031 131.486C90.7612 132.571 89.7041 134.582 89.1737 135.684C87.9938 138.165 86.2705 140.134 84.1545 141.666C84.3045 142.867 84.4327 144.555 84.6394 146.244C85.3834 143.745 87.3018 141.797 89.5653 140.812C89.9876 140.635 90.5634 141.033 90.4961 141.575C90.0437 145.224 88.424 147.88 85.7663 149.986C85.6398 150.097 85.4837 150.13 85.3392 150.099C85.5549 150.914 85.8308 151.609 86.179 152.085C86.2582 152.188 86.3476 152.267 86.4279 152.352C89.9054 148.891 93.2853 145.322 96.5314 141.579C103.043 134.038 108.987 125.953 114.924 117.858C115.371 115.444 115.571 113.003 115.574 110.561C115.486 110.604 115.38 110.642 115.269 110.636C111.963 110.574 108.787 108.787 106.519 106.057C106.224 105.691 106.362 105.121 106.741 104.946C109.57 103.676 112.938 104.274 115.378 106.439C115.17 104.371 114.823 102.302 114.312 100.272C111.107 100.519 107.842 98.7933 105.852 95.8545C105.584 95.4655 105.729 94.9051 106.187 94.8532C108.574 94.5226 111.192 95.1657 113.275 96.7267C112.709 95.0396 112.063 93.386 111.304 91.7814C110.143 92.5511 108.728 92.8305 107.318 92.6051C106.308 92.4468 103.852 91.6619 103.494 90.3644C103.083 88.8015 105.097 88.379 106.081 88.4403C107.353 88.5274 108.697 88.8435 110 89.2665C109.343 88.0728 108.616 86.9058 107.845 85.7776C105.166 86.2596 102.264 85.7763 99.6507 84.7465C99.1814 84.5665 99.079 83.8609 99.4398 83.5624C101.006 82.1987 103.297 81.761 105.303 82.4534C104.448 81.4343 103.556 80.4447 102.61 79.5029C100.321 81.4791 97.0795 81.759 94.2154 80.6362C93.7461 80.4563 93.6652 79.7993 93.9929 79.498C95.7093 77.9157 98.1931 77.12 100.539 77.5858C100.017 77.1405 99.4955 76.6952 98.956 76.2652C98.7993 76.4354 98.5717 76.5306 98.3013 76.4549C96.2966 75.8462 94.4548 74.5604 93.1691 72.7209C92.5222 71.7958 91.2223 69.8992 92.243 68.9071C93.3187 67.8492 95.2439 69.2011 96.1911 69.9677C97.8664 71.3114 98.9651 73.1413 99.5047 75.268C99.5546 75.4327 99.5128 75.5543 99.438 75.6552C99.8654 75.9588 100.265 76.3027 100.691 76.6231C99.8681 74.0873 100.287 71.2823 101.574 69.1564C101.792 68.8116 102.245 68.8497 102.508 69.1556C104.764 71.8106 104.837 75.8503 102.741 78.2985C102.866 78.3622 102.97 78.48 103.022 78.607C103.85 79.374 104.625 80.1701 105.389 80.9932C105.193 78.8443 105.849 76.6635 107.009 75.0647C107.28 74.6897 107.817 74.7592 108.029 75.2148C109.459 78.2095 109.545 81.5955 108.273 84.4512C108.289 84.4714 108.313 84.5035 108.329 84.5238C108.739 84.5472 108.938 84.9449 108.858 85.2742C109.284 85.8902 109.708 86.5238 110.098 87.1535C110.069 84.9468 110.849 82.8297 112.255 81.2945C112.567 80.953 113.103 81.299 113.198 81.7195C113.864 84.7211 114.518 88.3576 112.511 90.6435C112.484 90.7874 112.393 90.9027 112.245 90.9264C112.245 90.9264 112.236 90.9345 112.244 90.9452C113.016 92.4885 113.673 94.0971 114.268 95.7231C114.714 93.4838 115.743 91.4973 117.36 90.0017C117.65 89.7309 118.124 89.976 118.203 90.3751C118.895 93.6655 118.179 97.4233 115.709 99.4003C115.655 99.4473 115.593 99.4656 115.523 99.4744C115.544 99.5598 115.547 99.6437 115.534 99.743C115.985 101.479 116.333 103.253 116.575 105.032C117.547 103.147 118.976 101.643 120.735 100.491C121.084 100.256 121.705 100.476 121.628 101.029C121.208 104.406 119.694 107.317 117.28 109.367C117.171 109.462 117.067 109.484 116.956 109.477C117.017 111.45 116.949 113.412 116.734 115.381C118.754 112.619 120.782 109.865 122.843 107.135C126.647 102.091 130.595 97.0942 134.728 92.3011C135.299 90.9376 135.743 89.5472 136.121 88.1458C132.674 86.7344 130.504 82.6541 130.824 78.8116C130.871 78.3202 131.335 78.1583 131.715 78.398C134.123 79.9698 135.9 82.3326 136.797 85.0652C137.22 82.6198 137.406 80.1207 137.413 77.6068C133.644 76.8586 130.66 73.4693 130.172 69.359C130.115 68.8892 130.478 68.5552 130.905 68.7204C133.427 69.7094 135.752 71.5077 137.311 73.9217C137.185 71.764 136.948 69.5817 136.653 67.3991C132.895 66.4499 130.038 63.2261 129.153 59.1681C129.06 58.73 129.431 58.2683 129.854 58.3675C132.531 59.0288 134.735 60.8652 136.042 63.3624C135.843 62.1159 135.627 60.8677 135.402 59.6279C132.803 56.8211 132.342 52.4105 134.437 49.4101C134.68 49.0774 135.164 49.1392 135.354 49.5451C136.486 52.0715 137.551 54.607 137.386 57.1547C138.559 55.7701 140.192 54.8671 142.033 54.7685C142.351 54.751 142.615 55.058 142.518 55.4026C141.628 58.5996 139.79 61.2051 136.785 62.2471C137.268 64.318 137.682 66.3977 138.017 68.4942C138.328 65.4898 140.368 63.1062 143.075 62.3064C143.494 62.1833 143.961 62.5561 143.811 63.0514C142.797 66.3409 141.143 69.1308 138.745 71.357C138.645 71.4437 138.549 71.476 138.437 71.4681C138.554 72.3711 138.654 73.2695 138.72 74.1639C140.149 72.2269 142.307 71.0052 144.761 70.979C145.198 70.9789 145.56 71.3732 145.428 71.851C144.533 75.1581 142.425 77.6679 139.492 78.9422C139.255 79.0456 139.044 78.9693 138.891 78.8073C138.873 80.9522 138.701 83.0744 138.351 85.163C138.278 85.659 137.853 86.8592 137.451 88.1093C137.448 88.1637 137.428 88.2167 137.398 88.2767C137.22 88.7942 137.059 89.3333 136.927 89.8123C144.609 81.2181 153.012 73.4492 162.539 67.5222C160.279 65.7516 158.983 62.5379 159.892 59.7206C160.009 59.3409 160.483 59.1721 160.8 59.4489C162.487 60.9052 163.755 62.8805 164.301 65.0535C164.956 63.7214 165.495 62.3342 165.926 60.8868C162.59 59.8973 162.062 55.1835 162.034 52.128C162.032 51.5924 162.636 51.3773 163.013 51.6735C165.17 53.3097 166.596 56.0632 166.492 58.7866C166.717 57.7597 166.917 56.7196 167.077 55.6462C166.922 55.522 166.814 55.3224 166.809 55.1189C164.603 51.6046 165.721 46.7719 168.567 44.5367C168.909 44.2745 169.445 44.4812 169.535 44.9738C170.223 48.7535 170.729 53.1231 167.754 55.6635C167.736 55.6788 167.709 55.6844 167.692 55.6997C167.627 57.0543 167.453 58.3475 167.179 59.6069C168.429 56.9423 171.181 55.4121 174.041 55.8976C174.415 55.9527 174.676 56.4525 174.442 56.7771C173.094 58.6437 169.5 63.0547 166.819 61.1492C166.347 62.8588 165.717 64.4805 164.952 66.0646C168.168 64.2143 171.525 62.5885 175.03 61.1967C172.808 57.5605 176.935 53.549 179.238 51.7691C179.545 51.5197 180.136 51.6794 180.182 52.1941C180.379 54.3062 180.432 56.9611 179.636 58.9354C179.734 58.8675 179.849 58.8189 179.976 58.8471C179.985 58.839 179.977 58.8283 179.986 58.8211C182.083 55.0734 187.148 56.3724 190.463 57.7092C190.839 57.865 190.909 58.3927 190.637 58.6472C187.79 61.197 183.792 61.8067 180.15 60.22C179.578 60.4588 179.013 60.7251 178.433 60.9723C181.408 61.253 184.459 62.8372 186.323 65.4535C186.512 65.721 186.486 66.1784 186.161 66.2869C184.883 66.708 183.594 66.7568 182.33 66.5433C182.334 66.6272 182.319 66.7253 182.264 66.7911C181.031 68.2968 179.441 69.2325 177.672 69.5622C178.163 69.6715 178.654 69.7629 179.143 69.8898C179.43 69.969 179.587 70.1948 179.633 70.4507C183.709 68.1473 188.877 74.7891 190.575 78.3311C190.782 78.7396 190.453 79.2169 190.053 79.1486C185.875 78.4785 180.135 77.0063 179.536 71.4702C179.34 71.4687 179.178 71.297 179.113 71.0954C179.096 71.0928 179.087 71.1 179.071 71.0986C178.001 70.9042 176.942 70.7208 175.872 70.5453C177.966 72.3381 179.207 75.2037 179.148 78.0066C179.138 78.327 178.779 78.5878 178.487 78.4256C175.523 76.7601 173.111 73.9809 173.52 70.1969ZM140.568 156.461C143.137 157.374 145.7 156.682 147.883 155.179C145.354 153.746 142.339 154.261 140.568 156.461ZM139.217 164.283C138.208 160.557 135.041 158.643 131.841 157.121C133.868 160.048 136.31 162.454 139.217 164.283ZM131.105 164.167C129.889 160.605 127.337 157.879 124.109 156.536C123.613 156.518 123.107 156.509 122.602 156.499C124.434 160.217 127.406 162.959 131.105 164.167ZM122.48 154.978C126.197 155.461 128.171 152.184 129.405 148.946C126.397 150.198 124.043 152.248 122.072 155.056C122.106 155.062 122.132 155.055 122.166 155.061C122.246 155.009 122.345 154.959 122.48 154.978ZM118.598 164.556C117.704 160.626 115.281 157.476 111.605 156.161C111.433 156.154 111.28 156.15 111.109 156.143C112.863 159.721 115.375 162.551 118.598 164.556ZM157.077 126.627C156.093 123.468 153.49 121.462 150.487 120.928C150.436 120.921 150.377 120.902 150.336 120.869C150.363 120.984 150.357 121.093 150.325 121.189C150.332 121.218 150.34 121.228 150.348 121.257C151.048 124.8 154.179 126.053 157.077 126.627ZM146.475 125.546C146.866 125.898 147.059 125.834 147.045 125.343C147.218 125.02 147.162 124.688 146.88 124.379C146.652 123.764 146.031 122.972 145.617 122.45C144.741 121.344 143.711 120.51 142.565 119.761C142.474 119.701 142.428 119.602 142.417 119.509C142.417 119.509 142.4 119.506 142.392 119.497C142.715 121.692 144.181 125.069 146.475 125.546ZM112.498 154.588C115.717 153.237 118.354 151.061 120.371 148.059C116.155 147.89 112.745 150.531 111.112 154.532C111.558 154.561 112.002 154.57 112.455 154.591C112.464 154.582 112.481 154.585 112.498 154.588ZM106.875 162.738C105.848 159.894 104.08 157.524 101.766 155.801C101.032 155.767 100.295 155.75 99.5586 155.716C101.515 158.667 103.972 160.992 106.875 162.738ZM168.041 97.7093C169.17 100.567 170.583 103.44 173.536 104.087C173.219 102.113 172.364 100.503 170.864 99.0933C170.759 98.9944 170.698 98.8755 170.687 98.762C169.703 98.7195 168.772 98.3703 168.041 97.7093ZM175.954 95.4726C173.399 94.202 170.765 94.5059 168.567 96.1271C168.592 96.2775 168.547 96.4557 168.423 96.5303C170.282 99.2198 173.738 96.8145 175.954 95.4726ZM145.058 118.543C146.483 117.664 147.564 115.113 148.504 113.482C145.739 113.398 143.611 115.131 142.419 117.794C143.297 118.017 144.183 118.266 145.058 118.543ZM140.124 125.228C139.35 122.164 137.37 119.613 134.562 118.408C134.888 121.654 137.595 123.676 140.124 125.228ZM100.202 153.597C103.477 153.028 106.117 151.076 107.697 148.072C104.252 148.321 101.772 150.481 100.202 153.597ZM160.222 94.8805C160.836 97.8934 162.487 100.348 165.072 101.835C164.511 98.9327 162.849 96.3642 160.409 94.908C160.34 94.8979 160.29 94.8905 160.222 94.8805ZM189.05 77.7846C187.278 74.7586 183.817 70.6075 180.594 71.1655C181.196 75.7984 185.392 77.1627 189.05 77.7846ZM132.174 123.846C131.38 121.231 129.469 119.244 126.93 118.566C126.905 118.554 126.889 118.533 126.865 118.52C126.657 118.544 126.468 118.572 126.26 118.597C127.664 121.162 129.564 123.055 132.174 123.846ZM136.581 116.788C138.081 115.811 138.96 114.041 139.663 112.217C137.415 112.789 135.672 114.377 134.739 116.627C135.362 116.673 135.976 116.726 136.581 116.788ZM153.038 93.8871C152.765 96.8244 154.984 99.1139 157.11 100.93C156.861 98.119 155.411 95.6101 153.216 93.904C153.156 93.8867 153.098 93.8865 153.038 93.8871ZM160.119 93.6205C162.585 93.5138 164.863 92.6043 166.719 90.9876C164.117 90.6235 161.795 91.5898 160.05 93.6104C160.068 93.613 160.092 93.626 160.119 93.6205ZM150.501 98.7781C151.488 98.4715 150.375 97.6076 149.875 96.9532C149.32 96.2075 148.659 95.5209 147.938 94.9534C147.054 94.2521 146.098 93.7692 145.09 93.4181C144.55 93.403 144.002 93.3963 143.462 93.3991C144.318 94.5587 145.257 95.6081 146.358 96.5357C147.331 97.3515 149.287 99.162 150.501 98.7781ZM174.657 70.5206C174.569 72.9686 175.734 76.0723 178.03 77.1197C177.586 74.5289 176.471 72.4378 174.657 70.5206ZM127.778 116.737C128.58 116.108 129.276 115.381 129.88 114.474C130.172 114.048 130.602 113.447 130.704 112.908C131.144 112.438 131.061 112.113 130.428 111.956C130.151 111.574 129.88 111.515 129.607 111.77C128.537 111.872 127.182 113.727 126.648 114.608C126.21 115.336 125.928 116.152 125.68 116.973C126.38 116.88 127.072 116.798 127.778 116.737ZM153.279 92.4298C153.416 92.4499 153.567 92.4723 153.704 92.4923C155.261 91.1178 156.724 89.6376 158.114 88.0621C155.818 88.4705 154.225 90.1354 153.279 92.4298ZM175.04 68.7524C177.335 69.0903 179.488 68.3747 181.053 66.7342C179.779 66.3904 178.484 66.3929 177.254 66.8571C176.105 67.3054 175.404 68.1061 174.565 68.9222C174.616 68.9297 174.651 68.9348 174.684 68.9397C174.744 68.8198 174.862 68.7168 175.04 68.7524ZM85.4732 148.636C87.2346 147.171 88.3962 145.121 88.9423 142.758C87.0156 143.986 85.9054 145.887 85.1887 148.244C85.2833 148.367 85.3777 148.511 85.4732 148.636ZM184.91 65.4851C182.553 63.3495 180.066 62.0891 177.037 61.8553C178.754 64.6336 182.029 66.0385 184.91 65.4851ZM180.901 59.1988C183.748 60.3368 186.713 60.0734 189.129 58.4188C186.153 57.5837 183.396 57.0954 180.901 59.1988ZM166.441 69.4397C167.205 72.3734 168.658 74.7253 171.244 76.0372C170.728 73.3703 169.358 71.0866 167.285 69.4986C167.003 69.4866 166.731 69.4644 166.441 69.4397ZM145.601 92.2296C147.985 91.9354 149.885 90.0202 151.451 88.1032C148.333 87.9113 145.786 89.4716 144.121 92.1869C144.197 92.2076 144.265 92.2177 144.35 92.2291C144.769 92.2285 145.19 92.225 145.601 92.2296ZM173.922 68.8085C174.5 66.4874 176.958 65.4029 179.298 65.4243C177.982 64.6498 176.788 63.5428 175.846 62.1318C172.208 63.8631 168.727 65.8224 165.39 67.9863C165.526 67.9885 165.662 68.0085 165.8 68.0097C165.854 67.6851 166.11 67.4283 166.466 67.6379C166.697 67.7829 166.919 67.9348 167.14 68.1068C169.403 68.2267 171.663 68.439 173.922 68.8085ZM83.4069 147.926C81.797 146.058 79.9543 144.496 77.6569 144.471C79.438 145.931 81.3332 147.049 83.4069 147.926ZM176.192 60.6529C179.152 59.9095 179.373 56.4292 179.157 53.4654C176.94 55.3784 175.341 57.4298 175.724 60.7129C175.859 60.6314 176.032 60.6019 176.192 60.6529ZM83.9419 140.105C84.8509 139.4 85.6798 138.591 86.4059 137.647C87.0748 136.787 88.4758 135.047 88.5232 133.847C88.6237 131.077 85.4802 134.957 85.1331 135.45C84.5242 136.291 84.0564 137.218 83.6628 138.201C83.7613 138.843 83.8341 139.471 83.9419 140.105ZM82.2988 139.77C82.2411 139.733 82.1658 139.695 82.1278 139.625C80.4327 136.896 78.2951 134.692 75.6878 133.155C76.8156 136.446 79.2679 138.707 82.2988 139.77ZM116.735 106.417C116.795 106.971 116.847 107.531 116.891 108.081C118.547 106.499 119.687 104.538 120.273 102.227C118.834 103.344 117.676 104.767 116.735 106.417ZM115.349 109.2C115.435 109.213 115.501 109.241 115.559 109.259C115.552 108.815 115.519 108.376 115.495 107.932C113.468 106.01 110.728 105.229 108.25 105.953C110.263 107.935 112.68 108.964 115.349 109.2ZM163.37 66.7662C163.419 66.672 163.466 66.5955 163.515 66.5014C163.182 64.4897 162.382 62.711 160.978 61.27C160.952 63.3874 161.789 65.4279 163.37 66.7662ZM167.448 60.4805C169.224 61.3226 171.699 58.6811 172.978 56.9626C170.723 57.091 168.895 58.2693 167.645 60.3448C167.597 60.4201 167.526 60.4645 167.448 60.4805ZM163.356 53.5907C163.481 55.9044 163.865 58.0631 165.464 59.6816C165.658 57.3504 164.994 55.1411 163.356 53.5907ZM131.978 80.0574C132.093 82.9504 133.701 85.4455 136.063 86.9178C135.528 84.1467 134.113 81.7622 131.978 80.0574ZM82.4074 127.683C84.842 126.29 86.5699 123.954 87.2444 121.03C84.8283 121.697 83.0601 123.566 82.2923 126.053C82.3283 126.592 82.3559 127.123 82.4012 127.655C82.4085 127.664 82.4085 127.664 82.4074 127.683ZM139.001 77.7994C141.362 76.7639 143.08 74.8872 143.996 72.3772C141.826 72.8137 140.056 74.009 138.839 75.9689C138.849 76.2196 138.877 76.4729 138.879 76.7308C138.899 77.1117 138.892 77.4982 138.886 77.8838C138.929 77.8626 138.957 77.8203 139.001 77.7994ZM114.921 97.6141C115 97.8749 115.07 98.1249 115.149 98.3856C116.696 96.4849 117.636 94.2625 117.384 91.6618C116.084 93.2949 115.246 95.2366 114.963 97.4725C114.96 97.5269 114.932 97.5692 114.921 97.6141ZM167.414 54.263C169.278 52.2231 169.062 49.1401 168.584 46.2865C166.701 48.3585 166.458 51.3751 167.414 54.263ZM113.988 98.9981C113.914 98.7846 113.876 98.5762 113.812 98.3545C111.879 96.8526 109.781 95.9642 107.454 96.0174C109.186 98.023 111.532 99.0599 113.988 98.9981ZM137.417 76.6348C137.411 76.4493 137.396 76.2539 137.393 76.0507C137.377 76.0293 137.344 76.0065 137.32 75.9755C135.822 73.3857 134.002 71.4401 131.495 70.2506C132.258 73.3403 134.483 75.8165 137.417 76.6348ZM81.0392 127.767C80.8573 124.117 78.0107 122.01 75.3028 120.303C75.8847 123.689 78.0625 126.379 81.0392 127.767ZM138.272 70.0405C138.285 70.1163 138.28 70.1895 138.293 70.2642C140.142 68.4808 141.568 66.3214 142.44 63.8135C140.256 64.9026 138.886 67.1166 138.518 69.8085C138.498 69.982 138.382 70.0473 138.272 70.0405ZM81.8263 117.493C84.0003 116.43 85.7936 114.989 87.2607 113.002C84.7347 112.52 83.0867 114.526 81.8114 116.606C81.8102 116.901 81.8193 117.188 81.8263 117.493ZM111.687 89.874C111.705 89.8766 111.705 89.8765 111.713 89.8872C113.111 88.0469 112.903 85.5446 112.386 83.1921C111.341 84.8637 110.94 86.8045 111.188 88.9431C111.356 89.2445 111.526 89.5642 111.687 89.874ZM110.747 90.6573C110.739 90.6465 110.723 90.6263 110.707 90.6049C109.922 90.4248 109.134 90.2445 108.345 90.101C107.607 89.9648 105.496 89.294 104.832 90.063C106.574 91.6098 108.915 91.7516 110.747 90.6573ZM75.7708 109.043C76.6846 112.073 78.2218 114.557 80.4157 116.853C80.1543 113.671 78.0194 111.116 75.7708 109.043ZM135.933 66.0557C135.211 63.2571 133.277 61.0645 130.789 60.1175C131.708 62.7783 133.562 64.8482 135.933 66.0557ZM81.7775 107.981C84.5328 108.212 87.0654 106.612 88.0509 103.936C85.6123 104.554 83.7845 105.853 81.9317 107.691C81.886 107.748 81.826 107.749 81.7827 107.751C81.7782 107.824 81.7819 107.908 81.7775 107.981ZM136.517 61.0991C138.788 60.1242 140.651 58.3799 141.473 55.8824C139.444 56.5234 137.862 57.7474 136.757 59.6964C136.735 59.7671 136.723 59.8297 136.694 59.8899C136.676 59.9241 136.649 59.9296 136.622 59.9531C136.553 60.1003 136.468 60.226 136.398 60.39C136.389 60.3981 136.372 60.3946 136.353 60.4109C136.417 60.6313 136.462 60.8693 136.517 61.0991ZM80.9659 107.374C80.9737 107.247 80.9826 107.1 80.9903 106.972C80.9821 106.962 80.9749 106.952 80.9667 106.941C80.3679 104.383 79.014 101.824 77.0999 100.03C77.7692 102.819 79.0534 105.248 80.9659 107.374ZM106.96 84.5587C106.904 84.4861 106.849 84.4136 106.793 84.341C105.044 83.355 103.113 83.0802 101.444 83.8944C103.281 84.4047 105.097 84.5896 106.96 84.5587ZM135.764 58.9504C135.865 58.9653 135.973 59.0456 136.033 59.1654C137.387 56.7928 136.158 53.4495 134.898 50.9138C133.741 53.4253 134.084 56.5545 135.764 58.9504ZM106.461 82.1721C106.806 82.5638 107.123 82.979 107.451 83.3873C108.18 81.2637 108.2 78.9629 107.409 76.7442C106.511 78.3722 106.293 80.156 106.461 82.1721ZM84.29 93.9891C82.6021 95.6675 80.9959 97.8277 82.0282 100.459C83.6726 98.8025 84.5068 96.5001 84.29 93.9891ZM101.766 77.4708C101.799 77.4936 101.815 77.515 101.847 77.5387C103.375 75.671 103.503 72.8593 102.16 70.6892C101.194 72.7579 101.165 75.0869 101.766 77.4708ZM95.819 79.8123C97.8119 80.3084 99.7237 79.9078 101.416 78.8478C99.3843 78.5581 97.5105 78.7711 95.819 79.8123ZM98.3921 74.9923C97.9184 73.8984 97.3111 72.8872 96.5141 72.0234C96.1191 71.6063 93.7937 69.374 93.2904 70.1752C92.94 70.7223 95.3367 73.1857 95.6053 73.4195C96.4616 74.1643 97.3924 74.6519 98.3921 74.9923Z" fill="#4D504F" fill-opacity="0.3"/>
</g>
<defs>
<filter id="filter0_b_265_12452" x="49.5508" y="28.4219" width="157.251" height="160.817" filterUnits="userSpaceOnUse" color-interpolation-filters="sRGB">
<feFlood flood-opacity="0" result="BackgroundImageFix"/>
<feGaussianBlur in="BackgroundImageFix" stdDeviation="8"/>
<feComposite in2="SourceAlpha" operator="in" result="effect1_backgroundBlur_265_12452"/>
<feBlend mode="normal" in="SourceGraphic" in2="effect1_backgroundBlur_265_12452" result="shape"/>
</filter>
</defs>
</svg>
