<svg width="182" height="179" viewBox="0 0 182 179" fill="none" xmlns="http://www.w3.org/2000/svg">
<path d="M152.936 35.8812C150.393 35.5804 147.92 35.3247 145.386 35.1141C148.422 37.7622 150.438 41.2294 150.969 45.0631C151.043 45.6076 150.548 45.9941 149.951 45.8064C144.873 44.145 140.396 39.6966 140.045 34.7485C138.846 34.6911 137.662 34.5946 136.465 34.536C121.202 43.29 107.722 54.2186 95.2448 66.1385C97.1601 66.2989 99.7588 66.3639 102.506 66.3974C104.851 60.7978 111.8 57.9287 118.39 59.2267C118.992 59.3391 119.548 60.0339 119.075 60.5254C116.898 62.8107 114.614 65.0066 111.925 66.3728C114.474 66.3556 116.443 66.3559 117.134 66.4032C117.385 66.4342 117.652 66.4804 117.919 66.5001C119.091 61.6641 124.377 58.6643 129.816 58.862C130.693 58.8942 130.802 59.8908 130.348 60.3188C127.853 62.7184 125.213 64.9332 122.44 67.0307C124.627 67.3272 126.813 67.6469 128.98 68.0301C132.044 63.6573 138.164 62.0638 143.807 63.552C144.461 63.722 144.515 64.5201 144.095 64.8515C141.299 67.0866 138.11 68.4803 134.553 69.1132C137.468 69.716 140.367 70.3798 143.243 71.1314C147.102 67.3292 154.23 67.0613 159.077 70.328C159.562 70.6688 159.541 71.3567 158.987 71.5691C155.946 72.6871 153.312 74.853 149.974 75.3477C152.685 77.6104 154.38 80.425 154.935 83.7132C155.021 84.2987 154.569 84.651 153.977 84.6305C146.819 84.5131 143.414 77.5786 141.789 72.2186C141.767 72.1136 141.773 72.0382 141.794 71.9516C139.378 71.4616 136.946 71.0339 134.525 70.6194C137.961 73.0493 140.151 76.6285 140.296 80.6941C140.313 81.0414 139.893 81.1811 139.588 81.0908C134.143 79.409 129.838 74.9059 129.006 69.7827C126.789 69.4826 124.555 69.2447 122.334 69.0217C125.811 71.853 127.57 75.7477 127.433 79.97C127.421 80.5055 126.726 80.7253 126.253 80.4255C121.61 77.4633 116.798 73.7152 117.141 68.5705C114.803 68.3841 112.448 68.2587 110.089 68.1589C111.318 68.7963 112.493 69.5661 113.548 70.4761C114.759 71.5326 118.452 74.9259 117.08 76.6727C115.85 78.2192 111.952 76.1023 110.69 75.5384C106.783 73.7657 103.511 71.2157 100.882 68.0312C98.2611 68.0513 95.65 68.1136 93.0198 68.2612C83.4808 77.5569 74.5278 87.3827 65.7982 97.2377C64.0238 99.2537 62.2203 101.266 60.4324 103.267C64.3623 102.195 68.4 101.403 72.4878 100.861C72.7929 98.2156 74.2007 95.7974 76.2575 93.9815C77.6783 92.7512 81.4077 90.1472 83.7511 91.4065C87.1462 93.2183 83.5607 97.3731 80.2125 100.179C82.5286 100.069 84.8663 100.064 87.1968 100.135C88.7589 95.5635 92.9807 92.4322 98.4364 91.9942C99.1499 91.9288 99.8787 92.5936 99.5784 93.247C98.3754 95.9714 96.9226 98.8316 94.5928 100.677C96.5573 100.919 98.5198 101.213 100.461 101.593C101.512 96.2943 107.734 93.2829 113.485 94.236C114.367 94.3829 114.654 95.2989 114.064 95.8259C112.385 97.3168 110.527 101.239 108.032 103.447C110.068 104.068 112.115 104.756 114.111 105.552C114.153 105.57 114.192 105.613 114.232 105.631C114.104 105.244 114.25 104.803 114.789 104.768C121.19 104.384 126.947 109.361 127.969 114.991C128.072 115.515 127.614 115.995 127.008 115.932C120.936 115.118 114.042 113.105 112.528 106.852C112.518 106.787 112.535 106.75 112.525 106.686C110.109 106.029 107.714 105.452 105.316 104.928C105.188 104.95 105.045 104.959 104.917 104.981C106.939 106.189 108.669 107.732 110.021 109.598C110.895 110.804 113.089 113.974 110.601 114.688C108.504 115.286 105.224 113.053 103.744 111.811C101.301 109.76 99.729 107.025 99.416 104.112C99.408 104.021 99.4289 103.935 99.4344 103.859C96.9844 103.466 94.5543 103.179 92.1203 102.969C96.1033 105.263 98.8563 108.884 99.464 113.238C99.5334 113.668 99.0894 114.111 98.582 113.883C93.2108 111.405 87.4899 108.272 86.6806 102.605C84.3348 102.52 82.0125 102.514 79.6983 102.598C83.2658 104.38 85.8631 107.42 86.7654 111.199C86.872 111.698 86.397 112.188 85.8362 112.092C80.3415 111.119 75.1598 107.977 72.8463 103.145C67.7329 103.739 62.629 104.807 57.5531 106.428C43.108 122.258 28.1568 137.282 11.9872 151.301C17.2037 152.98 25.7592 151.98 29.9598 152.052C31.6029 145.601 38.7531 141.72 45.9871 141.924C46.5807 141.946 47.1196 142.703 46.8595 143.182C44.527 147.618 40.6464 150.742 35.6666 152.247C39.8328 152.391 44.004 152.51 48.1548 152.666C50.367 145.389 58.6543 141.037 67.1074 142.056C67.8951 142.153 68.3005 142.983 67.8916 143.545C64.9581 147.68 61.074 150.853 56.388 152.98C59.6942 153.108 62.9969 153.26 66.2998 153.387C66.3154 153.35 66.3207 153.3 66.3363 153.264C69.3969 147.576 74.9764 143.883 81.7703 142.347C82.5339 142.174 83.3176 143.087 83.016 143.713C81.1658 147.559 78.9467 151.795 75.1523 153.751C77.8067 153.874 80.4767 153.961 83.1448 154.074C83.4419 154.071 83.7385 154.096 84.0491 154.108C88.6258 152.324 92.2874 149.671 95.1124 146.05C90.1131 147.017 86.5723 149.771 83.739 153.687C83.5963 153.887 83.3658 153.935 83.1441 153.883C82.7945 153.828 82.4635 153.493 82.6035 153.127C84.8777 147.75 90.6266 144.628 96.8816 144.084C97.6806 144.003 98.2155 144.837 97.8321 145.428C95.3473 149.234 91.9725 152.227 87.8293 154.296C90.3847 154.42 92.9404 154.519 95.4924 154.667C95.6912 154.475 95.9801 154.382 96.3085 154.552C96.4312 154.605 96.5707 154.648 96.6934 154.702C100.124 150.158 107.696 149.252 112.866 152.931C113.326 153.243 113.472 153.952 112.967 154.271C108.202 157.298 101.367 159.174 95.7031 155.856C92.7017 155.844 89.704 155.78 86.7026 155.767C92.2907 158.182 97.879 161.58 98.3078 167.597C98.3428 168.098 97.8605 168.69 97.2169 168.394C91.1362 165.523 86.0604 161.702 81.8912 156.693C81.6046 156.35 81.6166 155.982 81.7784 155.696C79.5843 155.668 77.3663 155.61 75.1602 155.569C79.922 158.06 83.517 162.195 85.0858 167.14C85.237 167.606 84.702 168.14 84.1718 168.025C76.4435 166.405 69.9426 161.924 66.3219 155.411C62.5752 155.32 58.8167 155.212 55.0582 155.105C60.1841 157.833 63.7231 162.56 64.1049 168.062C64.1165 168.485 63.4987 168.818 63.0869 168.614C56.5626 165.419 51.4742 160.986 47.7445 155.173C47.6818 155.076 47.6737 154.986 47.6502 154.907C44.2159 154.802 40.7987 154.687 37.3644 154.582C41.1635 157.466 43.9226 161.228 45.4104 165.702C45.6207 166.315 44.8022 166.866 44.1841 166.598C37.8164 163.795 32.668 159.787 28.4249 154.613C28.3332 154.512 28.2842 154.405 28.2508 154.284C21.906 154.076 15.5611 153.892 9.21951 153.683C-0.937245 162.326 -11.5613 170.569 -22.8895 178.366C-24.381 179.409 -26.336 177.264 -24.8835 176.178C-14.1869 168.099 -3.46668 160.074 6.80523 151.611C6.22571 149.445 5.74521 147.277 5.23728 145.108C5.05388 145.289 4.76491 145.382 4.41717 145.301C-0.260175 143.995 -4.41925 141.758 -8.17044 138.817C-8.63966 138.465 -8.77676 137.604 -8.06959 137.425C-3.19163 136.162 0.973006 138.299 4.40422 141.38C3.89934 138.967 3.42171 136.559 2.98841 134.143C-4.04608 133.312 -10.0568 127.73 -11.4413 121.403C-11.5879 120.695 -10.7912 120.041 -10.0353 120.376C-5.14878 122.512 -1.05075 125.368 2.22477 129.233C1.6319 125.303 1.10909 121.368 0.729443 117.427C-6.29098 115.819 -11.1092 109.986 -11.4816 103.593C-11.5155 102.873 -10.5558 102.724 -9.98227 103.025C-5.90459 105.176 -1.81403 107.775 0.252537 111.492C0.0669985 108.365 -0.090004 105.269 -0.1613 102.155C-0.33585 102.235 -0.552728 102.273 -0.809691 102.126C-6.31556 98.9561 -10.031 93.3496 -10.9069 87.6594C-10.9892 87.0495 -10.2098 86.4553 -9.5944 86.9394C-5.76358 89.968 -1.95194 93.082 -0.237126 97.1761C-0.211589 94.4716 -0.157108 91.7707 -0.0325641 89.0652C-4.93535 85.7653 -8.1178 80.6591 -8.67939 75.2885C-8.74425 74.6164 -7.92851 73.9243 -7.23351 74.4957C-3.66116 77.3754 -1.13039 80.3708 0.276933 84.2089C0.366087 82.7761 0.427632 81.3662 0.557535 79.9531C0.125494 79.6701 -0.0628442 79.1349 0.457445 78.8042C0.532797 78.7491 0.592712 78.7053 0.652652 78.6615C0.654719 78.6106 0.659998 78.56 0.663565 78.5107C0.665632 78.4598 0.684489 78.4241 0.700079 78.388C-2.4214 73.7618 1.95557 69.2703 5.57172 66.4607C6.11137 66.0417 6.96259 66.4277 7.11652 67.0347C8.325 72.0508 6.29246 77.2267 1.73829 79.9088C1.59412 82.1013 1.53207 84.3025 1.47321 86.504C3.99473 83.176 8.43098 81.1815 12.9172 80.8037C13.5592 80.7411 14.0697 81.3293 13.9015 81.8834C12.2584 86.9671 7.36354 90.2332 1.37108 89.8632C1.32395 92.4627 1.34837 95.0592 1.38655 97.6677C3.95593 94.6645 7.54456 92.6165 12.2454 94.0016C12.7872 94.1577 12.9782 94.8337 12.6966 95.2071C9.89878 98.8331 6.27609 101.554 1.71029 103.187C1.65223 103.205 1.59585 103.2 1.55321 103.206C1.6542 105.53 1.796 107.873 1.96706 110.192C3.92924 107.152 7.34058 105.019 11.4491 104.415C11.9785 104.338 12.5955 104.824 12.5161 105.338C11.5908 110.881 8.19245 115.162 2.72172 117.578C3.06283 120.684 3.50442 123.792 3.98719 126.891C6.4538 122.955 10.4643 118.418 14.0016 120.796C16.2447 122.299 14.4988 125.085 13.6226 126.612C11.6739 130.049 8.82762 132.777 5.3326 134.899C5.58026 136.564 5.79203 138.903 6.13349 141.243C7.36231 137.78 10.531 135.08 14.2695 133.717C14.9669 133.471 15.918 134.023 15.8068 134.774C15.0596 139.829 12.3845 143.508 7.99481 146.427C7.78587 146.58 7.52794 146.626 7.28935 146.583C7.64551 147.712 8.10127 148.676 8.6764 149.335C8.80713 149.478 8.95493 149.587 9.08756 149.704C14.8312 144.909 20.4137 139.965 25.7753 134.779C36.5298 124.332 46.348 113.129 56.1542 101.914C56.8926 98.5705 57.2219 95.1882 57.2269 91.8039C57.0815 91.8634 56.9073 91.9165 56.723 91.9084C51.2631 91.8221 46.0167 89.3472 42.2714 85.564C41.7841 85.0577 42.0116 84.2681 42.6375 84.0251C47.3113 82.2662 52.8732 83.0935 56.904 86.0941C56.56 83.2284 55.9874 80.3623 55.1433 77.5489C49.8486 77.8912 44.4567 75.5007 41.1702 71.429C40.7275 70.8902 40.967 70.1137 41.7232 70.0418C45.6654 69.5837 49.99 70.4747 53.4309 72.6375C52.4956 70.3 51.4288 68.0091 50.1754 65.7859C48.2572 66.8524 45.9194 67.2395 43.5917 66.9271C41.9224 66.7078 37.8667 65.6204 37.2751 63.8226C36.5966 61.6573 39.9235 61.072 41.5474 61.1569C43.6489 61.2775 45.8685 61.7155 48.0207 62.3016C46.9353 60.6477 45.7353 59.0309 44.4617 57.4678C40.0371 58.1355 35.244 57.466 30.9273 56.0392C30.1522 55.7899 29.983 54.8123 30.579 54.3987C33.165 52.5093 36.9493 51.903 40.2633 52.8623C38.8506 51.4502 37.3782 50.0791 35.815 48.7744C32.0337 51.5124 26.6806 51.9001 21.9499 50.3446C21.1748 50.0952 21.0412 49.185 21.5824 48.7676C24.4175 46.5754 28.5198 45.4729 32.3951 46.1183C31.5331 45.5013 30.671 44.8843 29.7799 44.2886C29.5211 44.5244 29.1451 44.6564 28.6985 44.5515C25.3874 43.7081 22.3454 41.9267 20.2218 39.3781C19.1533 38.0963 17.0063 35.4688 18.6921 34.0942C20.4689 32.6285 23.6487 34.5015 25.2132 35.5636C27.9802 37.4252 29.7949 39.9606 30.6861 42.907C30.7685 43.1352 30.6996 43.3036 30.5759 43.4434C31.2819 43.8641 31.9416 44.3406 32.6458 44.7845C31.2863 41.2711 31.9781 37.385 34.1037 34.4396C34.4643 33.9619 35.2115 34.0147 35.6463 34.4385C39.3733 38.1169 39.4935 43.7138 36.0315 47.1057C36.2376 47.194 36.4091 47.3571 36.4953 47.5331C37.8635 48.5958 39.1429 49.6988 40.4049 50.8391C40.082 47.8619 41.1653 44.8405 43.0807 42.6253C43.5287 42.1058 44.4155 42.2021 44.7656 42.8334C47.1268 46.9824 47.2688 51.6736 45.1689 55.6301C45.1945 55.6581 45.2351 55.7026 45.2606 55.7306C45.9379 55.7631 46.2662 56.3141 46.1342 56.7703C46.838 57.6237 47.5384 58.5017 48.1824 59.374C48.1345 56.3167 49.4239 53.3836 51.745 51.2566C52.261 50.7834 53.1459 51.2628 53.3032 51.8454C54.4035 56.004 55.4839 61.0423 52.1678 64.2093C52.1242 64.4087 51.9732 64.5685 51.7291 64.6013C51.7291 64.6013 51.7137 64.6125 51.7272 64.6274C53.0029 66.7656 54.0873 68.9942 55.0709 71.247C55.8065 68.1445 57.5061 65.3923 60.1768 63.3201C60.6565 62.9449 61.4397 63.2845 61.5699 63.8375C62.7126 68.3962 61.5295 73.6025 57.4497 76.3417C57.3606 76.4068 57.2582 76.4321 57.1438 76.4443C57.1774 76.5626 57.1835 76.6789 57.1606 76.8165C57.9061 79.2213 58.4807 81.6796 58.8813 84.1441C60.4865 81.5323 62.8466 79.4482 65.752 77.8527C66.3286 77.5275 67.3543 77.8326 67.2275 78.5981C66.5335 83.2768 64.0323 87.3095 60.0457 90.1508C59.8658 90.2822 59.6933 90.3121 59.5107 90.3028C59.6112 93.036 59.4988 95.7546 59.1439 98.4828C62.4801 94.6556 65.8301 90.8404 69.2328 87.0579C75.5164 80.0694 82.037 73.1467 88.8632 66.506C89.8061 64.6169 90.5409 62.6904 91.1648 60.7488C85.4705 58.7934 81.8865 53.1403 82.4147 47.8165C82.4932 47.1358 83.2588 46.9114 83.8868 47.2435C87.8636 49.4213 90.7992 52.6948 92.2817 56.4808C92.9796 53.0928 93.2871 49.6303 93.2992 46.1474C87.0728 45.1107 82.1446 40.415 81.3388 34.7202C81.2448 34.0694 81.8444 33.6066 82.5496 33.8356C86.7147 35.2057 90.5552 37.6972 93.1304 41.0418C92.9219 38.0524 92.531 35.0288 92.0428 32.0048C85.8365 30.6898 81.1172 26.2232 79.6557 20.6011C79.5018 19.9941 80.1142 19.3543 80.8131 19.4919C85.2348 20.408 88.8753 22.9524 91.0334 26.4122C90.7059 24.6851 90.3478 22.9558 89.9775 21.238C85.685 17.3493 84.9223 11.2386 88.383 7.08157C88.7846 6.62064 89.5846 6.70627 89.8974 7.26859C91.7672 10.7689 93.5257 14.2817 93.2539 17.8116C95.1916 15.8932 97.8888 14.6421 100.929 14.5055C101.454 14.4812 101.891 14.9066 101.729 15.3841C100.26 19.8134 97.2252 23.4233 92.2612 24.867C93.0591 27.7361 93.7425 30.6174 94.2962 33.5221C94.8101 29.3596 98.1797 26.0572 102.651 24.9491C103.343 24.7785 104.113 25.295 103.865 25.9812C102.191 30.5387 99.46 34.4041 95.4979 37.4884C95.3335 37.6085 95.1746 37.6533 94.9905 37.6423C95.1837 38.8935 95.3483 40.1382 95.4564 41.3774C97.8177 38.6936 101.382 37.001 105.435 36.9647C106.157 36.9646 106.755 37.5109 106.536 38.1729C105.058 42.7547 101.577 46.232 96.732 47.9976C96.3405 48.1408 95.9929 48.035 95.7399 47.8107C95.7096 50.7823 95.4253 53.7225 94.8476 56.6163C94.7265 57.3035 94.0254 58.9664 93.3615 60.6983C93.356 60.7737 93.3231 60.8471 93.2733 60.9302C92.9797 61.6473 92.7131 62.3941 92.4964 63.0577C105.185 51.1508 119.063 40.3871 134.798 32.1755C131.066 29.7223 128.925 25.2698 130.426 21.3666C130.62 20.8405 131.402 20.6066 131.926 20.9901C134.712 23.0077 136.808 25.7445 137.709 28.755C138.791 26.9096 139.681 24.9877 140.393 22.9822C134.883 21.6113 134.011 15.0805 133.964 10.8472C133.961 10.1052 134.959 9.80712 135.582 10.2175C139.143 12.4844 141.5 16.2993 141.327 20.0725C141.699 18.6498 142.029 17.2087 142.294 15.7216C142.037 15.5495 141.859 15.273 141.851 14.991C138.208 10.122 140.054 3.42651 144.755 0.329582C145.32 -0.0336554 146.206 0.252748 146.354 0.935197C147.49 6.17188 148.326 12.2259 143.411 15.7455C143.382 15.7668 143.338 15.7745 143.309 15.7957C143.202 17.6725 142.915 19.4641 142.463 21.2089C144.527 17.5173 149.072 15.3971 153.796 16.0699C154.414 16.1461 154.845 16.8387 154.459 17.2883C152.231 19.8745 146.295 25.9858 141.868 23.3458C141.089 25.7144 140.047 27.9613 138.783 30.156C144.096 27.5924 149.641 25.3399 155.43 23.4116C151.759 18.3738 158.577 12.816 162.381 10.3499C162.887 10.0044 163.862 10.2257 163.939 10.9388C164.264 13.865 164.353 17.5433 163.037 20.2786C163.2 20.1846 163.389 20.1173 163.599 20.1563C163.614 20.1451 163.601 20.1302 163.615 20.1202C167.079 14.928 175.445 16.7276 180.919 18.5798C181.541 18.7956 181.657 19.5267 181.208 19.8794C176.505 23.412 169.902 24.2568 163.886 22.0584C162.941 22.3893 162.008 22.7582 161.05 23.1007C165.964 23.4897 171.004 25.6845 174.083 29.3093C174.395 29.6799 174.351 30.3137 173.814 30.4639C171.704 31.0473 169.574 31.1149 167.487 30.8191C167.493 30.9355 167.469 31.0714 167.378 31.1625C165.342 33.2487 162.714 34.545 159.793 35.0018C160.604 35.1532 161.416 35.2798 162.224 35.4557C162.697 35.5654 162.957 35.8783 163.032 36.2328C169.764 33.0415 178.301 42.2436 181.105 47.1509C181.447 47.7168 180.903 48.3781 180.243 48.2835C173.342 47.3552 163.861 45.3154 162.873 37.6452C162.548 37.6432 162.28 37.4053 162.174 37.126C162.145 37.1224 162.131 37.1324 162.104 37.1305C160.338 36.8611 158.588 36.607 156.82 36.3638C160.28 38.8478 162.329 42.8179 162.231 46.7013C162.214 47.1452 161.622 47.5066 161.14 47.2818C156.243 44.9744 152.259 41.1237 152.936 35.8812ZM98.5099 155.398C102.752 156.663 106.985 155.703 110.591 153.621C106.414 151.637 101.434 152.35 98.5099 155.398ZM96.2784 166.234C94.6117 161.072 89.3813 158.421 84.0954 156.313C87.4432 160.367 91.4774 163.7 96.2784 166.234ZM82.8793 166.075C80.8717 161.14 76.6555 157.363 71.3241 155.502C70.5052 155.477 69.6691 155.464 68.8348 155.451C71.8615 160.602 76.7704 164.4 82.8793 166.075ZM68.6338 153.343C74.7733 154.012 78.0331 149.471 80.0724 144.985C75.1034 146.721 71.2158 149.561 67.9594 153.451C68.0155 153.459 68.0584 153.45 68.1145 153.459C68.2479 153.386 68.4102 153.317 68.6338 153.343ZM62.2213 166.613C60.7454 161.169 56.7437 156.804 50.6715 154.982C50.3884 154.972 50.1357 154.967 49.8526 154.957C52.7506 159.914 56.8995 163.836 62.2213 166.613ZM125.776 114.064C124.152 109.687 119.852 106.908 114.892 106.168C114.808 106.157 114.711 106.132 114.643 106.086C114.688 106.245 114.678 106.396 114.626 106.53C114.636 106.569 114.649 106.584 114.663 106.624C115.819 111.532 120.991 113.268 125.776 114.064ZM108.267 112.566C108.911 113.053 109.23 112.965 109.207 112.285C109.494 111.837 109.4 111.377 108.935 110.948C108.559 110.097 107.532 108.999 106.848 108.277C105.402 106.744 103.701 105.589 101.808 104.55C101.658 104.468 101.582 104.331 101.564 104.201C101.564 104.201 101.535 104.198 101.523 104.185C102.055 107.226 104.477 111.904 108.267 112.566ZM52.1464 152.803C57.4642 150.931 61.8186 147.917 65.1513 143.757C58.1872 143.523 52.555 147.182 49.8584 152.725C50.5936 152.765 51.3274 152.778 52.0763 152.808C52.0902 152.795 52.1191 152.798 52.1464 152.803ZM42.8602 164.094C41.1634 160.155 38.2433 156.87 34.4211 154.483C33.208 154.436 31.9915 154.413 30.7753 154.365C34.007 158.455 38.064 161.675 42.8602 164.094ZM143.885 73.9989C145.751 77.958 148.084 81.9382 152.961 82.8346C152.438 80.1003 151.026 77.8693 148.549 75.9163C148.376 75.7793 148.274 75.6146 148.257 75.4573C146.631 75.3984 145.094 74.9146 143.885 73.9989ZM156.956 70.8999C152.735 69.1396 148.385 69.5606 144.755 71.8067C144.796 72.0152 144.722 72.262 144.516 72.3653C147.588 76.0916 153.295 72.7591 156.956 70.8999ZM105.925 102.863C108.279 101.646 110.064 98.1112 111.616 95.8512C107.051 95.735 103.536 98.1358 101.567 101.826C103.017 102.134 104.48 102.48 105.925 102.863ZM97.7766 112.126C96.4977 107.881 93.2273 104.347 88.5893 102.677C89.1282 107.174 93.5984 109.974 97.7766 112.126ZM31.8377 151.43C37.2474 150.641 41.607 147.937 44.2164 143.775C38.5274 144.12 34.4308 147.113 31.8377 151.43ZM130.971 70.0796C131.986 74.254 134.713 77.6553 138.982 79.7155C138.055 75.6939 135.31 72.1353 131.28 70.1177C131.167 70.1038 131.084 70.0935 130.971 70.0796ZM178.586 46.3937C175.66 42.2012 169.944 36.45 164.619 37.2231C165.614 43.6419 172.545 45.532 178.586 46.3937ZM84.6457 110.21C83.3347 106.587 80.178 103.835 75.9834 102.896C75.9425 102.879 75.9155 102.849 75.8762 102.831C75.5332 102.865 75.2205 102.904 74.8774 102.938C77.1958 106.492 80.3343 109.115 84.6457 110.21ZM91.9245 100.432C94.4021 99.0777 95.8529 96.6253 97.0139 94.0991C93.3022 94.8914 90.4227 97.0913 88.8815 100.208C89.9101 100.272 90.9251 100.347 91.9245 100.432ZM119.105 68.7034C118.655 72.7728 122.32 75.9448 125.832 78.4617C125.42 74.5665 123.025 71.0905 119.4 68.7266C119.302 68.7027 119.204 68.7024 119.105 68.7034ZM130.801 68.3339C134.875 68.1861 138.636 66.926 141.702 64.6861C137.404 64.1817 133.569 65.5205 130.688 68.32C130.717 68.3235 130.756 68.3416 130.801 68.3339ZM114.916 75.4796C116.546 75.0548 114.708 73.858 113.881 72.9513C112.965 71.9181 111.873 70.9669 110.682 70.1806C109.223 69.209 107.643 68.54 105.978 68.0535C105.086 68.0326 104.182 68.0233 103.289 68.0272C104.703 69.6338 106.253 71.0877 108.073 72.3729C109.679 73.5031 112.91 76.0115 114.916 75.4796ZM154.814 36.3296C154.667 39.7213 156.593 44.0213 160.384 45.4725C159.651 41.883 157.809 38.9859 154.814 36.3296ZM77.3852 100.361C78.7085 99.4903 79.8585 98.4826 80.8562 97.2264C81.3385 96.635 82.0492 95.8026 82.2168 95.0568C82.9436 94.4049 82.8075 93.9552 81.7609 93.7367C81.3045 93.2078 80.8562 93.1261 80.4056 93.4801C78.6389 93.6202 76.3993 96.1903 75.5178 97.4111C74.7942 98.4203 74.3296 99.5507 73.9196 100.688C75.0756 100.56 76.2177 100.445 77.3852 100.361ZM119.504 66.6843C119.73 66.712 119.98 66.7431 120.205 66.7709C122.778 64.8666 125.194 62.8157 127.49 60.6329C123.697 61.1987 121.066 63.5054 119.504 66.6843ZM155.446 33.8799C159.237 34.348 162.792 33.3566 165.377 31.0837C163.274 30.6074 161.134 30.6109 159.104 31.2539C157.205 31.8751 156.047 32.9844 154.661 34.1151C154.745 34.1255 154.803 34.1326 154.858 34.1394C154.957 33.9732 155.152 33.8305 155.446 33.8799ZM7.51069 144.557C10.4199 142.527 12.3385 139.686 13.2406 136.413C10.0582 138.115 8.22445 140.748 7.04076 144.013C7.19703 144.184 7.35292 144.383 7.51069 144.557ZM171.749 29.3531C167.856 26.3943 163.747 24.648 158.744 24.3241C161.58 28.1733 166.989 30.1198 171.749 29.3531ZM165.127 20.6435C169.829 22.2203 174.726 21.8553 178.717 19.563C173.802 18.4059 169.247 17.7294 165.127 20.6435ZM141.243 34.832C142.505 38.8966 144.905 42.1552 149.176 43.9728C148.324 40.2779 146.062 37.1138 142.638 34.9137C142.172 34.8971 141.722 34.8663 141.243 34.832ZM106.823 66.4068C110.76 65.9992 113.899 63.3458 116.485 60.6898C111.335 60.4239 107.129 62.5857 104.378 66.3477C104.504 66.3764 104.616 66.3903 104.756 66.4062C105.449 66.4054 106.143 66.4005 106.823 66.4068ZM153.599 33.9576C154.554 30.7418 158.614 29.2391 162.479 29.2688C160.305 28.1958 158.333 26.6621 156.777 24.7072C150.769 27.1058 145.02 29.8203 139.507 32.8185C139.732 32.8214 139.957 32.8492 140.184 32.8509C140.274 32.4011 140.697 32.0453 141.284 32.3358C141.667 32.5366 142.033 32.7471 142.398 32.9854C146.136 33.1515 149.868 33.4456 153.599 33.9576ZM4.09786 143.573C1.43869 140.985 -1.60476 138.82 -5.3994 138.786C-2.45753 140.808 0.672645 142.358 4.09786 143.573ZM157.348 22.6582C162.239 21.6282 162.602 16.8064 162.246 12.7001C158.585 15.3506 155.943 18.1927 156.577 22.7413C156.799 22.6284 157.084 22.5875 157.348 22.6582ZM4.98151 132.736C6.4828 131.76 7.85186 130.639 9.0511 129.332C10.156 128.14 12.47 125.73 12.5483 124.066C12.7142 120.229 7.5222 125.604 6.94887 126.287C5.94314 127.453 5.17055 128.737 4.52043 130.099C4.68314 130.988 4.80339 131.859 4.98151 132.736ZM2.26749 132.272C2.17226 132.221 2.04785 132.169 1.98513 132.072C-0.814699 128.29 -4.34533 125.237 -8.65165 123.108C-6.7889 127.668 -2.73844 130.8 2.26749 132.272ZM59.1446 86.0637C59.2448 86.8308 59.3297 87.6064 59.4026 88.3687C62.1387 86.1774 64.0207 83.4594 64.9889 80.2584C62.6126 81.8051 60.6986 83.7776 59.1446 86.0637ZM56.8557 89.9193C56.9972 89.9367 57.1064 89.9751 57.2035 90.0002C57.1912 89.3858 57.1363 88.7778 57.0966 88.1615C53.7485 85.4996 49.2236 84.4171 45.1301 85.4197C48.4558 88.1666 52.4481 89.5914 56.8557 89.9193ZM136.171 31.128C136.252 30.9975 136.329 30.8916 136.41 30.7611C135.861 27.974 134.539 25.5096 132.22 23.5132C132.178 26.4468 133.559 29.2739 136.171 31.128ZM142.907 22.4194C145.84 23.5861 149.928 19.9264 152.04 17.5454C148.316 17.7233 145.296 19.3558 143.232 22.2314C143.153 22.3357 143.035 22.3972 142.907 22.4194ZM136.148 12.8737C136.354 16.0793 136.989 19.0702 139.63 21.3125C139.95 18.0827 138.854 15.0218 136.148 12.8737ZM84.3221 49.5427C84.512 53.5508 87.1667 57.0076 91.0691 59.0474C90.1858 55.2082 87.8476 51.9046 84.3221 49.5427ZM2.44689 115.526C6.46811 113.596 9.32197 110.36 10.4361 106.309C6.44554 107.233 3.52493 109.823 2.25686 113.268C2.31627 114.015 2.36193 114.751 2.43676 115.487C2.44878 115.5 2.44877 115.5 2.44689 115.526ZM95.9221 46.4142C99.8215 44.9795 102.659 42.3794 104.171 38.9018C100.588 39.5067 97.6633 41.1627 95.6532 43.8781C95.6703 44.2255 95.7162 44.5764 95.7196 44.9337C95.7527 45.4615 95.7415 45.997 95.732 46.5312C95.8022 46.5018 95.8487 46.4432 95.9221 46.4142ZM56.1496 73.867C56.2791 74.2282 56.3952 74.5746 56.5247 74.9359C59.0803 72.3024 60.6334 69.2234 60.2163 65.6202C58.0703 67.8829 56.6849 70.573 56.2189 73.6708C56.2135 73.7462 56.167 73.8048 56.1496 73.867ZM142.85 13.8052C145.928 10.979 145.573 6.7075 144.782 2.75389C141.672 5.6246 141.271 9.804 142.85 13.8052ZM54.6077 75.7845C54.4864 75.4886 54.423 75.1999 54.3171 74.8928C51.1248 72.8119 47.6601 71.581 43.8155 71.6548C46.6766 74.4335 50.5514 75.8701 54.6077 75.7845ZM93.3043 44.8007C93.2953 44.5436 93.2711 44.273 93.2655 43.9914C93.2385 43.9618 93.184 43.9301 93.1449 43.8873C90.6701 40.2991 87.6651 37.6036 83.5234 35.9555C84.7835 40.2362 88.4587 43.6669 93.3043 44.8007ZM0.187152 115.642C-0.113373 110.586 -4.81501 107.667 -9.28755 105.302C-8.32643 109.993 -4.72943 113.72 0.187152 115.642ZM94.7169 35.6644C94.7384 35.7695 94.7311 35.871 94.7511 35.9744C97.8059 33.5035 100.16 30.5118 101.601 27.0371C97.9946 28.546 95.732 31.6135 95.1229 35.343C95.0909 35.5834 94.8995 35.6738 94.7169 35.6644ZM1.48714 101.409C5.07785 99.936 8.03983 97.9394 10.463 95.1858C6.29087 94.5184 3.56901 97.298 1.46256 100.18C1.4606 100.588 1.47557 100.986 1.48714 101.409ZM50.808 63.1432C50.8369 63.1468 50.8369 63.1467 50.8504 63.1616C53.1599 60.6119 52.8156 57.1449 51.9617 53.8857C50.2352 56.2016 49.5733 58.8905 49.9832 61.8535C50.2612 62.2711 50.5422 62.714 50.808 63.1432ZM49.255 64.2284C49.2415 64.2136 49.2159 64.1856 49.1889 64.1559C47.8915 63.9064 46.5909 63.6566 45.2882 63.4577C44.0692 63.2691 40.5826 62.3397 39.4852 63.4051C42.3632 65.5481 46.2288 65.7446 49.255 64.2284ZM-8.51465 89.7014C-7.00521 93.8988 -4.4663 97.3413 -0.842704 100.521C-1.27448 96.1133 -4.80065 92.5737 -8.51465 89.7014ZM90.854 30.1436C89.662 26.2663 86.4677 23.2285 82.3585 21.9164C83.8757 25.6028 86.938 28.4707 90.854 30.1436ZM1.40653 88.2307C5.95746 88.5499 10.1405 86.334 11.7682 82.6264C7.74046 83.4821 4.72142 85.2815 1.66123 87.8277C1.5857 87.9076 1.48668 87.9085 1.4151 87.9114C1.40776 88.0129 1.41388 88.1292 1.40653 88.2307ZM91.8184 23.2764C95.569 21.9257 98.6474 19.509 100.004 16.0488C96.6537 16.9369 94.0395 18.6327 92.2154 21.333C92.1792 21.431 92.1583 21.5176 92.1117 21.6011C92.0807 21.6485 92.0364 21.6561 91.9918 21.6887C91.8781 21.8926 91.7373 22.0668 91.622 22.2939C91.6065 22.3052 91.5793 22.3004 91.5485 22.3229C91.6529 22.6283 91.7279 22.958 91.8184 23.2764ZM0.0660696 87.3893C0.0788879 87.2124 0.0935788 87.0095 0.106384 86.8326C0.0928608 86.8178 0.0808376 86.8046 0.0673135 86.7898C-0.921661 83.2447 -3.15792 79.6991 -6.31928 77.2139C-5.21388 81.0777 -3.09276 84.4437 0.0660696 87.3893ZM42.9993 55.7791C42.9076 55.6785 42.8159 55.5779 42.7243 55.4774C39.8355 54.1113 36.6466 53.7306 33.8886 54.8587C36.9241 55.5656 39.9225 55.8218 42.9993 55.7791ZM90.5742 20.2994C90.7414 20.3201 90.9199 20.4314 91.0198 20.5973C93.2561 17.3101 91.225 12.6782 89.1437 9.16491C87.2341 12.6446 87.7993 16.9799 90.5742 20.2994ZM42.1763 52.4724C42.7453 53.0152 43.2697 53.5904 43.811 54.1561C45.0151 51.2139 45.0481 48.0262 43.7411 44.9523C42.2591 47.2078 41.8985 49.6792 42.1763 52.4724ZM5.55645 68.8446C2.76852 71.17 0.11552 74.1629 1.82067 77.8081C4.53662 75.5134 5.91439 72.3235 5.55645 68.8446ZM34.4212 45.9589C34.4757 45.9905 34.5027 46.0202 34.5555 46.053C37.0786 43.4654 37.2909 39.5698 35.0723 36.5633C33.4764 39.4293 33.4277 42.6561 34.4212 45.9589ZM24.5986 49.203C27.8902 49.8904 31.0478 49.3354 33.8434 47.8667C30.4874 47.4654 27.3924 47.7605 24.5986 49.203ZM28.8485 42.525C28.0661 41.0095 27.063 39.6086 25.7466 38.4118C25.0943 37.8339 21.2535 34.7411 20.4221 35.8511C19.8433 36.609 23.802 40.0221 24.2457 40.346C25.66 41.3779 27.1974 42.0534 28.8485 42.525Z" fill="#4D504F" fill-opacity="0.3"/>
</svg>
