<svg width="1102" height="423" viewBox="0 0 1102 423" fill="none" xmlns="http://www.w3.org/2000/svg">
<path d="M40 245.999L49.0735 234.281C126.061 134.861 210.848 123.314 281.07 227.623V227.623V227.623C325.413 293.492 427.135 232.268 480.776 173.723C511.778 139.886 537.892 110.33 541.488 103.146C544.062 98.0026 555.719 84.024 571.323 66.4228C611.206 21.4323 684.36 38.8225 702.016 96.2952V96.2952C708.465 117.289 724.749 135.779 745.784 129.464C788.493 116.643 840.294 70.7565 876.587 129.227C915.592 192.067 897.717 269.08 895.833 340.431C895.329 359.528 908.565 375.764 926.929 381.029V381.029C950.267 387.721 974.731 374.825 982.4 351.79L998.476 303.495L1012.52 229.676C1014.5 219.262 1017.8 209.144 1022.35 199.568L1025.64 192.645C1047.76 146.106 1098.28 120.129 1149 129.227V129.227" stroke="url(#paint0_linear_235_2892)" stroke-width="80" stroke-linecap="round"/>
<defs>
<linearGradient id="paint0_linear_235_2892" x1="861.883" y1="73.5091" x2="800.573" y2="623.829" gradientUnits="userSpaceOnUse">
<stop stop-color="#FCFFA4"/>
<stop offset="0.59" stop-color="#BDC20F"/>
<stop offset="1" stop-color="#EEF275"/>
</linearGradient>
</defs>
</svg>
