<svg width="1440" height="356" viewBox="0 0 1440 356" fill="none" xmlns="http://www.w3.org/2000/svg">
<path d="M1453 142L1438.71 154.051C1337.63 239.262 1236.41 249.533 1141.5 157.5V157.5V157.5C1070.42 88.5764 951.445 154.136 871.008 211.862C836.593 236.559 809.156 257.079 805 262.5C800.247 268.699 771.54 290.109 738.232 313.91C691.541 347.273 626.356 329.443 601.921 277.52V277.52C590.818 253.926 569.667 235.162 543.997 239.742C488.255 249.689 419.743 290.713 372 240.5C327.315 193.503 340.404 137.109 345.643 82.9769C348.36 54.9061 327.468 31.9378 299.747 26.7494V26.7494C272.029 21.5616 244.205 35.2467 231.395 60.3681L218.811 85.0468C215.943 90.6698 213.611 96.5501 211.845 102.61L199.221 145.934C194.774 161.196 187.717 175.572 178.362 188.425V188.425C149.105 228.624 100.442 249.921 51.0609 244.138L20 240.5" stroke="url(#paint0_linear_313_3787)" stroke-width="50" stroke-linecap="round"/>
<defs>
<linearGradient id="paint0_linear_313_3787" x1="391" y1="287.5" x2="425" y2="-180" gradientUnits="userSpaceOnUse">
<stop stop-color="#FFE7D9"/>
<stop offset="0.59" stop-color="#F58F55"/>
<stop offset="1" stop-color="#E7AC8A"/>
</linearGradient>
</defs>
</svg>
