<svg width="111" height="122" viewBox="0 0 111 122" fill="none" xmlns="http://www.w3.org/2000/svg">
<path d="M65.4165 32.3304C65.4031 31.8868 66.3177 31.8015 66.5316 32.2231C70.9404 40.9201 73.169 53.0546 61.9897 58.4266C62.2755 59.1434 62.5571 59.8528 62.832 60.541C65.0941 66.1559 67.5663 71.7446 73.2489 75.7922C83.5282 79.4172 94.5437 82.0218 105.512 83.2555C109.944 83.7581 114.309 83.9365 118.53 83.6662C114.723 83.0787 110.921 82.0409 107.323 80.6473C107.305 80.7224 107.245 80.7834 107.133 80.8093C101.602 82.0903 95.285 80.8975 90.7968 77.6216C88.3322 75.8235 86.9608 73.5463 85.4785 71.2579C83.2771 67.8417 80.5642 64.7507 77.2322 61.8954C76.8868 61.5996 77.2165 61.0916 77.71 61.1696C89.9772 63.0914 103.913 68.1102 106.671 78.5135C107.256 78.2426 108.001 79.0074 107.448 79.4429C107.4 79.4772 107.358 79.5132 107.31 79.5474C111.297 81.1769 115.503 82.4366 120.112 83.3859C120.218 83.4071 120.293 83.4623 120.34 83.5204C125.271 83.0504 129.996 81.9256 134.418 79.9371C135.028 79.6677 135.656 80.4692 135.111 80.7783C127.469 85.1467 117.146 85.6056 107.547 84.7236C101.713 86.2725 94.8259 87.101 87.9282 87.0961C84.3316 90.4884 78.5932 91.7526 72.733 91.0276C69.2983 90.6027 66.0155 89.5513 62.9469 88.2105C58.6721 86.3406 54.5356 83.9639 49.6008 84.8973C48.8954 85.0307 48.6757 84.2234 49.2143 83.9999C55.1014 81.5699 60.6077 78.7768 67.8192 79.4026C74.7031 80.0031 80.9104 82.8941 86.7831 85.7959C87.8414 85.8317 88.8972 85.8537 89.9699 85.8382C95.1227 85.7733 100.065 85.1705 105.037 84.466C93.6354 83.1865 82.1205 80.3727 71.5458 76.5414C66.2178 74.6068 61.0136 72.2908 56.0958 69.6328C56.0475 69.6671 56.0035 69.6898 55.9315 69.7039C54.2923 70.0205 52.5251 70.2541 50.7158 70.3986C49.8954 73.9554 47.4488 77.0529 43.8207 79.2401C39.3593 81.934 33.608 81.7702 28.7582 83.7895C28.1587 84.0367 27.5977 83.2879 28.099 82.9842C30.9819 81.2388 30.5246 77.9666 32.5161 75.7447C31.2123 75.6305 29.9118 75.4372 28.6361 75.1711C25.4445 74.5021 21.8233 72.5198 18.5929 73.4848C18.0561 73.6471 17.3858 73.1042 17.7931 72.7336C25.1648 65.9571 37.454 64.2775 48.3611 68.704C48.7311 68.8534 48.7987 69.1595 48.6741 69.3801C50.8508 69.4083 53.0284 69.3631 55.2722 69.1896C48.7563 65.5928 42.7749 61.3816 37.7531 56.6228C37.6082 56.6325 37.4635 56.6415 37.3119 56.6489L37.2005 56.0745C36.2315 55.1331 35.2836 54.1799 34.3917 53.1947C28.975 50.8909 23.3478 48.0309 20.7303 43.5281C19.5265 41.4463 19.4547 39.4548 19.6063 37.3001C19.839 33.9827 19.3258 30.8341 17.8117 27.6134C17.6316 27.2277 18.0229 26.8022 18.5859 26.9819C32.1093 31.3611 36.427 42.8083 36.4232 52.8166C36.4222 52.9279 36.3757 53.0118 36.313 53.0784C45.108 62.2884 56.94 69.6488 70.4774 74.7809C67.2284 72.1062 65.0829 68.6217 63.491 65.2089C62.3593 62.7856 61.4622 60.3189 60.3932 57.8843C60.2823 57.8921 60.157 57.858 60.052 57.7626C56.2607 54.1164 48.9709 52.4631 47.0825 47.7175C46.1573 45.4034 46.7808 43.0278 47.1265 40.7549C47.6564 37.3281 47.6537 33.8919 47.1863 30.4055C47.1434 30.082 47.5127 29.7236 47.9833 29.9056C53.2189 31.9905 57.2811 35.7484 59.8089 40.0675C60.4715 36.9993 65.5258 35.696 65.4165 32.3304ZM66.2005 34.0982C64.9293 36.6628 60.9146 38.0269 60.7439 41.079C60.7379 41.2382 60.6406 41.3242 60.5127 41.3701C62.3956 45.1237 63.1531 49.1918 62.5604 52.902C64.0485 49.9863 64.6214 46.9201 64.4935 43.5241C64.47 43.0831 65.4157 43.0948 65.484 43.5259C66.1052 47.7852 64.7562 51.9775 61.9258 55.4293C61.7554 55.9135 61.5639 56.3905 61.3384 56.8506C61.478 57.1798 61.6015 57.4918 61.7359 57.8136C70.7971 51.9059 69.9836 42.6079 66.2005 34.0982ZM48.4829 31.1682C48.7587 33.5468 48.854 35.9239 48.6574 38.2869C48.4429 40.8182 47.5772 43.3638 47.8994 45.9307C48.554 51.1914 55.7448 52.8805 59.7816 56.5314C59.758 56.474 59.7342 56.4173 59.7039 56.3576C58.1492 53.1175 55.9635 50.468 53.4994 47.5746C53.2032 47.2257 53.6843 46.7117 54.1643 47.0383C57.323 49.201 59.2452 52.2863 60.7042 55.4276C63.5832 47.2254 58.6365 35.7436 48.4829 31.1682ZM19.4091 28.3165C20.1432 30.0866 20.6648 31.8689 20.8535 33.7124C21.0617 35.8031 20.5688 37.8368 20.7727 39.9201C21.323 45.5002 27.4909 48.973 33.2401 51.8909C29.8612 47.937 27.131 43.6645 25.2629 39.1109C25.1141 38.7472 25.8837 38.598 26.0648 38.9466C28.4528 43.5179 31.4827 47.7873 35.0613 51.7373C34.6566 42.7186 31.0419 32.6907 19.4091 28.3165ZM105.316 78.6925C102.834 69.1384 90.5693 64.37 79.2097 62.3429C83.0206 65.9088 85.3692 69.6939 88.3306 73.7124C92.1534 78.9101 99.3429 81.4229 106.503 80.3227C102.511 78.704 98.7871 76.6395 95.6226 74.2518C95.2147 73.9477 95.8288 73.4696 96.2511 73.7413C99.2126 75.6617 102.207 77.2946 105.316 78.6925ZM47.4178 69.3605C37.7608 65.73 27.105 66.8314 20.1082 72.2732C23.6414 72.1726 27.3488 74.0903 30.8487 74.5913C37.4954 75.5496 43.1212 74.1876 47.4503 70.5469C44.5953 70.5736 41.7235 70.3292 39.1 69.7185C38.5175 69.5818 38.7659 68.9617 39.2816 68.9901C42.0737 69.1354 44.7465 69.292 47.4178 69.3605ZM49.7625 70.4581C49.2341 70.4933 48.6914 70.5238 48.1563 70.5384C48.218 70.6202 48.2367 70.7248 48.1561 70.8295C48.1248 70.8628 48.0952 70.8903 48.0706 70.926C48.3957 70.9555 48.7046 71.2401 48.4589 71.4899C46.9359 73.0077 45.2783 74.4393 43.4455 75.7284C42.5994 76.3178 41.3713 77.3671 40.1288 76.5912C39.8765 76.4363 40.1247 76.1814 40.3914 76.304C41.6932 76.9128 44.0253 74.3601 44.6825 73.8031C44.8164 73.6912 44.9426 73.5769 45.0688 73.4626C42.6323 74.8983 39.5425 75.6795 36.3081 75.833C35.447 75.8733 34.5868 75.8577 33.7215 75.8157C33.7113 75.8561 33.7021 75.896 33.6673 75.9349C32.1771 77.8348 31.988 80.2381 30.6333 82.1134C34.1677 81.1527 38.0515 80.8794 41.3084 79.3657C45.6445 77.348 48.3697 74.1843 49.7625 70.4581ZM84.338 85.6814C79.161 83.1943 73.7324 80.8624 67.7451 80.3441C61.8441 79.8354 57.0995 81.7515 52.3512 83.7664C56.9569 83.9785 60.9588 86.5223 65.2506 88.1745C72.501 90.9721 81.1275 91.3012 86.6513 87.0844C81.2369 86.9978 75.8533 86.3882 70.9941 85.185C70.3778 85.0308 70.6034 84.3168 71.2027 84.3789C75.6407 84.8526 79.9567 85.4115 84.338 85.6814Z" fill="#4D504F" fill-opacity="0.7"/>
<path d="M38.9178 57.0673L39.0273 57.6349C37.2081 57.7472 35.368 57.8164 33.5204 57.8646C32.1198 61.544 27.3762 63.4184 22.4093 63.3615C19.6549 63.3353 16.9074 62.7728 14.2864 62.0052C10.8268 60.9955 6.7081 58.6127 2.99033 59.4609C2.23402 59.6302 1.72869 58.9612 2.24384 58.5501C6.61248 55.0386 11.2142 52.0413 18.0629 52.0983C23.388 52.1413 28.4629 53.8797 32.3227 56.8653C34.5284 56.8939 36.7257 56.9566 38.9178 57.0673ZM30.3478 56.8541C26.5416 54.2713 21.6212 52.9305 16.7107 53.1973C11.5972 53.4787 7.94268 55.6942 4.58881 58.2553C7.87349 58.2851 10.9576 59.9039 14.1379 60.8795C20.8658 62.942 29.3594 63.1799 32.6773 57.8828C32.668 57.8861 32.6513 57.8864 32.6438 57.884C32.4203 58.0146 32.088 58.0437 31.803 57.8978C25.913 57.9992 19.9596 57.8787 14.1016 57.8744C13.3993 57.8711 13.1612 57.0304 13.8853 57.0221C19.3321 56.9761 24.843 56.8277 30.3478 56.8541Z" fill="#4D504F" fill-opacity="0.7"/>
</svg>
