<svg width="18" height="18" viewBox="0 0 18 18" fill="none" xmlns="http://www.w3.org/2000/svg">
<path fill-rule="evenodd" clip-rule="evenodd" d="M8.99659 18C10.6225 18.0001 12.218 17.5598 13.6137 16.7259C15.0094 15.8919 16.1531 14.6955 16.9234 13.2636C17.6936 11.8318 18.0616 10.218 17.9882 8.59378C17.9148 6.96956 17.4028 5.39556 16.5066 4.039L9.35159 11.989C9.01738 12.3604 8.55625 12.5933 8.05896 12.6418C7.56168 12.6903 7.06425 12.5509 6.66459 12.251L3.39659 9.8C3.18441 9.64087 3.04414 9.40397 3.00664 9.14142C2.96913 8.87887 3.03746 8.61217 3.19659 8.4C3.35572 8.18783 3.59261 8.04756 3.85517 8.01005C4.11772 7.97254 4.38441 8.04087 4.59659 8.2L7.86459 10.651L15.2106 2.49C14.1464 1.47411 12.8494 0.734601 11.4331 0.336222C10.0168 -0.0621564 8.52447 -0.107256 7.08672 0.204872C5.64897 0.517001 4.30966 1.17684 3.18606 2.12661C2.06246 3.07639 1.18883 4.28713 0.641665 5.65284C0.0945004 7.01855 -0.109513 8.49757 0.0474868 9.96041C0.204487 11.4233 0.717712 12.8253 1.54223 14.0438C2.36674 15.2623 3.4774 16.2601 4.77696 16.9498C6.07652 17.6395 7.52535 18.0001 8.99659 18Z" fill="#CFD349"/>
</svg>
