<svg width="49" height="18" viewBox="0 0 49 18" fill="none" xmlns="http://www.w3.org/2000/svg">
<rect width="49" height="18" rx="9" fill="#CFD349"/>
<path d="M30.7134 3.49139C30.7027 3.30791 30.625 3.13475 30.4951 3.00479C30.3651 2.87483 30.1919 2.79711 30.0084 2.78639C27.5334 2.64077 25.3466 2.93264 23.5084 3.65327C21.7497 4.34264 20.3941 5.41139 19.5866 6.74389C18.4853 8.56327 18.4828 10.772 19.5584 12.8808L18.4691 13.9701C18.3993 14.0399 18.344 14.1227 18.3062 14.2139C18.2685 14.305 18.249 14.4027 18.249 14.5014C18.249 14.6001 18.2685 14.6978 18.3062 14.7889C18.344 14.8801 18.3993 14.9629 18.4691 15.0326C18.61 15.1735 18.8011 15.2527 19.0003 15.2527C19.099 15.2527 19.1967 15.2333 19.2878 15.1955C19.379 15.1578 19.4618 15.1024 19.5316 15.0326L20.6209 13.9433C21.6672 14.477 22.7384 14.7464 23.7741 14.7464C24.8263 14.7497 25.8589 14.462 26.7578 13.9151C28.0903 13.1076 29.1591 11.7514 29.8484 9.99327C30.5672 8.15389 30.8591 5.96639 30.7134 3.49139ZM25.9784 12.6301C24.7228 13.3908 23.2497 13.4483 21.7459 12.8126L27.0297 7.52889C27.0995 7.45913 27.1548 7.37631 27.1926 7.28515C27.2303 7.194 27.2498 7.09631 27.2498 6.99764C27.2498 6.89898 27.2303 6.80129 27.1926 6.71013C27.1548 6.61898 27.0995 6.53616 27.0297 6.46639C26.9599 6.39663 26.8771 6.34129 26.786 6.30353C26.6948 6.26578 26.5971 6.24634 26.4984 6.24634C26.3998 6.24634 26.3021 6.26578 26.2109 6.30353C26.1198 6.34129 26.037 6.39663 25.9672 6.46639L20.6872 11.7539C20.0534 10.2539 20.1109 8.77702 20.8747 7.52139C22.1816 5.36327 25.2834 4.16389 29.2497 4.25577C29.3359 8.22077 28.1366 11.3233 25.9784 12.6301Z" fill="white"/>
</svg>
