<svg width="32" height="18" viewBox="0 0 32 18" fill="none" xmlns="http://www.w3.org/2000/svg">
<rect width="32" height="18" rx="9" fill="#EB5A08"/>
<path d="M12.032 13.62C11.36 13.62 10.76 13.452 10.232 13.116C9.704 12.772 9.288 12.276 8.984 11.628C8.68 10.972 8.528 10.196 8.528 9.3C8.528 8.404 8.68 7.632 8.984 6.984C9.288 6.328 9.704 5.832 10.232 5.496C10.76 5.152 11.36 4.98 12.032 4.98C12.704 4.98 13.304 5.152 13.832 5.496C14.368 5.832 14.788 6.328 15.092 6.984C15.396 7.632 15.548 8.404 15.548 9.3C15.548 10.196 15.396 10.972 15.092 11.628C14.788 12.276 14.368 12.772 13.832 13.116C13.304 13.452 12.704 13.62 12.032 13.62ZM12.032 12.264C12.632 12.264 13.104 12.016 13.448 11.52C13.8 11.024 13.976 10.284 13.976 9.3C13.976 8.316 13.8 7.576 13.448 7.08C13.104 6.584 12.632 6.336 12.032 6.336C11.44 6.336 10.968 6.584 10.616 7.08C10.272 7.576 10.1 8.316 10.1 9.3C10.1 10.284 10.272 11.024 10.616 11.52C10.968 12.016 11.44 12.264 12.032 12.264ZM22.4448 9.9H20.3208V12H19.0368V9.9H16.9128V8.7H19.0368V6.6H20.3208V8.7H22.4448V9.9Z" fill="white"/>
</svg>
