<svg width="16" height="8" viewBox="0 0 16 8" fill="none" xmlns="http://www.w3.org/2000/svg">
<path d="M1.12242 1.08209C1.05334 1.13985 0.997419 1.20972 0.958852 1.28812C0.92022 1.36664 0.9 1.45172 0.9 1.53818C0.9 1.62464 0.92022 1.70972 0.958852 1.78824C0.997428 1.86665 1.05336 1.93654 1.12246 1.99431C1.1225 1.99434 1.12253 1.99436 1.12257 1.99439L6.58662 6.60382L6.58671 6.60389C6.96602 6.92311 7.47356 7.1 7.9997 7.1C8.52584 7.1 9.03339 6.92311 9.41269 6.60389L9.41278 6.60382L14.8767 1.99448C14.8768 1.99441 14.8769 1.99434 14.877 1.99427C14.9462 1.93652 15.0023 1.8666 15.041 1.78814C15.0797 1.70951 15.1 1.62428 15.1 1.53768C15.1 1.45108 15.0797 1.36586 15.041 1.28722C15.0023 1.20882 14.9463 1.13895 14.8771 1.08122C14.7378 0.963817 14.553 0.9 14.363 0.9C14.173 0.9 13.9882 0.963817 13.8488 1.08122L13.8488 1.08127L8.3832 5.69199L8.383 5.69216C8.28319 5.7768 8.14563 5.82627 7.9997 5.82627C7.85378 5.82627 7.71621 5.7768 7.6164 5.69216L7.61619 5.69199L2.15062 1.08226L2.15057 1.08222C2.01119 0.964818 1.82639 0.901 1.63642 0.901C1.44652 0.901 1.26178 0.964772 1.12242 1.08209ZM1.12242 1.08209C1.12247 1.08205 1.12252 1.08201 1.12257 1.08197L1.18669 1.1587M1.12242 1.08209C1.12237 1.08213 1.12232 1.08218 1.12227 1.08222L1.18669 1.1587M1.18669 1.1587C1.30668 1.05763 1.46819 1.001 1.63642 1.001C1.80465 1.001 1.96616 1.05763 2.08615 1.1587L1.18669 1.91766C1.1276 1.86828 1.08064 1.80927 1.04858 1.7441C1.01652 1.67893 1 1.60891 1 1.53818C1 1.46745 1.01652 1.39744 1.04858 1.33226C1.08064 1.26709 1.1276 1.20808 1.18669 1.1587Z" fill="#1A1722" stroke="#171717" stroke-width="0.2"/>
</svg>
