<svg width="276" height="340" viewBox="0 0 276 340" fill="none" xmlns="http://www.w3.org/2000/svg">
<path d="M214.29 67.5407C208.876 67.0183 203.609 66.5799 198.21 66.2273C204.61 71.163 208.813 77.6593 209.836 84.8719C209.979 85.8965 208.912 86.6331 207.646 86.2898C196.862 83.2487 187.438 74.9469 186.83 65.6318C184.273 65.5445 181.752 65.3835 179.2 65.2938C146.403 82.0509 117.346 102.873 90.4022 125.546C94.4825 125.815 100.023 125.892 105.88 125.907C111.039 115.317 125.94 109.791 139.958 112.122C141.238 112.323 142.405 113.622 141.382 114.556C136.675 118.899 131.742 123.076 125.969 125.696C131.406 125.619 135.606 125.586 137.078 125.663C137.612 125.717 138.181 125.799 138.748 125.832C141.385 116.701 152.743 110.958 164.336 111.235C166.205 111.281 166.411 113.156 165.43 113.97C160.042 118.534 154.348 122.752 148.375 126.752C153.033 127.273 157.686 127.837 162.296 128.521C168.954 120.23 182.051 117.121 194.043 119.826C195.433 120.135 195.526 121.638 194.622 122.269C188.596 126.529 181.755 129.21 174.15 130.464C180.35 131.549 186.514 132.749 192.628 134.114C200.963 126.884 216.174 126.255 226.419 132.325C227.443 132.958 227.38 134.254 226.192 134.664C219.675 136.823 213.998 140.949 206.864 141.94C212.581 146.155 216.118 151.427 217.209 157.612C217.376 158.714 216.402 159.385 215.139 159.357C199.878 159.26 192.81 146.257 189.496 136.188C189.453 135.99 189.467 135.848 189.514 135.685C184.376 134.804 179.2 134.041 174.048 133.302C181.308 137.819 185.879 144.524 186.074 152.18C186.1 152.834 185.2 153.104 184.552 152.94C172.987 149.866 163.933 141.458 162.301 131.822C157.582 131.295 152.824 130.886 148.095 130.505C155.43 135.778 159.071 143.084 158.66 151.04C158.621 152.049 157.132 152.475 156.131 151.919C146.312 146.42 136.155 139.443 137.031 129.745C132.05 129.435 127.032 129.24 122.004 129.093C124.606 130.272 127.091 131.702 129.315 133.398C131.869 135.367 139.649 141.695 136.673 145.009C134.007 147.944 125.753 144.024 123.078 142.984C114.795 139.713 107.889 134.966 102.372 129.013C96.7812 129.096 91.2108 129.259 85.5972 129.583C64.9922 147.261 45.6221 165.927 26.7276 184.644C22.8865 188.473 18.9838 192.295 15.1143 196.096C23.5258 194.007 32.1593 192.446 40.8926 191.352C41.6176 186.364 44.688 181.784 49.1256 178.328C52.1902 175.985 60.2171 171.015 65.1795 173.346C72.3691 176.7 64.6057 184.589 57.386 189.934C62.3286 189.686 67.3144 189.635 72.2827 189.729C75.7428 181.09 84.8345 175.117 96.4821 174.197C98.0058 174.061 99.5413 175.301 98.8824 176.537C96.2403 181.69 93.0615 187.104 88.0409 190.62C92.2238 191.043 96.4009 191.562 100.531 192.244C102.92 182.244 116.276 176.463 128.513 178.158C130.389 178.419 130.976 180.14 129.704 181.143C126.08 183.981 122.008 191.401 116.624 195.604C120.949 196.739 125.296 197.998 129.53 199.464C129.62 199.498 129.702 199.578 129.785 199.611C129.524 198.884 129.847 198.05 130.998 197.976C144.659 197.141 156.799 206.415 158.819 217.004C159.024 217.988 158.034 218.901 156.745 218.793C143.817 217.365 129.172 213.693 126.117 201.94C126.098 201.819 126.136 201.748 126.116 201.628C120.982 200.433 115.891 199.388 110.791 198.442C110.517 198.486 110.211 198.505 109.937 198.549C114.217 200.789 117.862 203.666 120.693 207.157C122.525 209.414 127.114 215.348 121.788 216.736C117.299 217.9 110.366 213.749 107.245 211.436C102.091 207.614 98.8164 202.489 98.2308 197.007C98.2162 196.837 98.2632 196.674 98.277 196.532C93.063 195.833 87.8885 195.335 82.7034 194.982C91.1333 199.234 96.903 206.008 98.0765 214.199C98.2126 215.007 97.2531 215.849 96.1774 215.428C84.7921 210.855 72.6791 205.053 71.1123 194.39C66.1119 194.271 61.1593 194.301 56.2214 194.5C63.7798 197.794 69.2336 203.476 71.0517 210.579C71.2651 211.517 70.2382 212.448 69.0449 212.277C57.3538 210.541 46.391 204.711 41.593 195.648C30.6709 196.857 19.7559 198.958 8.88499 202.101C-22.3669 232.173 -54.6756 260.736 -89.5544 287.428C-78.4764 290.499 -60.202 288.466 -51.2454 288.529C-47.5599 276.348 -32.2015 268.911 -16.7795 269.17C-15.514 269.201 -14.386 270.618 -14.9542 271.524C-20.0536 279.923 -28.4174 285.875 -39.0802 288.796C-30.199 288.995 -21.3063 289.146 -12.4583 289.367C-7.53589 275.621 10.2607 267.278 28.2599 269.05C29.9372 269.22 30.7784 270.776 29.8905 271.842C23.518 279.682 15.1452 285.727 5.09176 289.816C12.1392 289.999 19.1786 290.227 26.2192 290.409C26.2534 290.341 26.2661 290.245 26.3004 290.177C32.9877 279.408 44.9907 272.356 59.5232 269.343C61.1565 269.003 62.8024 270.709 62.1414 271.895C58.0875 279.171 53.2358 287.189 45.0884 290.942C50.746 291.127 56.438 291.244 62.1251 291.411C62.7587 291.4 63.3906 291.442 64.0525 291.459C73.8634 288.019 81.7471 282.956 87.8737 276.085C77.1846 277.994 69.5558 283.245 63.4031 290.67C63.0932 291.05 62.6001 291.144 62.1289 291.05C61.3848 290.952 60.6883 290.327 60.9972 289.635C65.9985 279.466 78.3469 273.486 91.702 272.352C93.4085 272.185 94.5257 273.747 93.6915 274.866C88.2852 282.08 81.0037 287.777 72.1094 291.746C77.5558 291.935 83.0034 292.078 88.4419 292.313C88.8713 291.948 89.4902 291.767 90.1857 292.08C90.4458 292.178 90.7422 292.258 91.0023 292.356C98.4459 283.736 114.62 281.899 125.544 288.738C126.515 289.319 126.807 290.651 125.722 291.262C115.473 297.046 100.844 300.7 88.8579 294.549C82.4571 294.578 76.0658 294.509 69.665 294.538C81.5148 298.989 93.3375 305.293 94.0829 316.62C94.1436 317.564 93.0981 318.687 91.7339 318.14C78.8464 312.839 68.1286 305.728 59.3778 296.366C58.7762 295.725 58.8123 295.031 59.1654 294.49C54.4867 294.475 49.7582 294.405 45.0542 294.366C55.1398 298.976 62.6904 306.702 65.8973 315.99C66.2066 316.866 65.0507 317.88 63.9233 317.673C47.4866 314.756 33.748 306.429 26.2093 294.222C18.2213 294.116 10.2086 293.979 2.19587 293.843C13.0511 298.892 20.466 307.736 21.1256 318.094C21.1383 318.89 19.8115 319.528 18.9391 319.15C5.11449 313.246 -5.61288 304.984 -13.4039 294.098C-13.535 293.917 -13.5497 293.747 -13.5975 293.599C-20.9188 293.46 -28.2036 293.303 -35.5249 293.165C-27.5036 298.532 -21.7251 305.572 -18.6778 313.974C-18.2466 315.124 -20.0076 316.177 -21.3182 315.683C-34.8198 310.513 -45.6871 303.053 -54.5909 293.38C-54.7836 293.192 -54.8852 292.991 -54.953 292.763C-68.4786 292.481 -82.0052 292.245 -95.524 291.964C-117.428 308.422 -140.318 324.136 -164.696 339.02C-167.907 341.011 -172.016 337.005 -168.887 334.934C-145.848 319.528 -122.759 304.224 -100.615 288.101C-101.79 284.031 -102.754 279.956 -103.776 275.879C-104.172 276.222 -104.791 276.403 -105.53 276.256C-115.469 273.877 -124.276 269.736 -132.194 264.261C-133.184 263.606 -133.453 261.986 -131.939 261.637C-121.501 259.173 -112.679 263.126 -105.448 268.871C-106.457 264.334 -107.408 259.806 -108.264 255.262C-123.243 253.82 -135.905 243.408 -138.68 231.514C-138.973 230.182 -137.255 228.937 -135.652 229.554C-125.291 233.494 -116.631 238.801 -109.754 246.026C-110.908 238.632 -111.913 231.228 -112.612 223.811C-127.539 220.906 -137.651 210.001 -138.265 197.964C-138.317 196.609 -136.266 196.311 -135.052 196.867C-126.416 200.848 -117.765 205.674 -113.462 212.639C-113.77 206.751 -114.018 200.922 -114.082 195.057C-114.457 195.212 -114.92 195.287 -115.464 195.014C-127.117 189.139 -134.884 178.642 -136.592 167.938C-136.75 166.791 -135.071 165.658 -133.772 166.559C-125.687 172.197 -117.646 177.997 -114.104 185.68C-113.973 180.584 -113.781 175.495 -113.44 170.397C-123.803 164.266 -130.447 154.702 -131.493 144.595C-131.613 143.33 -129.854 142.012 -128.388 143.076C-120.85 148.439 -115.537 154.037 -112.643 161.243C-112.413 158.542 -112.242 155.885 -111.925 153.221C-112.838 152.695 -113.225 151.69 -112.106 151.058C-111.944 150.953 -111.815 150.87 -111.686 150.786C-111.68 150.69 -111.667 150.595 -111.658 150.502C-111.652 150.406 -111.611 150.338 -111.577 150.27C-118.104 141.61 -108.643 133.072 -100.852 127.716C-99.6894 126.918 -97.8848 127.63 -97.5736 128.771C-95.1372 138.199 -99.6175 147.985 -109.406 153.117C-109.775 157.25 -109.969 161.397 -110.156 165.546C-104.685 159.232 -95.1679 155.398 -85.5895 154.608C-84.2186 154.479 -83.1463 155.578 -83.5208 156.625C-87.1677 166.23 -97.6988 172.468 -110.469 171.876C-110.642 176.773 -110.663 181.664 -110.655 186.577C-105.091 180.875 -97.3797 176.954 -87.3932 179.482C-86.2421 179.766 -85.8537 181.037 -86.4649 181.745C-92.5336 188.624 -100.336 193.813 -110.12 196.97C-110.244 197.004 -110.364 196.995 -110.455 197.008C-110.305 201.383 -110.068 205.795 -109.769 210.161C-105.499 204.4 -98.1634 200.323 -89.3842 199.112C-88.2529 198.959 -86.9509 199.864 -87.1346 200.833C-89.2637 211.29 -96.6317 219.415 -108.367 224.06C-107.727 229.907 -106.872 235.753 -105.93 241.583C-100.559 234.125 -91.8781 225.509 -84.4009 229.927C-79.6593 232.719 -83.4611 237.998 -85.3726 240.89C-89.6253 247.398 -95.7721 252.587 -103.286 256.646C-102.804 259.777 -102.418 264.179 -101.756 268.582C-99.0378 262.037 -92.2042 256.896 -84.1927 254.262C-82.6983 253.786 -80.6856 254.81 -80.9438 256.227C-82.6795 265.763 -88.4881 272.741 -97.9319 278.316C-98.3818 278.607 -98.9332 278.698 -99.4408 278.621C-98.713 280.743 -97.7681 282.549 -96.56 283.781C-96.2853 284.049 -95.9731 284.251 -95.6936 284.47C-83.3093 275.337 -71.2647 265.926 -59.6843 256.063C-36.4544 236.194 -15.2004 214.92 6.02836 193.621C7.69723 187.31 8.49449 180.933 8.60031 174.557C8.28848 174.672 7.91558 174.775 7.52273 174.763C-4.11916 174.696 -15.2385 170.125 -23.1199 163.063C-24.1448 162.118 -23.6374 160.627 -22.2958 160.158C-12.2785 156.763 -0.439911 158.225 8.07205 163.807C7.41904 158.414 6.27842 153.025 4.55731 147.74C-6.74423 148.477 -18.1764 144.068 -25.0711 136.455C-26.0001 135.448 -25.4675 133.981 -23.8528 133.832C-15.4324 132.9 -6.23441 134.503 1.04336 138.518C-0.885662 134.131 -3.09657 129.834 -5.70719 125.667C-9.82808 127.71 -14.8247 128.48 -19.7801 127.932C-23.3342 127.548 -31.9532 125.57 -33.1644 122.194C-34.5506 118.127 -27.4388 116.966 -23.9779 117.098C-19.4994 117.288 -14.7779 118.075 -10.2046 119.141C-12.4729 116.045 -14.9867 113.02 -17.659 110.097C-27.1139 111.432 -37.3174 110.255 -46.4834 107.642C-48.1294 107.186 -48.4629 105.347 -47.1802 104.558C-41.6118 100.953 -33.5242 99.7453 -26.4834 101.495C-29.4566 98.8593 -32.5582 96.3021 -35.8554 93.8714C-43.9966 99.0953 -55.4241 99.919 -65.4694 97.0712C-67.1154 96.615 -67.3747 94.9026 -66.2089 94.1069C-60.101 89.9277 -51.3209 87.7794 -43.0743 88.9275C-44.8954 87.7803 -46.7165 86.633 -48.6002 85.5264C-49.1587 85.975 -49.9645 86.2302 -50.9139 86.0404C-57.9517 84.5094 -64.3895 81.2066 -68.8467 76.4426C-71.0895 74.0467 -75.5946 69.1342 -71.9605 66.5154C-68.13 63.7233 -61.4012 67.1963 -58.0944 69.1698C-52.2456 72.6284 -48.4467 77.3729 -46.6288 82.9079C-46.4594 83.3362 -46.6111 83.6549 -46.8788 83.9203C-45.3851 84.7005 -43.9916 85.5866 -42.5021 86.4105C-45.3027 79.8158 -43.7182 72.483 -39.1021 66.8973C-38.3196 65.9911 -36.7276 66.0776 -35.8122 66.8683C-27.967 73.7328 -27.8679 84.2742 -35.3467 90.7241C-34.9097 90.887 -34.5485 91.1912 -34.3696 91.5212C-31.4814 93.4993 -28.7839 95.5548 -26.1244 97.6809C-26.7294 92.0781 -24.3341 86.3674 -20.1869 82.1611C-19.2168 81.1746 -17.3284 81.3405 -16.5996 82.5236C-11.6803 90.2984 -11.5093 99.1333 -16.0989 106.623C-16.0452 106.675 -15.96 106.759 -15.9063 106.811C-14.4627 106.86 -13.7781 107.893 -14.0724 108.754C-12.5954 110.35 -11.1264 111.991 -9.77743 113.623C-9.79358 107.865 -6.96115 102.317 -1.95135 98.2696C-0.837596 97.3694 1.03629 98.257 1.35543 99.3517C3.58507 107.167 5.74752 116.639 -1.41354 122.663C-1.51219 123.039 -1.83885 123.343 -2.36024 123.409C-2.36024 123.409 -2.39353 123.43 -2.36511 123.458C0.295619 127.464 2.54558 131.643 4.58002 135.87C6.23602 130.012 9.93813 124.798 15.692 120.848C16.7257 120.133 18.3864 120.759 18.6487 121.798C20.9575 130.366 18.2879 140.194 9.50995 145.426C9.31819 145.55 9.09913 145.599 8.85474 145.624C8.92311 145.847 8.93293 146.066 8.88014 146.325C10.4025 150.842 11.5589 155.463 12.3439 160.099C15.8406 155.151 20.9326 151.184 27.1737 148.127C28.4127 147.505 30.5916 148.062 30.2997 149.506C28.688 158.332 23.2405 165.972 14.6583 171.394C14.2711 171.645 13.9023 171.704 13.5132 171.69C13.6507 176.837 13.3345 181.96 12.5009 187.106C19.7236 179.838 26.9752 172.592 34.3386 165.408C47.9361 152.133 62.0371 138.978 76.7818 126.349C78.8459 122.774 80.4671 119.132 81.8523 115.464C69.763 111.879 62.2783 101.293 63.5546 91.2544C63.7411 89.9707 65.3802 89.5346 66.7102 90.1493C75.1302 94.1824 81.299 100.298 84.3542 107.404C85.9378 101.01 86.6909 94.4816 86.8147 87.9202C73.5648 86.076 63.1864 77.316 61.628 66.6023C61.4459 65.3778 62.7376 64.4955 64.2352 64.9146C73.0794 67.423 81.2001 72.0495 86.5982 78.3052C86.2376 72.6774 85.4888 66.9883 84.5326 61.3003C71.3335 58.9313 61.3942 50.5994 58.4354 40.0339C58.1242 38.893 59.4482 37.6773 60.9348 37.9241C70.3393 39.5729 78.0318 44.3025 82.5372 50.7825C81.8873 47.5348 81.1721 44.2832 80.4305 41.0538C71.3854 33.8031 69.9306 22.3049 77.428 14.4135C78.2974 13.5382 80.001 13.6856 80.6525 14.7394C84.5417 21.3007 88.1934 27.8876 87.5144 34.5418C91.7009 30.8942 97.4883 28.4904 103.975 28.1801C105.097 28.1251 106.015 28.9189 105.658 29.8212C102.401 38.1908 95.8264 45.044 85.199 47.8502C86.82 53.2411 88.1967 58.657 89.2957 64.1193C90.5088 56.2689 97.7879 49.9891 107.354 47.8236C108.835 47.4903 110.463 48.4498 109.916 49.7468C106.216 58.3615 100.284 65.6907 91.7473 71.5701C91.3933 71.7992 91.053 71.8864 90.6607 71.8688C91.0377 74.2224 91.3536 76.5643 91.5494 78.8968C96.6608 73.8 104.31 70.5493 112.955 70.4101C114.494 70.3974 115.754 71.4161 115.27 72.6671C111.988 81.324 104.466 87.9353 94.0838 91.3458C93.2448 91.6225 92.5065 91.4292 91.9732 91.011C91.8251 96.6095 91.1361 102.153 89.8227 107.615C89.545 108.911 88.0031 112.056 86.5385 115.33C86.5248 115.472 86.4524 115.611 86.3439 115.769C85.6975 117.125 85.1081 118.536 84.6272 119.79C112.022 97.1384 141.924 76.6197 175.711 60.8761C167.822 56.3199 163.38 47.9696 166.691 40.5906C167.119 39.5962 168.794 39.1418 169.901 39.8552C175.786 43.6074 180.178 48.7264 182.016 54.382C184.376 50.8866 186.329 47.2505 187.902 43.4603C176.19 40.9739 174.515 28.6863 174.533 20.7124C174.548 19.3146 176.684 18.7357 178 19.4979C185.532 23.7062 190.45 30.8517 189.976 37.9627C190.81 35.2761 191.554 32.5556 192.161 29.7495C191.618 29.4297 191.246 28.912 191.236 28.381C183.604 19.2723 187.729 6.62703 197.842 0.711035C199.056 0.0169184 200.938 0.540993 201.235 1.824C203.51 11.6691 205.124 23.0591 194.543 29.7751C194.481 29.8157 194.386 29.8309 194.323 29.8715C194.043 33.4088 193.38 36.7888 192.366 40.0837C196.873 33.0933 206.624 29.0201 216.682 30.2051C217.996 30.3379 218.897 31.635 218.061 32.4888C213.237 37.3995 200.405 49.0155 191.039 44.1195C189.309 48.595 187.024 52.8459 184.268 57.0023C195.67 52.0805 207.559 47.7405 219.96 44.0069C212.273 34.5807 226.969 23.992 235.15 19.28C236.241 18.6202 238.314 19.0202 238.457 20.3621C239.068 25.869 239.154 32.7966 236.271 37.9724C236.62 37.7924 237.027 37.6623 237.473 37.7322C237.506 37.7107 237.478 37.683 237.507 37.6639C245.042 27.8223 262.833 31.0666 274.456 34.4603C275.777 34.8559 276.003 36.2312 275.036 36.9034C264.906 43.6401 250.8 45.3468 238.032 41.3103C236.007 41.9501 234.006 42.6613 231.954 43.3233C242.424 43.9703 253.11 48.0171 259.574 54.7917C260.23 55.4844 260.117 56.6791 258.969 56.9715C254.452 58.1074 249.908 58.2719 245.465 57.751C245.475 57.9701 245.419 58.2265 245.222 58.3998C240.822 62.3652 235.182 64.853 228.938 65.7646C230.664 66.0357 232.391 66.26 234.11 66.5772C235.117 66.7756 235.662 67.3605 235.811 68.027C250.259 61.8977 268.206 79.0839 274.049 88.2795C274.762 89.3396 273.583 90.5948 272.179 90.428C257.487 88.7996 237.326 85.1225 235.433 70.6905C234.741 70.6924 234.176 70.2489 233.957 69.7245C233.895 69.7183 233.866 69.7374 233.807 69.7342C230.048 69.2577 226.324 68.8095 222.559 68.3821C229.869 73.0011 234.128 80.4443 233.811 87.7615C233.761 88.5982 232.487 89.2892 231.467 88.8742C221.088 84.6128 212.7 77.4284 214.29 67.5407ZM94.8567 293.637C103.869 295.945 112.924 294.064 120.672 290.078C111.819 286.413 101.18 287.843 94.8567 293.637ZM89.793 314.089C86.3836 304.394 75.3034 299.49 64.0894 295.611C71.1153 303.19 79.6254 309.399 89.793 314.089ZM61.2214 314.021C57.0786 304.76 48.1929 297.719 36.8749 294.306C35.1291 294.273 33.3464 294.264 31.5675 294.253C37.8776 303.904 48.2401 310.973 61.2214 314.021ZM31.1981 290.286C44.2729 291.439 51.3526 282.829 55.8279 274.342C45.1818 277.699 36.8109 283.117 29.7566 290.501C29.8761 290.516 29.9678 290.498 30.0873 290.513C30.3739 290.373 30.722 290.24 31.1981 290.286ZM17.1492 315.396C14.1545 305.166 5.74283 297.013 -7.15613 293.687C-7.75963 293.673 -8.29842 293.668 -8.90193 293.654C-2.86067 302.941 5.8774 310.257 17.1492 315.396ZM154.17 215.295C150.828 207.078 141.736 201.918 131.178 200.61C131 200.592 130.794 200.547 130.65 200.461C130.742 200.76 130.715 201.044 130.6 201.297C130.621 201.371 130.649 201.399 130.677 201.473C133.005 210.7 143.986 213.88 154.17 215.295ZM116.869 212.778C118.229 213.686 118.913 213.515 118.881 212.234C119.506 211.383 119.32 210.52 118.34 209.72C117.562 208.123 115.403 206.073 113.964 204.724C110.923 201.861 107.329 199.715 103.319 197.792C103.002 197.638 102.843 197.382 102.808 197.139C102.808 197.139 102.747 197.132 102.721 197.108C103.771 202.827 108.805 211.599 116.869 212.778ZM-3.94945 289.556C7.4446 285.936 16.8158 280.183 24.0404 272.289C9.19459 271.969 -2.92003 278.961 -8.8267 289.45C-7.25999 289.512 -5.69523 289.523 -4.099 289.566C-4.06896 289.542 -4.00737 289.548 -3.94945 289.556ZM-24.0713 310.989C-27.5793 303.597 -33.7148 297.46 -41.7992 293.03C-44.3849 292.962 -46.9787 292.94 -49.5714 292.871C-42.7941 300.519 -34.2322 306.515 -24.0713 310.989ZM193.917 139.505C197.785 146.931 202.648 154.388 213.025 155.991C211.985 150.85 209.036 146.671 203.81 143.036C203.444 142.781 203.232 142.472 203.198 142.176C199.732 142.093 196.469 141.209 193.917 139.505ZM221.88 133.439C212.927 130.197 203.638 131.066 195.832 135.36C195.915 135.752 195.749 136.218 195.308 136.417C201.754 143.383 214.02 137.005 221.88 133.439ZM112.147 194.542C117.202 192.207 121.109 185.518 124.483 181.233C114.749 181.094 107.185 185.678 102.882 192.664C105.967 193.219 109.076 193.845 112.147 194.542ZM94.5092 212.133C91.9009 204.158 85.0256 197.557 75.1811 194.492C76.2039 202.955 85.6588 208.153 94.5092 212.133ZM-47.223 287.324C-35.6636 285.744 -26.2899 280.573 -20.6078 272.688C-32.7504 273.437 -41.5713 279.147 -47.223 287.324ZM166.485 132.347C168.532 140.193 174.251 146.553 183.298 150.359C181.434 142.8 175.681 136.144 167.142 132.413C166.902 132.389 166.724 132.371 166.485 132.347ZM268.698 86.8969C262.576 79.0502 250.546 68.3157 239.169 69.8649C241.111 81.9393 255.838 85.3791 268.698 86.8969ZM66.5588 208.753C63.8647 201.951 57.2098 196.821 48.2905 195.125C48.2036 195.094 48.1468 195.039 48.0636 195.005C47.331 195.075 46.6631 195.154 45.9305 195.223C50.775 201.878 57.3946 206.764 66.5588 208.753ZM82.3572 190.206C87.6791 187.612 90.8422 182.966 93.3892 178.187C85.4509 179.744 79.2481 183.939 75.8737 189.838C78.0655 189.941 80.228 190.063 82.3572 190.206ZM141.217 129.961C140.142 137.635 147.869 143.547 155.289 148.227C154.52 140.896 149.509 134.39 141.846 130C141.636 129.957 141.428 129.958 141.217 129.961ZM166.17 129.061C174.863 128.712 182.921 126.272 189.522 122C180.371 121.124 172.153 123.713 165.931 129.037C165.992 129.043 166.075 129.077 166.17 129.061ZM132.093 142.799C135.581 141.971 131.694 139.748 129.957 138.055C128.032 136.124 125.728 134.351 123.212 132.891C120.127 131.086 116.776 129.853 113.24 128.966C111.338 128.942 109.409 128.94 107.506 128.963C110.475 131.965 113.741 134.677 117.585 137.066C120.98 139.168 127.8 143.837 132.093 142.799ZM218.283 68.3527C217.875 74.7446 221.86 82.8113 229.905 85.479C228.443 78.7298 224.596 73.3043 218.283 68.3527ZM51.3511 190.326C54.1979 188.662 56.6788 186.744 58.8418 184.36C59.8872 183.238 61.4263 181.657 61.8046 180.249C63.373 179.009 63.0954 178.164 60.8695 177.77C59.911 176.782 58.9572 176.636 57.9863 177.311C54.2144 177.606 49.3659 182.486 47.4515 184.801C45.8801 186.715 44.8573 188.853 43.951 191.002C46.42 190.741 48.859 190.504 51.3511 190.326ZM142.125 126.151C142.605 126.199 143.138 126.253 143.618 126.302C149.158 122.669 154.368 118.764 159.326 114.612C151.221 115.744 145.546 120.135 142.125 126.151ZM219.699 63.7269C227.77 64.5427 235.382 62.6129 240.958 58.2862C236.485 57.4257 231.922 57.4695 227.574 58.7162C223.507 59.9196 221.007 62.0295 218.02 64.1837C218.198 64.2017 218.321 64.2141 218.437 64.2259C218.655 63.9112 219.075 63.639 219.699 63.7269ZM-98.9118 274.8C-92.6503 270.926 -88.4788 265.541 -86.4629 259.359C-93.2977 262.62 -97.2826 267.613 -99.8988 273.784C-99.5703 274.104 -99.2434 274.477 -98.9118 274.8ZM254.595 54.9149C246.377 49.4091 237.663 46.191 227.002 45.6681C232.941 52.8699 244.424 56.4424 254.595 54.9149ZM240.719 38.6233C250.702 41.5117 261.156 40.7387 269.731 36.3507C259.281 34.2568 249.588 33.0617 240.719 38.6233ZM189.381 65.7682C191.96 73.4031 196.987 79.4998 206.043 82.8493C204.331 75.9036 199.595 69.9826 192.355 65.8977C191.362 65.8746 190.402 65.8245 189.381 65.7682ZM115.087 125.849C123.494 125.013 130.264 119.959 135.855 114.911C124.879 114.5 115.846 118.646 109.874 125.78C110.142 125.832 110.382 125.857 110.68 125.884C112.157 125.871 113.638 125.849 115.087 125.849ZM215.759 63.9055C217.885 57.8308 226.586 54.9294 234.827 54.9178C230.222 52.9345 226.06 50.0796 222.795 46.424C209.914 51.0474 197.578 56.2613 185.736 62.0053C186.217 62.0069 186.696 62.0554 187.18 62.0546C187.383 61.2058 188.295 60.528 189.54 61.065C190.35 61.4367 191.125 61.8269 191.898 62.2693C199.865 62.5171 207.816 63.0061 215.759 63.9055ZM-106.163 273.007C-111.761 268.178 -118.191 264.153 -126.283 264.154C-120.066 267.912 -113.433 270.777 -106.163 273.007ZM224.072 42.5542C234.53 40.5286 235.442 31.4388 234.797 23.7097C226.914 28.7665 221.2 34.1666 222.424 42.7243C222.901 42.5076 223.511 42.4257 224.072 42.5542ZM-103.974 252.577C-100.744 250.712 -97.7931 248.576 -95.1987 246.093C-92.8087 243.828 -87.8061 239.248 -87.5923 236.112C-87.1306 228.881 -98.3546 239.098 -99.5965 240.394C-101.774 242.608 -103.458 245.04 -104.883 247.617C-104.561 249.289 -104.329 250.927 -103.974 252.577ZM-109.749 251.751C-109.95 251.656 -110.214 251.56 -110.345 251.378C-116.21 244.303 -123.654 238.613 -132.778 234.677C-128.934 243.235 -120.383 249.064 -109.749 251.751ZM12.8515 163.71C13.0435 165.154 13.2029 166.613 13.337 168.048C19.2337 163.872 23.3239 158.719 25.4788 152.672C20.3673 155.628 16.2299 159.377 12.8515 163.71ZM7.86163 171.013C8.16284 171.044 8.3946 171.114 8.601 171.16C8.59212 170.003 8.49203 168.858 8.42467 167.698C1.35906 162.742 -8.26065 160.782 -17.0191 162.742C-10.0036 167.858 -1.52916 170.473 7.86163 171.013ZM178.67 58.8789C178.846 58.6318 179.014 58.4309 179.19 58.1837C178.097 52.9428 175.347 48.3235 170.457 44.6031C170.285 50.1301 173.152 55.4317 178.67 58.8789ZM193.28 42.3562C199.501 44.5029 208.323 37.5374 212.894 33.0153C204.947 33.4153 198.461 36.5434 193.979 41.9963C193.807 42.1942 193.554 42.3122 193.28 42.3562ZM179.134 24.4919C179.483 30.527 180.753 36.1501 186.321 40.3282C187.094 34.2382 184.844 28.4912 179.134 24.4919ZM67.5739 94.4728C67.8661 102.02 73.4306 108.486 81.696 112.26C79.92 105.043 75.0263 98.8608 67.5739 94.4728ZM-108.895 220.201C-100.265 216.495 -94.0878 210.35 -91.5978 202.697C-100.134 204.509 -106.436 209.438 -109.237 215.95C-109.132 217.357 -109.055 218.742 -108.916 220.127C-108.891 220.152 -108.891 220.152 -108.895 220.201ZM92.4011 88.3771C100.758 85.6064 106.881 80.6589 110.204 74.0814C102.545 75.2834 96.262 78.454 91.8989 83.6044C91.9254 84.2584 92.0136 84.9186 92.0107 85.5917C92.0665 86.5854 92.0275 87.5943 91.9923 88.6008C92.1429 88.5443 92.2436 88.433 92.4011 88.3771ZM6.8068 140.786C7.07295 141.465 7.31075 142.115 7.5769 142.793C13.1012 137.788 16.4999 131.961 15.7116 125.18C11.0714 129.48 8.04114 134.572 6.96023 140.416C6.94648 140.558 6.84584 140.669 6.8068 140.786ZM193.4 26.1297C200.045 20.7519 199.407 12.7115 197.831 5.27749C191.119 10.7396 190.145 18.6198 193.4 26.1297ZM3.46459 144.425C3.21418 143.87 3.08702 143.328 2.86981 142.751C-3.87983 138.887 -11.2344 136.628 -19.4358 136.834C-13.4121 142.019 -5.18875 144.658 3.46459 144.425ZM86.8633 85.3833C86.8514 84.8991 86.8075 84.3897 86.8035 83.8594C86.7467 83.804 86.6313 83.7454 86.5492 83.6653C81.3719 76.9491 75.039 71.9236 66.2524 68.8912C68.8195 76.9333 76.5611 83.3319 86.8633 85.3833ZM-113.718 220.459C-114.217 210.94 -124.162 205.522 -133.634 201.145C-131.716 209.966 -124.15 216.924 -113.718 220.459ZM90.1328 68.1477C90.1758 68.3452 90.1572 68.5365 90.1972 68.7309C96.7814 64.0231 101.887 58.3462 105.057 51.7753C97.3233 54.6808 92.4116 60.4988 91.0078 67.5351C90.9328 67.9884 90.5219 68.1622 90.1328 68.1477ZM-110.545 193.623C-102.846 190.786 -96.4731 186.973 -91.2278 181.744C-100.107 180.559 -105.99 185.843 -110.563 191.309C-110.579 192.077 -110.558 192.827 -110.545 193.623ZM-4.28375 120.678C-4.22215 120.684 -4.22222 120.684 -4.1938 120.712C0.80324 115.869 0.166559 109.343 -1.56308 103.219C-5.31017 107.611 -6.79731 112.688 -6.00639 118.263C-5.42537 119.045 -4.83844 119.874 -4.28375 120.678ZM-7.62628 122.75C-7.65471 122.722 -7.70842 122.669 -7.76527 122.614C-10.5252 122.167 -13.2919 121.719 -16.0645 121.367C-18.6591 121.033 -26.0687 119.343 -28.4391 121.369C-22.3615 125.356 -14.1228 125.659 -7.62628 122.75ZM-131.547 171.743C-128.446 179.624 -123.128 186.065 -115.489 191.992C-116.286 183.696 -123.707 177.089 -131.547 171.743ZM82.0497 57.8149C79.6165 50.5315 72.8893 44.8645 64.1625 42.4646C67.2947 49.3826 73.7451 54.7318 82.0497 57.8149ZM-110.347 168.8C-100.65 169.322 -91.6668 165.074 -88.0912 158.061C-96.7052 159.744 -103.194 163.186 -109.792 168.036C-109.956 168.188 -110.167 168.191 -110.32 168.198C-110.338 168.389 -110.328 168.608 -110.347 168.8ZM84.2994 44.8615C92.3362 42.2516 98.9695 37.6454 101.96 31.1034C94.7898 32.8348 89.1668 36.075 85.2008 41.1937C85.1207 41.3788 85.0737 41.5425 84.972 41.7005C84.9045 41.7903 84.8098 41.8055 84.7139 41.8676C84.4657 42.2537 84.1605 42.5843 83.9081 43.0142C83.8749 43.0357 83.8169 43.027 83.7506 43.07C83.9646 43.6436 84.1154 44.2633 84.2994 44.8615ZM-113.182 167.238C-113.15 166.904 -113.113 166.522 -113.081 166.189C-113.109 166.161 -113.134 166.136 -113.163 166.108C-115.172 159.447 -119.842 152.807 -126.514 148.181C-124.265 155.44 -119.836 161.744 -113.182 167.238ZM-20.7303 106.942C-20.923 106.754 -21.1157 106.566 -21.3083 106.378C-27.4309 103.855 -34.221 103.194 -40.1346 105.367C-33.6808 106.645 -27.2934 107.076 -20.7303 106.942ZM81.7296 39.2752C82.0855 39.3112 82.4631 39.5178 82.6715 39.8286C87.5334 33.5972 83.3318 24.9069 78.9918 18.3249C74.8213 24.9132 75.9048 33.0703 81.7296 39.2752ZM-22.3925 100.727C-21.1944 101.739 -20.0921 102.814 -18.9535 103.87C-16.3028 98.3066 -16.143 92.3009 -18.8439 86.5332C-22.068 90.8079 -22.9066 95.4699 -22.3925 100.727ZM-100.952 132.208C-106.963 136.637 -112.705 142.321 -109.171 149.158C-103.314 144.788 -100.286 138.755 -100.952 132.208ZM-38.7487 88.592C-38.6334 88.6505 -38.5766 88.706 -38.4649 88.767C-33.0113 83.8483 -32.4491 76.506 -37.096 70.881C-40.5803 76.3079 -40.7748 82.3874 -38.7487 88.592ZM-59.7885 94.8745C-52.7879 96.112 -46.038 95.0114 -40.0345 92.196C-47.1807 91.4986 -53.7897 92.1083 -59.7885 94.8745ZM-50.5371 82.2204C-52.1631 79.379 -54.263 76.7574 -57.0368 74.5259C-58.4118 73.4486 -66.5161 67.6894 -68.3204 69.7949C-69.5761 71.2328 -61.2293 77.5933 -60.2922 78.1958C-57.305 80.115 -54.0452 81.3608 -50.5371 82.2204Z" fill="#4D504F" fill-opacity="0.3"/>
</svg>
