<svg width="112" height="43" viewBox="0 0 112 43" fill="none" xmlns="http://www.w3.org/2000/svg">
<path d="M97.8034 15.8533C97.3398 16.72 96.8731 17.5544 96.3726 18.3975C95.9431 16.829 94.9241 15.3888 93.4012 14.3289C93.1846 14.1788 92.9032 14.2438 92.8448 14.4744C92.3743 16.4527 93.241 18.8925 95.2844 20.156C95.0295 20.5451 94.795 20.9384 94.5409 21.3273C87.2227 24.068 79.3861 25.7434 71.3578 26.8732C71.7354 26.2357 72.3134 25.4064 72.9394 24.538C75.8912 25.1088 78.7435 23.6007 79.7225 21.2334C79.8145 21.0186 79.6458 20.6824 79.3243 20.7161C77.8353 20.8653 76.3597 21.0688 75.146 21.5928C75.7477 20.7981 76.2067 20.1812 76.3474 19.9537C76.3926 19.8679 76.4351 19.7733 76.4887 19.6853C78.8391 20.4455 81.3599 19.4888 82.543 17.7388C82.7336 17.4565 82.3311 17.1899 82.0414 17.2325C80.4291 17.4546 78.8623 17.7655 77.3149 18.1452C77.6976 17.3907 78.07 16.6313 78.4106 15.8631C81.0031 15.9226 83.1143 14.3767 83.7906 12.2621C83.8701 12.0175 83.54 11.8145 83.2998 11.8687C81.6879 12.2236 80.3458 12.8978 79.2446 13.8648C79.6653 12.811 80.0561 11.748 80.4039 10.6715C82.9365 10.3492 84.7136 8.17833 84.4405 5.89824C84.4072 5.66697 84.1069 5.51304 83.8866 5.63704C82.6974 6.32915 81.1531 6.64928 80.1624 7.57979C79.8225 6.20312 79.0089 5.0157 77.7261 4.07518C77.4946 3.91182 77.2379 3.97132 77.1086 4.16161C75.4903 6.43138 77.6747 9.11497 79.598 10.8736C79.638 10.9049 79.6717 10.9208 79.7138 10.9344C79.3611 11.8054 78.9776 12.6673 78.5912 13.5223C78.3487 11.8793 77.322 10.3587 75.6098 9.36535C75.4646 9.27904 75.3065 9.37818 75.2742 9.49475C74.7271 11.5927 75.6575 13.9912 77.6638 15.4465C77.2759 16.2109 76.8572 16.9663 76.4352 17.714C76.0298 15.9646 74.7671 14.5057 72.9217 13.5642C72.6891 13.4429 72.4325 13.6095 72.451 13.8276C72.6407 15.973 73.1286 18.3544 75.4182 19.4463C74.9531 20.2223 74.4581 20.9891 73.9509 21.7515C73.9636 21.218 73.907 20.6703 73.7621 20.1276C73.5908 19.5018 72.9943 17.5538 71.9241 17.5764C70.9732 17.6011 70.9735 19.316 70.9216 19.8427C70.772 21.4801 71.1044 23.0997 71.8592 24.6658C71.2395 25.4822 70.604 26.2857 69.9273 27.0753C63.711 27.8966 57.4035 28.4106 51.1356 28.8479C49.8561 28.9338 48.5713 29.0296 47.2949 29.1232C48.6718 28.1421 49.9532 27.0616 51.1392 25.9074C52.3464 26.4286 53.7132 26.5513 54.9727 26.3303C55.8323 26.172 57.8202 25.6107 57.8257 24.5829C57.8391 23.0969 55.2187 23.2515 53.2329 23.6462C53.8203 22.9464 54.3676 22.2152 54.8803 21.4684C57.2079 22.0448 59.537 21.4522 60.9971 19.8451C61.1916 19.6368 61.0759 19.2535 60.7253 19.1953C59.2747 18.937 57.7075 18.7253 56.3719 19.025C56.7257 18.353 57.0572 17.6697 57.3466 16.9728C59.8672 17.8791 62.6114 16.6317 63.5428 14.6078C63.6852 14.2974 63.3588 13.9938 62.995 14.0557C61.963 14.2343 59.8455 13.9018 58.3154 14.1689C58.5232 13.3861 58.7053 12.5844 58.8286 11.7735C58.8306 11.7559 58.8213 11.7336 58.8227 11.7172C58.9593 11.8475 59.1828 11.9048 59.3232 11.7438C60.9805 9.82809 60.1855 6.86393 58.0053 5.23122C57.8046 5.07688 57.4915 5.10843 57.3775 5.31277C56.3115 7.40498 55.5688 10.034 57.9014 11.9665C57.9266 11.9846 57.9467 11.9878 57.9719 12.0059C57.6906 12.916 57.38 13.8007 57.0461 14.6743C57.0067 14.7092 56.9695 14.7521 56.9301 14.7871C56.8829 13.8718 56.6233 12.9702 56.1374 12.1117C55.8231 11.5564 54.973 10.13 54.0864 10.743C53.3406 11.2604 53.5351 12.8088 53.7234 13.5621C54.0347 14.8059 54.843 15.9359 56.0211 16.7131C56.058 16.7366 56.1001 16.7503 56.1337 16.7662C55.7315 17.6254 55.2882 18.4536 54.8108 19.2651C54.7541 17.4824 53.8408 15.7757 52.1126 14.5703C51.9441 14.4483 51.6505 14.4842 51.6302 14.6964C51.4418 16.9566 51.4538 19.4795 53.6992 21.0544C53.1887 21.8091 52.6498 22.538 52.0741 23.2434C52.1405 21.7103 51.4403 20.1877 50.0278 19.0241C49.8384 18.8744 49.5173 18.909 49.4276 19.107C48.5643 21.0552 48.7059 23.4113 50.2419 25.2627C48.7945 26.7261 47.1459 28.0761 45.266 29.2883C35.0995 30.1232 25.161 31.3045 15.37 33.1018C15.8653 31.0762 18.2895 28.629 19.2377 27.2961C22.3916 28.2854 25.7256 26.9502 27.3244 24.6362C27.4533 24.445 27.2538 24.0997 26.9877 24.0697C24.5383 23.766 22.292 24.2535 20.4847 25.4629C21.394 24.124 22.3156 22.7895 23.2164 21.4528C26.8573 22.4561 30.6588 20.8745 32.1919 17.9886C32.3337 17.7192 32.0719 17.3987 31.735 17.3957C29.2754 17.3508 27.0071 17.8279 25.0008 18.8C25.7169 17.7345 26.4217 16.6644 27.1372 15.5999C27.1563 15.6035 27.1793 15.6136 27.1984 15.6171C30.355 15.9845 33.2416 15.0972 35.4855 13.327C35.7379 13.1282 35.5285 12.6698 35.189 12.6182C33.1061 12.3013 30.7694 12.0089 29.0444 12.7415C29.6104 11.8812 30.1956 11.0244 30.7691 10.1622C30.8396 10.0698 30.8981 9.97106 30.9653 9.87096C32.7986 8.85305 34.7918 8.32451 37.0057 8.28372C35.4249 9.62455 33.4164 10.0916 31.074 10.0664C30.9547 10.0644 30.8805 10.1255 30.8513 10.2071C30.7933 10.3295 30.86 10.5112 31.0499 10.5527C33.8896 11.0939 36.5704 10.0205 38.2623 8.18769C38.4835 7.95629 38.25 7.59427 37.907 7.57672C35.6929 7.46771 33.6206 7.8272 31.7661 8.64292C32.3087 7.81343 32.8619 6.98966 33.3932 6.15553C33.522 6.138 33.6293 6.06917 33.6331 5.92683C33.6389 5.876 33.6527 5.82211 33.6585 5.77128C36.4099 5.75601 38.564 3.59472 38.1897 1.11724C38.1625 0.900511 37.8923 0.689385 37.6374 0.773083C35.2267 1.5606 32.8272 3.26434 32.9317 5.81233C32.2372 6.75552 31.566 7.7097 30.8715 8.65289C31.1372 6.33918 30.9807 3.79622 28.4966 2.25909C28.2893 2.13114 27.9228 2.14439 27.8999 2.41503C27.7151 4.9893 28.173 7.47053 29.3522 9.94444C29.4325 10.1141 29.5936 10.1963 29.7541 10.2122C29.2546 10.9062 28.7621 11.6144 28.2655 12.3152C28.3058 10.2426 27.3682 8.15233 25.6101 6.50793C25.4451 6.35187 25.0911 6.39504 25.017 6.58799C23.911 9.38691 24.3196 12.4682 26.2729 15.1211C25.4385 16.3162 24.6083 17.5187 23.7781 18.7212C23.8016 16.4793 22.5963 14.2684 20.3223 12.866C20.1434 12.7638 19.8563 12.8796 19.8481 13.0563C19.699 15.8451 20.4166 18.4728 22.0437 20.9966C22.0707 21.0389 22.1076 21.0625 22.136 21.0882C21.3806 22.1887 20.6332 23.2861 19.8777 24.3865C19.5246 22.5239 18.5521 20.7823 16.9773 19.2731C16.7633 19.0644 16.3356 19.1923 16.3066 19.4484C16.0262 22.097 16.5471 24.6443 17.7801 27.18C17.8019 27.2321 17.8364 27.2724 17.8807 27.3112C16.4911 29.3476 15.0907 31.3782 13.7017 33.4136C7.62157 34.5805 1.60434 35.9872 -4.38515 37.7185C-5.1809 37.9426 -4.71562 39.0551 -3.91058 38.8532C2.05313 37.3856 7.9991 35.898 14.0289 34.6532C14.8242 35.3398 15.643 35.9956 16.4562 36.6605C16.3359 36.6758 16.2286 36.7446 16.1823 36.8725C15.6527 38.6424 15.6437 40.4669 16.0324 42.3278C16.0742 42.5569 16.412 42.8006 16.6537 42.6207C18.3333 41.3869 18.3866 39.584 17.863 37.7905C18.7817 38.5113 19.7047 39.2224 20.6413 39.9214C19.358 42.319 20.3544 45.5037 22.7488 47.4124C23.0189 47.6235 23.4853 47.5263 23.5178 47.2114C23.7394 45.1824 23.4685 43.2328 22.572 41.3054C24.1219 42.4075 25.6901 43.4888 27.2942 44.5265C26.3477 47.1007 27.7297 49.9702 30.3887 51.5774C30.6898 51.7558 30.9776 51.4899 30.9823 51.2401C31.0093 49.4612 30.8463 47.5735 29.732 46.0597C31.0318 46.8468 32.3248 47.6178 33.6457 48.3662C33.5703 48.402 33.5036 48.4612 33.5069 48.5761C33.5846 51.04 35.1263 53.5111 37.366 55.1122C37.6088 55.2802 38.0457 55.1745 37.9812 54.8689C37.5736 52.9626 37.1248 51.0424 35.7663 49.5507C36.9338 50.1732 38.1065 50.7858 39.2975 51.3776C39.5717 53.683 41.0228 55.8705 43.1985 57.2985C43.4721 57.4756 43.9595 57.3814 43.8761 57.0304C43.4722 55.2398 42.7757 53.7486 41.4554 52.4128C42.0916 52.719 42.7114 53.0284 43.3486 53.3171C43.3695 53.5185 43.5554 53.7023 43.8188 53.6164C43.86 53.6056 43.8928 53.597 43.9255 53.5885C43.9479 53.5997 43.9709 53.6098 43.9929 53.6202C44.0152 53.6314 44.0349 53.6339 44.0541 53.6374C45.3132 55.6939 48.2628 55.3698 50.3126 54.8919C50.6183 54.8206 50.651 54.4639 50.4262 54.2741C48.5536 52.7261 45.8567 52.1561 43.643 52.9576C42.6677 52.4916 41.7078 51.9978 40.7486 51.503C42.7658 51.4889 44.6567 50.5641 45.8649 49.2466C46.0415 49.0601 45.9079 48.763 45.6307 48.6866C43.0642 48.0161 40.5202 48.7881 39.282 50.7518C38.1546 50.1605 37.0451 49.5475 35.9337 48.9274C37.8226 48.8226 39.5388 48.1758 40.0399 46.3801C40.0992 46.174 39.8534 45.9565 39.6274 45.9577C37.4177 45.9888 35.4045 46.4894 33.6385 47.5391C33.6174 47.5531 33.6066 47.5721 33.5939 47.5839C32.6194 47.0105 31.646 46.4197 30.6898 45.8255C32.453 45.9195 34.1644 45.348 35.3818 44.2018C35.5381 44.0537 35.4733 43.7472 35.2341 43.6522C32.638 42.6499 30.0067 42.7164 27.6939 43.8672C26.4391 43.036 25.2074 42.1732 23.9889 41.2993C26.2544 41.4442 29.138 41.2455 28.9413 39.5829C28.8188 38.5297 27.2152 38.4272 26.355 38.3456C24.4246 38.1548 22.5895 38.4106 20.8631 39.0107C20.2059 38.5451 19.2508 37.9334 18.3253 37.2808C20.099 37.7032 21.9972 37.3399 23.4546 36.4866C23.7228 36.3254 23.7075 35.8988 23.3589 35.7585C21.0135 34.8139 18.8096 34.7943 16.5326 35.489C16.4183 35.5189 16.3385 35.589 16.3012 35.6737C15.8992 35.2988 15.5917 34.9314 15.4428 34.5976C15.4117 34.5232 15.3993 34.4515 15.3799 34.3826C18.7785 33.7011 22.2033 33.1048 25.6808 32.6342C32.6752 31.7006 39.7756 31.2364 46.8788 30.7791C48.4869 31.3273 50.0163 32.0127 51.471 32.8001C51.4116 32.8318 51.3482 32.874 51.3087 32.9336C50.0728 34.6643 49.9126 36.885 50.6642 38.9404C50.768 39.2111 51.1602 39.3239 51.4105 39.1845C53.2556 38.1303 54.197 36.1949 53.848 34.2325C54.9986 35.0084 56.0961 35.856 57.1076 36.7764C55.7262 38.3553 55.4958 40.6019 56.4783 42.5809C56.6065 42.8452 56.9958 42.9512 57.203 42.731C58.3189 41.6028 58.9444 40.0402 58.8178 38.4579C59.6037 39.2959 60.3389 40.1643 61.0015 41.0753C60.0962 41.4276 59.3849 42.0697 58.9764 42.8718C58.6814 43.4459 58.2029 44.9701 58.837 45.5746C59.6089 46.292 60.6359 45.3862 60.978 44.8576C61.4162 44.1711 61.7456 43.3736 61.9956 42.5627C62.4529 43.2883 62.8675 44.0412 63.2419 44.8047C61.9236 46.0351 61.0936 47.6929 60.7 49.3779C60.6264 49.6789 61.0068 49.9598 61.3234 49.8695C62.7378 49.4999 63.8805 48.4557 64.2411 47.1937C64.5182 47.9655 64.7638 48.7465 64.9597 49.5404C62.9022 50.0867 61.4876 51.6734 61.0528 53.5182C60.9791 53.8191 61.3389 54.0732 61.6444 54.001C63.2469 53.6239 64.6768 52.5957 65.3031 51.2311C65.3672 51.645 65.4312 52.0589 65.4793 52.477C65.3177 52.5031 65.1733 52.5902 65.1142 52.7545C64.7045 53.9885 64.7604 55.3569 65.3599 56.6163C65.6612 57.2499 66.2892 58.5352 67.2726 58.3275C68.3164 58.1126 68.2533 56.6797 68.1619 55.9419C68.0074 54.641 67.3416 53.4814 66.2839 52.5152C66.2051 52.4362 66.1167 52.4185 66.0278 52.4247C66.0117 52.1054 65.9609 51.7877 65.9345 51.4635C67.1265 52.7086 68.9568 53.3979 70.7174 53.4186C71.0066 53.417 71.1582 53.1707 71.0775 52.9356C70.3666 50.9104 67.9908 49.5678 65.7269 49.8616C65.737 49.7765 65.7069 49.6847 65.6515 49.6167C65.514 48.9403 65.3386 48.2823 65.1431 47.621C66.3465 48.4163 67.8967 48.7814 69.2946 48.6977C69.6222 48.6785 69.7876 48.3782 69.5981 48.1214C68.3666 46.4143 66.3849 45.2761 64.1961 45.0115C64.19 44.997 64.1804 44.9739 64.1743 44.9594C64.3182 44.7396 64.1581 44.5083 63.9314 44.4433C63.729 44.0238 63.5152 43.5997 63.2907 43.1946C64.5926 43.9224 66.153 44.2022 67.6076 43.971C67.9311 43.9196 67.9316 43.5306 67.718 43.3455C66.1885 42.0312 64.2765 40.5181 62.1431 40.8186C62.0473 40.7858 61.9435 40.7959 61.8725 40.8647C61.8725 40.8647 61.8641 40.8669 61.8609 40.8592C61.24 39.961 60.5356 39.1017 59.7974 38.2683C61.3013 38.7612 62.8797 38.8704 64.3923 38.5168C64.6653 38.454 64.702 38.1294 64.4949 37.9597C62.8034 36.5389 60.2915 35.6957 58.1638 36.3353C58.1151 36.348 58.0803 36.3742 58.0484 36.4072C58.0055 36.3691 57.957 36.34 57.8925 36.3151C57.0335 35.5209 56.1117 34.7677 55.1465 34.0676C56.6425 34.1737 58.0879 33.9202 59.4505 33.3819C59.7246 33.2771 59.8327 32.8846 59.4744 32.7459C57.3031 31.8725 54.988 31.7159 52.8382 32.3024C52.7398 32.3281 52.6868 32.3752 52.6482 32.4346C51.4978 31.7659 50.3039 31.1673 49.0494 30.6424C51.471 30.4895 53.8906 30.3295 56.3085 30.1453C60.775 29.806 65.2685 29.3771 69.7121 28.7868C70.7433 28.9318 71.742 29.1508 72.7214 29.408C72.2336 31.6479 73.8259 34.0887 76.2356 35.1644C76.5463 35.2985 76.8211 35.111 76.8249 34.8368C76.8168 33.0832 76.0952 31.4003 74.8148 30.0531C76.4326 30.6244 77.9914 31.3353 79.4901 32.1435C78.4837 34.3359 79.3515 36.9747 81.6095 38.5548C81.8671 38.736 82.2057 38.656 82.2717 38.3817C82.6544 36.7574 82.4797 34.9733 81.6436 33.3868C82.8789 34.149 84.0864 34.9764 85.2713 35.8344C84.3891 38.0854 85.2072 40.6053 87.2811 42.3739C87.506 42.5637 87.9235 42.5209 88.0274 42.2699C88.6648 40.671 88.4208 38.9373 87.438 37.4545C88.1034 37.9598 88.7626 38.4752 89.414 38.9917C90.0834 41.2431 92.5301 42.9067 95.1224 42.7917C95.4139 42.7734 95.5637 42.5028 95.3951 42.2737C94.3277 40.8718 93.229 39.5019 91.6495 38.7641C92.9252 38.6043 94.0914 38.0509 94.8588 37.1304C94.9918 36.9714 94.9108 36.7355 94.6682 36.6747C92.4233 36.1023 90.1653 36.2115 88.3879 37.4302C87.3416 36.5113 86.2635 35.6254 85.145 34.7747C87.0526 35.5842 89.2566 35.2984 90.7749 34.1561C91.0094 33.979 90.9672 33.6173 90.6148 33.5349C88.2669 32.9969 85.9701 32.9513 83.7217 33.4735C83.6318 33.497 83.5755 33.5363 83.5373 33.5966C83.045 33.2443 82.5488 32.9026 82.0418 32.5798C83.7449 32.4657 85.3029 31.7436 86.2634 30.4824C86.4317 30.2563 86.3365 29.9416 86.0013 29.8556C83.6887 29.2506 81.3837 29.5305 79.4959 30.6367C79.343 30.726 79.3075 30.8595 79.3448 30.9911C78.0615 30.3078 76.7324 29.7113 75.3548 29.2177C75.0315 29.0954 74.1538 28.9273 73.2552 28.7315C73.2215 28.7157 73.1823 28.7089 73.135 28.7051C72.7586 28.6299 72.3757 28.5393 72.0401 28.4525C80.1123 27.2534 87.9709 25.4148 95.1661 22.3998C95.3498 24.1408 96.7629 25.8497 98.7891 26.2896C99.0603 26.3515 99.3432 26.1609 99.3006 25.9074C99.0837 24.564 98.3968 23.2695 97.3139 22.2853C98.3589 22.3764 99.3918 22.5456 100.419 22.7903C99.7232 24.836 102.325 26.6318 104.132 27.6335C104.45 27.8074 104.811 27.5643 104.78 27.2736C104.636 25.6293 103.547 24.0017 101.886 23.1761C102.584 23.3911 103.28 23.6238 103.981 23.8874C103.995 24.008 104.072 24.1282 104.191 24.1967C105.433 26.473 108.739 27.4558 111.165 26.7051C111.453 26.6128 111.536 26.2685 111.278 26.0628C109.294 24.4861 106.888 22.8126 104.231 23.5318C104.215 23.5359 104.201 23.5481 104.185 23.5522C103.354 23.1481 102.518 22.8203 101.663 22.5552C103.73 22.7692 105.7 21.8397 106.513 20.2026C106.624 19.9915 106.427 19.6948 106.144 19.7109C104.514 19.8059 100.505 20.2409 100.607 22.2432C99.4078 21.9353 98.1999 21.7379 96.9627 21.622C99.3024 20.5552 101.563 19.3432 103.74 17.9791C105.048 20.3037 109.025 19.4636 110.971 18.8469C111.237 18.7686 111.37 18.4116 111.081 18.2214C109.9 17.4373 108.341 16.5519 106.86 16.3264C106.938 16.2974 107.011 16.2536 107.043 16.1788C107.052 16.1766 107.055 16.1843 107.062 16.1823C110.1 16.3076 111.277 13.2671 111.758 11.12C111.811 10.8749 111.524 10.6682 111.268 10.7266C108.654 11.3765 106.751 13.2481 106.293 15.6454C105.931 15.8644 105.555 16.0708 105.184 16.2909C106.163 14.6607 106.395 12.5701 105.556 10.7604C105.47 10.5762 105.187 10.4423 104.998 10.5753C104.255 11.1005 103.73 11.7519 103.37 12.4748C103.321 12.4457 103.257 12.4217 103.197 12.4289C101.826 12.5804 100.657 13.1013 99.7796 13.9102C99.9038 13.6207 100.039 13.3369 100.152 13.0428C100.215 12.8688 100.141 12.7145 100.006 12.6084C102.946 11.2433 100.984 6.42336 99.5306 4.40067C99.3673 4.16164 98.9564 4.17796 98.8432 4.40673C97.633 6.78516 96.2987 10.2309 99.3625 12.3289C99.2877 12.431 99.3274 12.5705 99.4226 12.6689C99.4173 12.6788 99.4099 12.6808 99.4043 12.6898C99.1082 13.306 98.8094 13.9133 98.5016 14.524C98.2414 12.8609 97.0142 11.2931 95.3235 10.4184C95.1287 10.3204 94.8354 10.4217 94.8197 10.625C94.669 12.6971 95.394 14.843 97.8034 15.8533ZM33.7827 5.03973C34.2289 3.41589 35.6277 2.31329 37.3627 1.66917C37.2412 3.44057 35.7739 4.83424 33.7827 5.03973ZM28.6085 3.21252C30.4369 4.93813 30.3562 7.19494 30.0294 9.34251C29.0686 7.34841 28.5776 5.30741 28.6085 3.21252ZM25.5532 7.44761C27.2046 9.22707 27.8438 11.4285 27.4 13.5327C27.2198 13.7951 27.0303 14.0599 26.8417 14.3245C25.3349 12.1753 24.8482 9.75188 25.5532 7.44761ZM27.7002 14.879C28.8442 12.7995 31.5542 12.8368 33.9564 13.2438C32.0525 14.3959 29.9262 14.9517 27.4964 15.065C27.5059 15.0454 27.5199 15.0342 27.5293 15.0146C27.5917 14.9898 27.6593 14.9551 27.7002 14.879ZM20.5058 13.7941C22.4998 15.5257 23.4414 17.7971 22.8083 20.1243C22.7467 20.2153 22.6899 20.2956 22.6282 20.3867C21.1749 18.3231 20.4576 16.1088 20.5058 13.7941ZM57.8926 6.13428C59.3936 7.66372 59.5849 9.65883 58.7462 11.3853C58.7311 11.4139 58.7193 11.4501 58.7234 11.4823C58.6656 11.431 58.5983 11.3992 58.5286 11.3843C58.5141 11.3719 58.5109 11.3642 58.497 11.3508C56.6583 9.84412 57.1186 7.81914 57.8926 6.13428ZM54.4537 11.9693C54.3945 11.6537 54.5067 11.5741 54.7933 11.7401C55.053 11.7548 55.2284 11.8911 55.3042 12.1369C55.582 12.4532 55.8142 13.0308 55.965 13.4135C56.2863 14.224 56.3858 15.0261 56.3903 15.8615C56.391 15.9278 56.4319 15.9835 56.4833 16.0194C56.4833 16.0194 56.4781 16.0293 56.481 16.0361C55.299 15.1603 53.8541 13.3107 54.4537 11.9693ZM24.088 20.1702C26.132 18.9407 28.4417 18.2792 31.0052 18.2049C29.4821 20.4412 26.5974 21.3526 23.588 20.9051C23.7424 20.6656 23.9078 20.4326 24.0697 20.1911C24.0785 20.1897 24.0837 20.1798 24.088 20.1702ZM17.0734 20.4469C18.3699 21.897 19.0998 23.5777 19.2339 25.3317C18.9714 25.7228 18.6976 26.1092 18.4346 26.5014C17.4315 24.5355 16.9943 22.5136 17.0734 20.4469ZM79.3221 9.8018C78.0567 8.29424 76.8911 6.63536 77.6433 4.89835C78.6955 5.69994 79.3246 6.66239 79.586 7.89358C79.6044 7.97983 79.6515 8.05008 79.7148 8.09232C79.3611 8.61542 79.2106 9.20965 79.3221 9.8018ZM83.7005 6.42933C83.4724 8.16218 82.2774 9.42684 80.4663 10.0406C80.3865 9.97891 80.2631 9.94475 80.1708 9.98499C79.2865 8.15396 82.0485 7.14281 83.7005 6.42933ZM58.0748 14.965C59.1465 14.5114 61.0809 14.776 62.4134 14.8167C61.3988 16.2742 59.5482 16.8157 57.5042 16.5721C57.7102 16.0459 57.9025 15.5071 58.0748 14.965ZM52.1969 15.3583C53.722 16.7486 54.4774 18.5972 54.1133 20.4396C52.3073 19.2222 52.1468 17.1688 52.1969 15.3583ZM19.9428 26.8528C21.5429 25.3419 23.7209 24.6067 26.1165 24.7593C24.642 26.4613 22.4014 27.0469 19.9428 26.8528ZM77.9945 14.7615C76.4382 13.4704 75.6132 11.8231 75.7236 10.0053C77.2348 11.2333 78.1233 12.9228 78.0501 14.656C78.0298 14.6945 78.0148 14.723 77.9945 14.7615ZM99.2685 5.36648C100.387 7.26056 101.524 10.3923 99.951 11.8801C97.4261 10.0719 98.2301 7.46003 99.2685 5.36648ZM49.9583 19.9187C51.2086 21.1741 51.6547 22.8047 51.0802 24.3379C51.0779 24.3546 51.0843 24.37 51.0829 24.3865C50.9884 24.4861 50.8988 24.575 50.8044 24.6746C49.8184 23.1196 49.4236 21.5249 49.9583 19.9187ZM55.8549 19.918C57.0142 19.4576 58.4057 19.5748 59.7614 19.8C58.5557 20.7782 56.9396 21.1674 55.2415 20.9235C55.4538 20.5863 55.6586 20.251 55.8549 19.918ZM75.8191 18.7999C73.9663 17.9922 73.4584 16.1045 73.1964 14.4173C74.7732 15.4545 75.7077 17.0154 75.8779 18.702C75.8652 18.7385 75.8426 18.7691 75.8191 18.7999ZM78.7045 15.2219C79.7178 13.9801 81.1361 13.0953 82.8128 12.6571C82.0275 14.1211 80.5583 15.0106 78.6843 15.2604C78.6895 15.2505 78.6909 15.234 78.7045 15.2219ZM71.9322 18.5324C72.4947 18.1207 72.58 18.9758 72.7767 19.4461C73.0069 19.974 73.1607 20.5381 73.2209 21.0943C73.2979 21.778 73.2169 22.429 73.0378 23.0639C72.8387 23.3483 72.6319 23.6338 72.4221 23.9125C72.0616 23.0952 71.7987 22.2704 71.6709 21.4008C71.56 20.6339 71.236 19.0368 71.9322 18.5324ZM98.0487 15.1603C96.5578 14.4155 95.1599 12.8098 95.4205 11.2838C96.7913 12.3502 97.6061 13.6028 98.0487 15.1603ZM52.4956 24.4896C53.1781 24.2781 53.879 24.1527 54.6512 24.133C55.0176 24.1198 55.5408 24.0912 55.9002 24.2126C56.3496 24.1368 56.5111 24.2844 56.3609 24.6632C56.4816 24.9295 56.4122 25.089 56.1551 25.1476C55.683 25.6684 54.0571 25.7709 53.3272 25.7624C52.7251 25.7538 52.1313 25.6359 51.5473 25.4992C51.8717 25.1668 52.1873 24.8358 52.4956 24.4896ZM76.7794 19.1455C76.8199 19.0685 76.8651 18.9827 76.9056 18.9058C78.3233 18.5438 79.7674 18.265 81.2401 18.0546C80.1129 19.1109 78.5088 19.3974 76.7794 19.1455ZM99.2481 15.5336C99.9308 14.2368 101.186 13.354 102.764 13.0741C102.479 13.8441 101.978 14.5137 101.229 14.9998C100.519 15.4499 99.773 15.5539 98.9642 15.7244C98.9793 15.6959 98.9897 15.676 98.9995 15.6573C99.0941 15.6649 99.2009 15.637 99.2481 15.5336ZM17.2232 36.0768C18.7731 35.6385 20.4405 35.6998 22.0567 36.1804C20.5839 36.7806 19.0254 36.7412 17.3471 36.3508C17.3099 36.2619 17.2607 36.1666 17.2232 36.0768ZM104.993 11.4814C105.356 13.3908 105.149 15.0851 104.121 16.7281C103.129 14.9423 103.554 12.7937 104.993 11.4814ZM107.19 15.5864C107.609 13.7458 108.908 12.2967 110.823 11.5808C110.174 13.3905 109.402 14.975 107.19 15.5864ZM95.5277 19.7613C94.0765 18.4181 93.2365 16.9065 93.4515 15.1448C94.8398 16.2731 95.6713 17.7195 95.818 19.3051C95.7165 19.4549 95.6247 19.6032 95.5277 19.7613ZM73.9418 23.1834C75.0348 22.045 76.9063 21.6801 78.65 21.489C77.5635 23.1645 75.6543 23.9784 73.3972 23.9631C73.4143 23.9169 73.4345 23.8784 73.4603 23.8309C73.6222 23.6141 73.7862 23.3976 73.9418 23.1834ZM98.7842 16.094C100.388 16.5447 101.98 15.623 102.868 14.4053C102.822 15.3365 103.021 16.3117 103.498 17.2552C101.067 18.5783 98.5609 19.7464 95.9879 20.7746C96.0391 20.7033 96.0797 20.6263 96.1319 20.5548C96.3459 20.6317 96.5974 20.5821 96.6095 20.3304C96.6125 20.1636 96.6074 19.9999 96.5903 19.8298C97.3904 18.62 98.1342 17.3822 98.7842 16.094ZM16.8498 37.3753C17.3415 38.8118 17.5617 40.27 16.6917 41.4668C16.5091 40.0737 16.5734 38.7318 16.8498 37.3753ZM104.511 17.5538C106.094 16.2619 108.25 17.2721 109.93 18.341C107.938 18.8702 106.101 19.0353 104.296 17.7762C104.396 17.7329 104.48 17.653 104.511 17.5538ZM21.7102 39.625C22.4794 39.3822 23.2801 39.2147 24.1212 39.1438C24.8907 39.0755 26.4653 38.9125 27.1981 39.2758C28.8848 40.1184 25.3656 40.4918 24.9388 40.5123C24.2035 40.5555 23.4719 40.4982 22.7354 40.3843C22.3915 40.1261 22.0456 39.8855 21.7102 39.625ZM21.2767 40.5835C21.2765 40.6252 21.2698 40.6763 21.2968 40.7186C22.2683 42.4775 22.7564 44.2954 22.6669 46.1409C21.1427 44.4942 20.742 42.4951 21.2767 40.5835ZM54.3835 33.5376C54.0774 33.3274 53.7641 33.12 53.4537 32.9194C55.0327 32.5731 56.6389 32.6171 58.2394 33.0601C57.0211 33.444 55.7277 33.5838 54.3835 33.5376ZM52.1939 33.3558C52.2194 33.3074 52.2284 33.2643 52.2402 33.228C52.5013 33.3751 52.7496 33.534 53.005 33.6902C53.3677 35.3597 52.7777 37.0297 51.3926 38.0784C50.9883 36.3961 51.3071 34.8131 52.1939 33.3558ZM95.9362 22.2138C96.0111 22.2188 96.0747 22.2193 96.1495 22.2244C97.2186 23.0462 97.9688 24.0349 98.2855 25.227C97.0157 24.5562 96.1236 23.4643 95.9362 22.2138ZM101.247 22.1338C101.43 20.9431 103.954 20.5156 105.47 20.4089C104.525 21.5342 103.12 22.0997 101.403 22.0758C101.34 22.0762 101.286 22.0989 101.247 22.1338ZM103.771 26.4768C102.442 25.6649 101.306 24.7687 100.958 23.4187C102.42 24.0715 103.479 25.1283 103.771 26.4768ZM75.9389 34.1644C74.2617 33.1704 73.396 31.5328 73.4298 29.8346C74.8727 31.0065 75.7465 32.5092 75.9389 34.1644ZM28.5107 44.4315C30.2773 43.6217 32.3324 43.482 34.3324 44.0776C33.0049 45.1123 31.2117 45.4235 29.4365 45.0176C29.1293 44.8247 28.824 44.6389 28.5253 44.4438C28.5224 44.437 28.5224 44.437 28.5107 44.4315ZM79.9871 31.2596C81.5124 30.3724 83.2905 30.0898 85.1367 30.4268C84.0415 31.4084 82.6485 31.9384 81.0136 31.9351C80.8684 31.8488 80.7284 31.7526 80.5757 31.6682C80.3568 31.5348 80.1242 31.4135 79.8925 31.2919C79.9215 31.2767 79.9575 31.2758 79.9871 31.2596ZM58.9236 37.3195C58.7986 37.1947 58.6769 37.0776 58.552 36.9528C60.2788 36.7661 61.9633 36.9974 63.4137 37.9682C61.9415 38.1129 60.4631 37.9198 59.024 37.3436C58.9904 37.3277 58.9544 37.3286 58.9236 37.3195ZM104.933 24.1602C106.865 23.8545 108.617 24.9618 110.13 26.1313C108.172 26.4362 106.284 25.5877 104.933 24.1602ZM57.7406 37.3555C57.8393 37.4625 57.9486 37.5497 58.0558 37.6545C58.2052 39.1397 57.9261 40.5122 56.9981 41.6995C56.4717 40.1553 56.7581 38.6064 57.7406 37.3555ZM80.0697 32.4559C80.178 32.5187 80.2886 32.5893 80.4083 32.6567C80.4147 32.6721 80.4156 32.6966 80.4249 32.7188C81.389 34.3307 81.8461 35.9006 81.5883 37.5824C80.0435 36.1896 79.4269 34.2383 80.0697 32.4559ZM27.9341 45.1124C30.0356 46.3854 30.1934 48.5391 30.1663 50.4916C28.3754 49.0967 27.6134 47.1009 27.9341 45.1124ZM84.323 34.1434C84.2829 34.1122 84.2376 34.0908 84.1979 34.0604C85.9713 33.6795 87.8051 33.6393 89.6333 33.9981C88.1445 34.7762 86.2995 34.7699 84.5557 34.0912C84.445 34.0451 84.3615 34.084 84.323 34.1434ZM34.3504 48.0236C35.8201 47.2421 37.3682 46.7796 39.1158 46.6624C38.4297 48.1251 36.6013 48.3298 34.8724 48.3178C34.6967 48.2233 34.5292 48.1258 34.3504 48.0236ZM62.284 41.4932C62.2892 41.4833 62.2892 41.4833 62.286 41.4756C63.9195 41.3466 65.3283 42.2627 66.529 43.2901C65.1318 43.291 63.8226 42.8715 62.6456 42.0523C62.5311 41.8678 62.4064 41.6765 62.284 41.4932ZM61.4558 41.7267C61.459 41.7344 61.4651 41.749 61.4716 41.7644C61.2762 42.229 61.0803 42.6947 60.862 43.1492C60.6588 43.5751 60.2451 44.8841 59.5316 44.9795C59.2822 43.5782 60.0991 42.3213 61.4558 41.7267ZM37.0467 53.8866C35.5959 52.4351 34.7093 50.8371 34.1883 48.9605C35.9809 50.1235 36.679 52.0534 37.0467 53.8866ZM85.7935 36.6408C87.1809 37.9182 87.7409 39.6272 87.3463 41.2205C86.1168 39.8857 85.599 38.2577 85.7935 36.6408ZM39.9914 51.1213C40.9154 49.6211 42.8423 48.8272 44.8142 49.1817C43.5077 50.244 42.031 50.7704 40.2239 51.1355C40.172 51.1405 40.1485 51.1713 40.1306 51.193C40.0853 51.1717 40.0367 51.1427 39.9914 51.1213ZM88.9678 37.9397C90.4223 37.0796 92.178 36.6786 93.9804 37.0602C92.8179 37.9029 91.48 38.3265 89.895 38.2684C89.8445 38.2569 89.8024 38.2433 89.7557 38.2384C89.7281 38.2371 89.7145 38.2492 89.6901 38.2555C89.576 38.2436 89.4684 38.2471 89.3439 38.2303C89.3355 38.2325 89.3312 38.2422 89.3144 38.2466C89.2075 38.1427 89.0834 38.0423 88.9678 37.9397ZM40.0403 51.7374C40.1192 51.7746 40.2098 51.8173 40.2888 51.8546C40.292 51.8623 40.2949 51.8691 40.2981 51.8768C41.5901 53.0132 42.5915 54.5404 42.9218 56.1102C41.5201 54.8631 40.5689 53.4138 40.0403 51.7374ZM63.6262 45.6565C63.6481 45.7087 63.6699 45.7609 63.6917 45.813C63.6049 47.0366 63.0249 48.1243 61.8974 48.7254C62.3015 47.6096 62.8905 46.6105 63.6262 45.6565ZM89.9563 39.0236C89.9864 38.9664 89.9802 38.8845 89.9322 38.8145C91.8654 38.8803 93.3813 40.5965 94.4049 42.0677C92.4652 41.8547 90.735 40.6669 89.9563 39.0236ZM64.8546 46.6853C64.7541 46.3805 64.6293 46.0821 64.5125 45.7806C66.0569 46.0893 67.4337 46.8222 68.4492 47.9483C67.135 47.8868 65.9894 47.4236 64.8546 46.6853ZM49.2851 54.3409C47.6364 54.6722 45.7324 54.8056 44.5644 53.4215C46.1832 53.1056 47.8744 53.4177 49.2851 54.3409ZM65.844 50.6335C65.8431 50.6091 65.8367 50.5937 65.8349 50.5695C67.5345 50.3823 69.2571 51.2241 70.0311 52.6201C68.4281 52.4519 67.0309 51.7148 65.844 50.6335ZM62.1606 52.9545C62.6328 51.763 63.6073 50.9032 64.8899 50.3697C64.2798 51.5147 63.4315 52.4156 62.1606 52.9545ZM66.0195 53.18C66.488 53.7784 66.8559 54.4193 67.063 55.1107C67.1591 55.4499 67.5919 57.3742 66.9214 57.3759C66.4609 57.3805 65.918 55.3446 65.8823 55.13C65.7688 54.4464 65.8371 53.8072 66.0195 53.18Z" fill="#4D504F" fill-opacity="0.7"/>
</svg>
