<svg width="271" height="295" viewBox="0 0 271 295" fill="none" xmlns="http://www.w3.org/2000/svg">
<g filter="url(#filter0_b_325_11717)">
<path d="M92.2151 84.5665C93.7546 84.4059 95.2517 84.2694 96.7863 84.1569C94.9481 85.5707 93.7272 87.4217 93.4063 89.4684C93.3614 89.7591 93.6612 89.9654 94.0222 89.8652C97.0967 88.9783 99.8076 86.6034 100.02 83.9618C100.746 83.9311 101.463 83.8796 102.188 83.8483C111.428 88.5218 119.59 94.3562 127.144 100.72C125.984 100.806 124.411 100.84 122.748 100.858C121.328 97.8686 117.121 96.3369 113.131 97.0299C112.766 97.0899 112.43 97.4609 112.716 97.7233C114.034 98.9433 115.417 100.116 117.045 100.845C115.502 100.836 114.309 100.836 113.891 100.861C113.739 100.878 113.577 100.902 113.416 100.913C112.706 98.3312 109.506 96.7296 106.213 96.8352C105.682 96.8524 105.616 97.3844 105.891 97.613C107.401 98.894 109 100.076 110.679 101.196C109.354 101.355 108.031 101.525 106.719 101.73C104.864 99.3953 101.158 98.5446 97.7424 99.3391C97.3462 99.4298 97.3135 99.8559 97.5676 100.033C99.2604 101.226 101.191 101.97 103.345 102.308C101.58 102.63 99.8251 102.984 98.0835 103.385C95.7475 101.356 91.4315 101.213 88.497 102.957C88.2036 103.138 88.2161 103.506 88.5515 103.619C90.3927 104.216 91.9872 105.372 94.0083 105.636C92.3674 106.844 91.3408 108.347 91.0047 110.103C90.9528 110.415 91.2265 110.603 91.5851 110.592C95.9185 110.53 97.9803 106.827 98.964 103.966C98.977 103.91 98.9737 103.87 98.9611 103.823C100.423 103.562 101.896 103.333 103.362 103.112C101.282 104.409 99.9557 106.32 99.8678 108.491C99.8575 108.676 100.112 108.751 100.297 108.702C103.593 107.805 106.2 105.401 106.704 102.665C108.046 102.505 109.398 102.378 110.743 102.259C108.638 103.771 107.573 105.85 107.656 108.104C107.663 108.39 108.084 108.507 108.37 108.347C111.182 106.766 114.095 104.765 113.887 102.018C115.303 101.919 116.728 101.852 118.157 101.799C117.413 102.139 116.701 102.55 116.062 103.036C115.329 103.6 113.093 105.411 113.924 106.344C114.669 107.169 117.029 106.039 117.793 105.738C120.158 104.792 122.139 103.43 123.731 101.73C125.318 101.741 126.899 101.774 128.491 101.853C134.266 106.816 139.687 112.062 144.972 117.323C146.047 118.399 147.138 119.473 148.221 120.542C145.842 119.969 143.397 119.547 140.922 119.257C140.737 117.845 139.885 116.554 138.64 115.584C137.779 114.928 135.522 113.537 134.103 114.21C132.047 115.177 134.218 117.395 136.245 118.893C134.843 118.834 133.428 118.831 132.017 118.87C131.071 116.429 128.515 114.757 125.212 114.523C124.78 114.489 124.338 114.843 124.52 115.192C125.249 116.647 126.128 118.174 127.539 119.159C126.349 119.288 125.161 119.445 123.986 119.648C123.35 116.819 119.582 115.211 116.1 115.72C115.567 115.799 115.393 116.288 115.75 116.569C116.767 117.365 117.891 119.459 119.402 120.638C118.17 120.969 116.93 121.336 115.722 121.762C115.696 121.771 115.672 121.794 115.648 121.804C115.726 121.597 115.638 121.361 115.311 121.343C111.436 121.138 107.95 123.795 107.331 126.801C107.269 127.08 107.546 127.337 107.913 127.303C111.589 126.868 115.763 125.794 116.68 122.455C116.686 122.421 116.676 122.401 116.682 122.367C118.145 122.016 119.594 121.708 121.046 121.428C121.124 121.44 121.211 121.445 121.288 121.457C120.064 122.102 119.017 122.926 118.198 123.921C117.668 124.566 116.34 126.258 117.847 126.639C119.116 126.959 121.102 125.766 121.998 125.103C123.477 124.008 124.429 122.548 124.618 120.993C124.623 120.944 124.611 120.898 124.607 120.858C126.091 120.648 127.562 120.495 129.036 120.383C126.624 121.607 124.957 123.541 124.589 125.865C124.547 126.094 124.816 126.331 125.123 126.209C128.375 124.887 131.839 123.214 132.329 120.188C133.749 120.143 135.155 120.14 136.557 120.185C134.397 121.136 132.824 122.759 132.278 124.776C132.213 125.043 132.501 125.304 132.84 125.253C136.167 124.734 139.304 123.056 140.705 120.476C143.801 120.794 146.891 121.364 149.964 122.229C158.71 130.68 167.762 138.701 177.552 146.186C174.394 147.082 169.214 146.548 166.67 146.587C165.676 143.143 161.347 141.07 156.967 141.18C156.607 141.191 156.281 141.595 156.439 141.851C157.851 144.22 160.2 145.887 163.215 146.69C160.693 146.768 158.167 146.831 155.654 146.914C154.315 143.029 149.297 140.706 144.18 141.25C143.703 141.302 143.457 141.745 143.705 142.045C145.481 144.252 147.833 145.946 150.67 147.082C148.668 147.15 146.668 147.231 144.669 147.299C144.659 147.28 144.656 147.253 144.646 147.233C142.793 144.197 139.415 142.226 135.302 141.405C134.84 141.313 134.365 141.8 134.548 142.135C135.668 144.188 137.012 146.449 139.309 147.494C137.702 147.559 136.085 147.606 134.47 147.666C134.29 147.665 134.11 147.678 133.922 147.684C131.151 146.732 128.934 145.315 127.224 143.382C130.251 143.898 132.395 145.369 134.11 147.459C134.196 147.566 134.336 147.592 134.47 147.564C134.682 147.534 134.882 147.356 134.798 147.16C133.421 144.29 129.94 142.623 126.153 142.333C125.669 142.289 125.345 142.735 125.577 143.05C127.082 145.082 129.125 146.68 131.634 147.784C130.086 147.851 128.539 147.904 126.994 147.983C126.874 147.88 126.699 147.831 126.5 147.921C126.426 147.949 126.341 147.973 126.267 148.001C124.19 145.575 119.606 145.092 116.475 147.056C116.197 147.223 116.108 147.601 116.414 147.771C119.299 149.387 123.437 150.389 126.866 148.617C128.684 148.611 130.499 148.577 132.316 148.57C128.933 149.859 125.549 151.673 125.289 154.885C125.268 155.153 125.56 155.469 125.95 155.311C129.631 153.778 132.705 151.738 135.229 149.064C135.402 148.881 135.395 148.684 135.297 148.532C136.626 148.517 137.968 148.486 139.304 148.464C136.421 149.794 134.244 152.001 133.295 154.641C133.203 154.89 133.527 155.175 133.848 155.114C138.527 154.249 142.463 151.857 144.655 148.38C146.924 148.331 149.199 148.274 151.475 148.216C148.371 149.673 146.229 152.197 145.997 155.134C145.99 155.36 146.364 155.538 146.614 155.428C150.564 153.723 153.645 151.356 155.903 148.253C155.941 148.201 155.946 148.153 155.96 148.111C158.039 148.055 160.108 147.993 162.187 147.937C159.887 149.477 158.217 151.485 157.316 153.874C157.189 154.201 157.684 154.495 158.058 154.352C161.914 152.856 165.031 150.716 167.6 147.954C167.655 147.9 167.685 147.843 167.705 147.778C171.547 147.667 175.388 147.569 179.228 147.457C185.377 152.072 191.809 156.472 198.668 160.635C199.571 161.191 200.754 160.047 199.875 159.467C193.399 155.154 186.908 150.869 180.689 146.351C181.04 145.194 181.331 144.037 181.639 142.879C181.75 142.976 181.925 143.026 182.135 142.982C184.967 142.285 187.485 141.091 189.756 139.521C190.04 139.333 190.123 138.873 189.695 138.778C186.742 138.103 184.22 139.244 182.143 140.889C182.449 139.601 182.738 138.315 183 137.026C187.259 136.582 190.898 133.602 191.737 130.224C191.825 129.846 191.343 129.497 190.885 129.676C187.927 130.816 185.446 132.341 183.462 134.404C183.821 132.306 184.138 130.205 184.368 128.101C188.618 127.243 191.535 124.129 191.761 120.716C191.781 120.332 191.2 120.252 190.853 120.412C188.384 121.561 185.908 122.949 184.657 124.933C184.769 123.263 184.864 121.61 184.907 119.948C185.013 119.991 185.144 120.011 185.3 119.932C188.633 118.24 190.883 115.247 191.413 112.209C191.463 111.884 190.991 111.566 190.618 111.825C188.299 113.442 185.991 115.104 184.953 117.29C184.938 115.846 184.905 114.404 184.829 112.96C187.798 111.198 189.724 108.472 190.064 105.605C190.104 105.246 189.61 104.876 189.189 105.182C187.026 106.719 185.494 108.318 184.642 110.367C184.588 109.602 184.551 108.85 184.472 108.095C184.733 107.944 184.847 107.658 184.532 107.482C184.487 107.452 184.451 107.429 184.414 107.406C184.413 107.378 184.41 107.351 184.408 107.325C184.406 107.298 184.395 107.279 184.386 107.26C186.275 104.79 183.625 102.392 181.436 100.892C181.109 100.668 180.594 100.874 180.501 101.198C179.769 103.876 181 106.64 183.757 108.071C183.844 109.242 183.882 110.417 183.917 111.592C182.391 109.816 179.705 108.751 176.989 108.549C176.6 108.516 176.291 108.83 176.393 109.126C177.388 111.84 180.351 113.583 183.979 113.386C184.008 114.774 183.993 116.16 183.97 117.552C182.414 115.949 180.242 114.856 177.396 115.595C177.067 115.679 176.952 116.039 177.122 116.239C178.816 118.175 181.01 119.627 183.774 120.499C183.809 120.509 183.843 120.506 183.869 120.509C183.808 121.75 183.722 123.001 183.618 124.239C182.43 122.616 180.365 121.477 177.878 121.155C177.557 121.114 177.184 121.373 177.232 121.647C177.792 124.606 179.849 126.892 183.162 128.182C182.955 129.84 182.688 131.499 182.395 133.154C180.902 131.052 178.474 128.63 176.332 129.9C174.974 130.702 176.031 132.19 176.562 133.005C177.742 134.84 179.465 136.296 181.581 137.429C181.431 138.318 181.303 139.566 181.096 140.816C180.352 138.967 178.434 137.526 176.17 136.798C175.748 136.667 175.172 136.961 175.239 137.362C175.692 140.061 177.311 142.025 179.969 143.584C180.096 143.665 180.252 143.69 180.396 143.667C180.181 144.27 179.905 144.784 179.556 145.136C179.477 145.212 179.388 145.271 179.307 145.333C175.83 142.773 172.45 140.134 169.204 137.365C162.693 131.788 156.748 125.807 150.811 119.819C150.364 118.034 150.165 116.229 150.162 114.422C150.25 114.454 150.355 114.482 150.467 114.478C153.772 114.432 156.949 113.11 159.216 111.091C159.511 110.82 159.374 110.399 158.995 110.269C156.165 109.33 152.798 109.772 150.357 111.374C150.565 109.844 150.912 108.314 151.423 106.812C154.629 106.994 157.893 105.718 159.883 103.544C160.151 103.257 160.006 102.842 159.548 102.804C157.162 102.559 154.543 103.035 152.46 104.19C153.026 102.942 153.672 101.719 154.431 100.532C155.592 101.101 157.008 101.308 158.417 101.141C159.428 101.024 161.883 100.443 162.241 99.4835C162.652 98.3275 160.638 98.015 159.655 98.0604C158.382 98.1248 157.039 98.3586 155.736 98.6715C156.393 97.7886 157.119 96.9254 157.89 96.0909C160.569 96.4474 163.471 96.09 166.085 95.3282C166.554 95.1951 166.656 94.6732 166.296 94.4524C164.73 93.4437 162.439 93.12 160.432 93.6321C161.288 92.8783 162.179 92.1463 163.125 91.4497C165.415 92.9115 168.656 93.1185 171.52 92.288C171.989 92.1549 172.07 91.6689 171.742 91.4461C170.026 90.2758 167.542 89.6872 165.196 90.0317C165.718 89.7023 166.24 89.373 166.779 89.0549C166.936 89.1808 167.164 89.2513 167.434 89.1953C169.439 88.745 171.281 87.794 172.566 86.4333C173.213 85.7491 174.513 84.3463 173.492 83.6124C172.417 82.8299 170.491 83.8299 169.544 84.3969C167.869 85.3908 166.77 86.7443 166.231 88.3173C166.181 88.4391 166.223 88.5291 166.297 88.6037C165.87 88.8283 165.471 89.0827 165.044 89.3197C165.867 87.444 165.448 85.3693 164.162 83.7968C163.943 83.5418 163.491 83.57 163.228 83.7962C160.971 85.7601 160.898 88.7481 162.994 90.5589C162.87 90.606 162.766 90.6931 162.714 90.787C161.885 91.3544 161.111 91.9432 160.346 92.552C160.542 90.9626 159.886 89.3495 158.726 88.167C158.455 87.8896 157.918 87.941 157.706 88.278C156.277 90.4931 156.191 92.9975 157.462 95.1098C157.447 95.1247 157.422 95.1485 157.407 95.1635C156.997 95.1808 156.798 95.475 156.878 95.7185C156.452 96.1741 156.028 96.6428 155.638 97.1086C155.667 95.4764 154.886 93.9104 153.481 92.7749C153.168 92.5223 152.633 92.7782 152.537 93.0893C151.871 95.3094 151.217 97.9992 153.225 99.69C153.251 99.7964 153.343 99.8818 153.49 99.8992C153.49 99.8992 153.5 99.9052 153.491 99.9132C152.719 101.055 152.063 102.244 151.467 103.447C151.022 101.791 149.993 100.322 148.376 99.2153C148.085 99.015 147.611 99.1963 147.532 99.4915C146.84 101.925 147.557 104.705 150.027 106.167C150.081 106.202 150.143 106.215 150.212 106.222C150.192 106.285 150.188 106.347 150.202 106.421C149.75 107.704 149.403 109.017 149.16 110.333C148.188 108.938 146.759 107.826 145 106.974C144.651 106.8 144.03 106.963 144.107 107.372C144.527 109.87 146.041 112.022 148.455 113.539C148.564 113.61 148.668 113.625 148.779 113.62C148.718 115.08 148.786 116.531 149.001 117.988C146.981 115.944 144.953 113.907 142.893 111.888C139.088 108.157 135.141 104.461 131.008 100.916C130.437 99.9076 129.992 98.8791 129.614 97.8425C133.062 96.7986 135.232 93.7806 134.912 90.9384C134.864 90.5749 134.401 90.4552 134.021 90.6325C131.613 91.7951 129.835 93.5427 128.938 95.5639C128.515 93.7552 128.329 91.9067 128.322 90.0473C132.092 89.4938 135.075 86.9869 135.563 83.9467C135.62 83.5992 135.257 83.3521 134.83 83.4744C132.308 84.2058 129.983 85.536 128.424 87.3215C128.55 85.7256 128.787 84.1114 129.083 82.497C132.84 81.795 135.697 79.4104 136.582 76.4089C136.675 76.0848 136.305 75.7433 135.882 75.8167C133.204 76.3058 131 77.6642 129.694 79.5113C129.892 78.5892 130.109 77.666 130.333 76.7489C132.932 74.6729 133.394 71.4105 131.298 69.1912C131.055 68.9451 130.571 68.9909 130.381 69.2911C129.249 71.1598 128.185 73.0352 128.349 74.9196C127.176 73.8955 125.543 73.2276 123.703 73.1547C123.384 73.1417 123.12 73.3688 123.218 73.6237C124.107 75.9884 125.945 77.9156 128.95 78.6863C128.467 80.218 128.053 81.7563 127.718 83.307C127.407 81.0848 125.367 79.3217 122.66 78.7301C122.241 78.6391 121.775 78.9148 121.925 79.2812C122.939 81.7143 124.592 83.7779 126.991 85.4245C127.09 85.4886 127.186 85.5126 127.298 85.5067C127.181 86.1746 127.081 86.8391 127.016 87.5007C125.586 86.0679 123.428 85.1643 120.974 85.1449C120.537 85.1448 120.175 85.4365 120.308 85.79C121.203 88.236 123.31 90.0924 126.244 91.035C126.481 91.1115 126.691 91.055 126.844 90.9352C126.863 92.5217 127.035 94.0914 127.384 95.6363C127.458 96.0032 127.882 96.8909 128.284 97.8155C128.287 97.8558 128.307 97.895 128.338 97.9394C128.515 98.3222 128.677 98.7209 128.808 99.0752C121.126 92.7184 112.723 86.972 103.197 82.5881C105.456 81.2784 106.752 78.9014 105.844 76.8176C105.726 76.5367 105.253 76.4118 104.936 76.6166C103.249 77.6937 101.98 79.1548 101.434 80.762C100.779 79.7768 100.24 78.7507 99.8093 77.6801C103.145 76.9482 103.673 73.4616 103.701 71.2016C103.703 70.8054 103.099 70.6463 102.722 70.8654C100.566 72.0756 99.1392 74.1123 99.2438 76.1267C99.0184 75.3672 98.8187 74.5978 98.6582 73.8039C98.8137 73.712 98.9214 73.5644 98.9267 73.4138C101.132 70.8144 100.015 67.2399 97.1683 65.5865C96.8264 65.3926 96.29 65.5455 96.2001 65.9099C95.5125 68.7056 95.006 71.9376 97.9817 73.8166C97.9993 73.828 98.0262 73.8321 98.0438 73.8435C98.1084 74.8454 98.2822 75.8019 98.5561 76.7334C97.3061 74.7625 94.5548 73.6307 91.6942 73.9898C91.3204 74.0305 91.0591 74.4003 91.2929 74.6403C92.6417 76.021 96.2358 79.2836 98.9159 77.8742C99.388 79.1387 100.019 80.3383 100.784 81.5099C97.5672 80.1414 94.21 78.9388 90.7051 77.9093C92.9275 75.2198 88.7999 72.2527 86.4969 70.9361C86.1901 70.7516 85.5998 70.8698 85.5535 71.2505C85.3567 72.8127 85.3029 74.7764 86.0995 76.2367C86.0011 76.1865 85.8862 76.1506 85.7592 76.1714C85.7499 76.1654 85.7581 76.1575 85.7498 76.1522C83.6523 73.3802 78.5873 74.341 75.2727 75.3298C74.8962 75.445 74.8261 75.8353 75.0979 76.0236C77.9455 77.9095 81.9431 78.3606 85.5853 77.1869C86.1576 77.3635 86.7227 77.5605 87.3024 77.7434C84.3272 77.951 81.276 79.1228 79.412 81.0579C79.223 81.2558 79.2498 81.5941 79.5746 81.6743C80.8522 81.9858 82.1416 82.0219 83.4053 81.864C83.4016 81.9261 83.4164 81.9986 83.4715 82.0473C84.704 83.161 86.2948 83.8531 88.0638 84.097C87.5726 84.1778 87.0812 84.2454 86.592 84.3393C86.3051 84.3979 86.148 84.5649 86.1027 84.7542C82.0268 83.0504 76.8582 87.9631 75.1603 90.583C74.9534 90.8851 75.2828 91.2382 75.6823 91.1877C79.8604 90.6921 85.6003 89.6031 86.199 85.5082C86.3953 85.5072 86.5577 85.3801 86.622 85.231C86.6396 85.2291 86.6479 85.2344 86.6645 85.2334C87.7339 85.0896 88.7931 84.954 89.8637 84.8241C87.7689 86.1502 86.5279 88.2698 86.5872 90.343C86.5978 90.58 86.9564 90.7729 87.248 90.6529C90.2127 89.421 92.6247 87.3653 92.2151 84.5665ZM125.167 148.373C122.599 149.048 120.036 148.536 117.853 147.424C120.382 146.365 123.396 146.745 125.167 148.373ZM126.518 154.158C127.527 151.402 130.694 149.987 133.894 148.861C131.867 151.026 129.425 152.805 126.518 154.158ZM134.631 154.073C135.846 151.438 138.399 149.422 141.627 148.428C142.122 148.415 142.629 148.408 143.134 148.401C141.301 151.151 138.329 153.179 134.631 154.073ZM143.255 147.276C139.538 147.633 137.565 145.209 136.33 142.814C139.338 143.74 141.692 145.257 143.664 147.333C143.63 147.338 143.604 147.333 143.57 147.337C143.489 147.299 143.391 147.262 143.255 147.276ZM147.138 154.36C148.031 151.454 150.454 149.123 154.131 148.151C154.302 148.145 154.455 148.143 154.626 148.137C152.872 150.784 150.36 152.878 147.138 154.36ZM108.659 126.306C109.642 123.969 112.246 122.485 115.249 122.09C115.299 122.085 115.358 122.071 115.399 122.047C115.372 122.132 115.378 122.212 115.41 122.284C115.404 122.305 115.396 122.312 115.387 122.334C114.687 124.954 111.556 125.881 108.659 126.306ZM119.26 125.506C118.87 125.766 118.676 125.719 118.691 125.356C118.517 125.117 118.573 124.872 118.855 124.643C119.083 124.188 119.705 123.602 120.119 123.216C120.994 122.398 122.024 121.781 123.171 121.227C123.261 121.183 123.307 121.11 123.318 121.041C123.318 121.041 123.336 121.039 123.343 121.032C123.021 122.655 121.554 125.153 119.26 125.506ZM153.238 146.987C150.018 145.988 147.382 144.379 145.364 142.158C149.58 142.033 152.99 143.987 154.623 146.946C154.178 146.967 153.733 146.974 153.28 146.99C153.272 146.983 153.254 146.985 153.238 146.987ZM158.86 153.016C159.887 150.912 161.655 149.159 163.969 147.884C164.704 147.859 165.44 147.847 166.177 147.821C164.22 150.005 161.764 151.724 158.86 153.016ZM97.6947 104.916C96.5651 107.03 95.1526 109.155 92.1997 109.633C92.5168 108.174 93.3715 106.983 94.8709 105.94C94.9759 105.867 95.0374 105.779 95.0482 105.695C96.0326 105.664 96.963 105.405 97.6947 104.916ZM89.7811 103.262C92.3367 102.322 94.9704 102.547 97.1684 103.746C97.1432 103.857 97.1884 103.989 97.3127 104.044C95.4531 106.034 91.9975 104.254 89.7811 103.262ZM120.678 120.326C119.253 119.676 118.172 117.789 117.232 116.583C119.996 116.521 122.124 117.802 123.316 119.772C122.438 119.937 121.553 120.121 120.678 120.326ZM125.611 125.271C126.385 123.005 128.365 121.118 131.173 120.226C130.847 122.628 128.141 124.123 125.611 125.271ZM165.533 146.254C162.258 145.833 159.619 144.389 158.039 142.168C161.483 142.352 163.963 143.95 165.533 146.254ZM105.514 102.824C104.899 105.053 103.248 106.868 100.664 107.968C101.225 105.821 102.886 103.921 105.327 102.844C105.395 102.837 105.445 102.831 105.514 102.824ZM76.6856 90.1787C78.457 87.9405 81.9179 84.8701 85.1415 85.2829C84.5391 88.7097 80.3432 89.7187 76.6856 90.1787ZM133.561 124.248C134.355 122.314 136.266 120.845 138.806 120.343C138.83 120.334 138.847 120.319 138.871 120.309C139.078 120.327 139.268 120.348 139.475 120.366C138.072 122.263 136.171 123.663 133.561 124.248ZM129.154 119.028C127.654 118.305 126.776 116.996 126.073 115.647C128.32 116.07 130.063 117.245 130.997 118.909C130.374 118.943 129.759 118.983 129.154 119.028ZM112.698 102.089C112.97 104.262 110.752 105.955 108.625 107.299C108.874 105.219 110.325 103.364 112.519 102.102C112.579 102.089 112.638 102.089 112.698 102.089ZM105.617 101.892C103.15 101.813 100.873 101.14 99.0167 99.9445C101.619 99.6752 103.941 100.39 105.685 101.885C105.667 101.886 105.644 101.896 105.617 101.892ZM115.234 105.707C114.247 105.48 115.36 104.841 115.861 104.357C116.415 103.805 117.077 103.298 117.797 102.878C118.681 102.359 119.638 102.002 120.645 101.742C121.186 101.731 121.733 101.726 122.273 101.728C121.418 102.586 120.479 103.362 119.377 104.048C118.405 104.652 116.448 105.991 115.234 105.707ZM91.078 84.8059C91.1668 86.6166 90.0011 88.9122 87.7058 89.687C88.1495 87.7706 89.2647 86.2239 91.078 84.8059ZM137.957 118.99C137.156 118.525 136.46 117.987 135.855 117.317C135.563 117.001 135.133 116.557 135.032 116.159C134.592 115.81 134.674 115.57 135.308 115.454C135.584 115.171 135.855 115.128 136.128 115.317C137.198 115.392 138.554 116.764 139.088 117.415C139.526 117.954 139.807 118.558 140.055 119.165C139.355 119.097 138.664 119.035 137.957 118.99ZM112.456 101.011C112.32 101.026 112.168 101.043 112.032 101.058C110.474 100.041 109.011 98.946 107.621 97.7806C109.918 98.0827 111.51 99.3142 112.456 101.011ZM90.6956 83.498C88.4005 83.748 86.2476 83.2186 84.6828 82.0052C85.9562 81.751 87.2517 81.7528 88.4809 82.0961C89.6306 82.4277 90.3313 83.02 91.1704 83.6236C91.1198 83.6291 91.0847 83.6329 91.0516 83.6365C90.9913 83.5478 90.8731 83.4717 90.6956 83.498ZM180.262 142.585C178.501 141.501 177.339 139.985 176.793 138.237C178.72 139.146 179.83 140.552 180.547 142.295C180.452 142.386 180.358 142.493 180.262 142.585ZM80.8251 81.0813C83.1819 79.5017 85.6694 78.5694 88.6985 78.3965C86.9818 80.4515 83.7066 81.4907 80.8251 81.0813ZM84.8339 76.4315C81.9873 77.2733 79.0223 77.0785 76.6062 75.8547C79.5821 75.237 82.3394 74.8758 84.8339 76.4315ZM99.2948 84.0063C98.5302 86.1763 97.0773 87.916 94.4917 88.8863C95.0073 86.9137 96.377 85.2245 98.4499 84.0499C98.732 84.0411 99.0046 84.0247 99.2948 84.0063ZM120.134 100.863C117.751 100.646 115.85 99.229 114.284 97.811C117.402 97.6691 119.949 98.8232 121.614 100.832C121.538 100.847 121.47 100.854 121.385 100.863C120.966 100.862 120.545 100.86 120.134 100.863ZM91.8136 83.5395C91.2356 81.8227 88.7775 81.0205 86.4376 81.0363C87.7536 80.4635 88.9473 79.6447 89.8898 78.601C93.5273 79.8816 97.0079 81.3308 100.346 82.9314C100.209 82.9329 100.073 82.9478 99.9356 82.9487C99.8815 82.7086 99.6253 82.5186 99.2698 82.6737C99.038 82.7809 98.8165 82.8933 98.5951 83.0205C96.332 83.1092 94.0724 83.2662 91.8136 83.5395ZM182.328 142.06C183.938 140.678 185.781 139.522 188.078 139.504C186.297 140.584 184.402 141.411 182.328 142.06ZM89.5437 77.5071C86.5829 76.9572 86.3626 74.383 86.5783 72.1908C88.7951 73.6058 90.3948 75.1231 90.0109 77.5515C89.8763 77.4912 89.7036 77.4694 89.5437 77.5071ZM181.793 136.274C180.884 135.753 180.056 135.155 179.329 134.457C178.661 133.821 177.26 132.534 177.212 131.646C177.112 129.597 180.255 132.467 180.602 132.831C181.211 133.454 181.679 134.139 182.073 134.866C181.974 135.341 181.901 135.806 181.793 136.274ZM183.437 136.027C183.494 135.999 183.57 135.972 183.608 135.92C185.303 133.901 187.44 132.271 190.048 131.134C188.92 133.569 186.467 135.241 183.437 136.027ZM149.001 111.357C148.94 111.767 148.889 112.181 148.844 112.588C147.188 111.418 146.048 109.967 145.462 108.258C146.901 109.084 148.06 110.137 149.001 111.357ZM150.386 113.416C150.301 113.425 150.235 113.446 150.176 113.459C150.183 113.131 150.217 112.806 150.241 112.477C152.268 111.056 155.007 110.478 157.486 111.014C155.472 112.48 153.055 113.241 150.386 113.416ZM102.365 82.0289C102.316 81.9592 102.269 81.9027 102.221 81.833C102.553 80.345 103.353 79.0294 104.758 77.9636C104.783 79.5297 103.947 81.039 102.365 82.0289ZM98.2871 77.3796C96.5116 78.0025 94.0365 76.0487 92.7576 74.7775C95.0123 74.8725 96.8407 75.7441 98.0902 77.2792C98.138 77.3349 98.2095 77.3678 98.2871 77.3796ZM102.379 72.2835C102.254 73.9948 101.87 75.5916 100.271 76.7887C100.078 75.0644 100.741 73.4303 102.379 72.2835ZM133.757 91.8599C133.642 93.9997 132.035 95.8452 129.672 96.9342C130.207 94.8846 131.623 93.1209 133.757 91.8599ZM183.328 127.087C180.893 126.056 179.165 124.329 178.491 122.165C180.907 122.659 182.675 124.042 183.443 125.881C183.407 126.28 183.379 126.673 183.334 127.066C183.327 127.073 183.327 127.073 183.328 127.087ZM126.734 90.1897C124.373 89.4238 122.655 88.0357 121.74 86.1791C123.909 86.502 125.68 87.3861 126.897 88.8358C126.886 89.0212 126.859 89.2086 126.856 89.3993C126.836 89.6811 126.843 89.967 126.849 90.2522C126.806 90.2365 126.778 90.2052 126.734 90.1897ZM150.814 104.846C150.736 105.039 150.665 105.224 150.587 105.417C149.04 104.011 148.099 102.367 148.352 100.443C149.651 101.651 150.49 103.087 150.772 104.741C150.775 104.781 150.803 104.813 150.814 104.846ZM98.3218 72.7808C96.4577 71.2719 96.6731 68.9915 97.1518 66.8808C99.0346 68.4134 99.2777 70.6446 98.3218 72.7808ZM151.747 105.87C151.821 105.712 151.859 105.558 151.923 105.394C153.856 104.283 155.954 103.626 158.282 103.665C156.549 105.148 154.203 105.915 151.747 105.87ZM128.319 89.3283C128.324 89.1911 128.339 89.0466 128.342 88.8963C128.359 88.8804 128.392 88.8636 128.415 88.8407C129.914 86.9251 131.733 85.486 134.241 84.6061C133.478 86.8915 131.253 88.723 128.319 89.3283ZM184.696 127.148C184.878 124.449 187.725 122.891 190.433 121.628C189.851 124.133 187.673 126.122 184.696 127.148ZM127.464 84.4507C127.451 84.5068 127.455 84.561 127.443 84.6162C125.593 83.2971 124.168 81.6999 123.296 79.8449C125.479 80.6504 126.849 82.2881 127.218 84.2792C127.237 84.4075 127.353 84.4558 127.464 84.4507ZM183.909 119.55C181.735 118.763 179.942 117.697 178.475 116.227C181.001 115.871 182.649 117.355 183.924 118.894C183.925 119.111 183.916 119.324 183.909 119.55ZM154.048 99.1208C154.03 99.1227 154.03 99.1227 154.022 99.1306C152.624 97.7694 152.832 95.9185 153.349 94.1785C154.395 95.4149 154.795 96.8504 154.547 98.4323C154.379 98.6552 154.209 98.8917 154.048 99.1208ZM154.988 99.7002C154.996 99.6923 155.012 99.6773 155.028 99.6615C155.814 99.5283 156.601 99.3949 157.39 99.2887C158.128 99.188 160.239 98.6918 160.903 99.2606C159.161 100.405 156.82 100.51 154.988 99.7002ZM189.965 113.299C189.051 115.54 187.514 117.378 185.32 119.076C185.581 116.723 187.716 114.833 189.965 113.299ZM129.802 81.5034C130.524 79.4333 132.458 77.8115 134.946 77.1111C134.027 79.0792 132.173 80.6102 129.802 81.5034ZM183.958 112.514C181.203 112.685 178.67 111.502 177.684 109.522C180.123 109.979 181.951 110.94 183.804 112.299C183.849 112.342 183.909 112.342 183.953 112.344C183.957 112.398 183.953 112.46 183.958 112.514ZM129.218 77.8371C126.948 77.116 125.084 75.8258 124.262 73.9785C126.291 74.4527 127.874 75.358 128.978 76.7997C129 76.8519 129.013 76.8982 129.041 76.9428C129.06 76.9681 129.086 76.9721 129.113 76.9895C129.182 77.0984 129.268 77.1914 129.337 77.3126C129.347 77.3186 129.363 77.3161 129.382 77.3281C129.319 77.4912 129.273 77.6672 129.218 77.8371ZM184.769 112.065C184.762 111.971 184.753 111.862 184.745 111.768C184.753 111.76 184.76 111.753 184.769 111.745C185.367 109.852 186.721 107.959 188.635 106.633C187.966 108.695 186.682 110.492 184.769 112.065ZM158.776 95.1893C158.831 95.1356 158.887 95.082 158.942 95.0283C160.691 94.299 162.622 94.0957 164.292 94.698C162.454 95.0754 160.639 95.2122 158.776 95.1893ZM129.972 76.2478C129.871 76.2589 129.762 76.3183 129.702 76.4069C128.348 74.6519 129.578 72.1791 130.838 70.3035C131.994 72.1612 131.652 74.4757 129.972 76.2478ZM159.274 93.424C158.93 93.7138 158.612 94.0209 158.284 94.3229C157.555 92.7521 157.535 91.0503 158.327 89.4093C159.224 90.6134 159.442 91.9328 159.274 93.424ZM181.445 102.165C183.133 103.406 184.739 105.004 183.707 106.95C182.063 105.725 181.229 104.022 181.445 102.165ZM163.969 89.9466C163.936 89.9635 163.92 89.9794 163.888 89.9969C162.36 88.6154 162.232 86.5357 163.575 84.9306C164.541 86.4607 164.571 88.1834 163.969 89.9466ZM169.916 91.6786C167.923 92.0455 166.012 91.7492 164.319 90.9652C166.351 90.7509 168.225 90.9085 169.916 91.6786ZM167.343 88.1134C167.817 87.3043 168.424 86.5564 169.221 85.9175C169.616 85.6089 171.942 83.9578 172.445 84.5504C172.795 84.955 170.399 86.7772 170.13 86.9501C169.274 87.501 168.343 87.8616 167.343 88.1134Z" fill="#4D504F" fill-opacity="0.3"/>
</g>
<path d="M130.473 256.782C130.754 257.245 131.036 257.691 131.339 258.141C131.599 257.303 132.216 256.534 133.138 255.969C133.269 255.888 133.44 255.923 133.475 256.046C133.76 257.102 133.235 258.405 131.998 259.079C132.152 259.287 132.294 259.497 132.448 259.705C136.879 261.168 141.624 262.062 146.484 262.666C146.256 262.325 145.906 261.882 145.527 261.419C143.74 261.724 142.013 260.918 141.42 259.655C141.364 259.54 141.466 259.36 141.661 259.378C142.563 259.458 143.456 259.567 144.191 259.847C143.826 259.422 143.549 259.093 143.463 258.971C143.436 258.926 143.41 258.875 143.378 258.828C141.955 259.234 140.429 258.723 139.712 257.789C139.597 257.638 139.841 257.496 140.016 257.519C140.992 257.637 141.941 257.803 142.878 258.006C142.646 257.603 142.42 257.198 142.214 256.788C140.645 256.819 139.366 255.994 138.957 254.865C138.909 254.735 139.109 254.626 139.254 254.655C140.23 254.845 141.043 255.204 141.709 255.721C141.455 255.158 141.218 254.591 141.007 254.016C139.474 253.844 138.398 252.685 138.563 251.468C138.584 251.344 138.765 251.262 138.899 251.328C139.619 251.698 140.554 251.869 141.154 252.365C141.359 251.63 141.852 250.996 142.629 250.494C142.769 250.407 142.924 250.439 143.002 250.541C143.982 251.752 142.66 253.185 141.495 254.124C141.471 254.141 141.451 254.149 141.425 254.156C141.639 254.621 141.871 255.081 142.105 255.538C142.252 254.661 142.873 253.849 143.91 253.319C143.998 253.273 144.094 253.325 144.113 253.388C144.444 254.508 143.881 255.788 142.666 256.565C142.901 256.973 143.155 257.377 143.41 257.776C143.656 256.842 144.42 256.063 145.537 255.56C145.678 255.496 145.834 255.584 145.822 255.701C145.708 256.846 145.412 258.118 144.026 258.701C144.308 259.115 144.607 259.524 144.914 259.931C144.907 259.646 144.941 259.354 145.029 259.064C145.132 258.73 145.494 257.69 146.141 257.702C146.717 257.715 146.717 258.631 146.748 258.912C146.839 259.786 146.638 260.651 146.181 261.487C146.556 261.923 146.941 262.352 147.35 262.773C151.114 263.212 154.933 263.486 158.728 263.72C159.502 263.766 160.28 263.817 161.053 263.867C160.219 263.343 159.444 262.766 158.726 262.15C157.995 262.428 157.167 262.494 156.405 262.376C155.884 262.291 154.681 261.992 154.677 261.443C154.669 260.649 156.256 260.732 157.458 260.943C157.102 260.569 156.771 260.179 156.461 259.78C155.051 260.088 153.641 259.771 152.757 258.913C152.639 258.802 152.709 258.598 152.922 258.567C153.8 258.429 154.749 258.316 155.557 258.476C155.343 258.117 155.143 257.752 154.967 257.38C153.441 257.864 151.78 257.198 151.216 256.117C151.13 255.952 151.327 255.79 151.548 255.823C152.172 255.918 153.454 255.741 154.381 255.883C154.255 255.465 154.145 255.037 154.07 254.604C154.069 254.595 154.074 254.583 154.074 254.574C153.991 254.644 153.856 254.674 153.771 254.588C152.767 253.566 153.248 251.983 154.568 251.112C154.69 251.029 154.88 251.046 154.949 251.155C155.594 252.272 156.044 253.676 154.631 254.707C154.616 254.717 154.604 254.719 154.589 254.728C154.759 255.214 154.947 255.687 155.149 256.153C155.173 256.172 155.196 256.194 155.219 256.213C155.248 255.724 155.405 255.243 155.699 254.785C155.89 254.488 156.404 253.727 156.941 254.054C157.393 254.33 157.275 255.157 157.161 255.559C156.972 256.223 156.483 256.826 155.77 257.241C155.747 257.254 155.722 257.261 155.702 257.27C155.945 257.728 156.214 258.171 156.503 258.604C156.537 257.652 157.09 256.741 158.136 256.097C158.238 256.032 158.416 256.051 158.428 256.165C158.542 257.371 158.535 258.718 157.176 259.559C157.485 259.962 157.811 260.351 158.16 260.728C158.119 259.909 158.543 259.096 159.398 258.475C159.513 258.395 159.708 258.414 159.762 258.519C160.285 259.559 160.199 260.817 159.269 261.806C160.145 262.587 161.143 263.308 162.281 263.955C168.437 264.401 174.454 265.031 180.382 265.991C180.082 264.909 178.614 263.603 178.04 262.891C176.131 263.419 174.112 262.707 173.144 261.471C173.066 261.369 173.187 261.185 173.348 261.169C174.831 261.007 176.191 261.267 177.285 261.913C176.735 261.198 176.177 260.485 175.631 259.772C173.427 260.307 171.125 259.463 170.197 257.922C170.111 257.778 170.27 257.607 170.474 257.606C171.963 257.582 173.336 257.837 174.551 258.356C174.117 257.787 173.691 257.215 173.257 256.647C173.246 256.649 173.232 256.654 173.22 256.656C171.309 256.852 169.562 256.379 168.203 255.434C168.05 255.328 168.177 255.083 168.383 255.055C169.644 254.886 171.058 254.73 172.103 255.121C171.76 254.662 171.406 254.204 171.058 253.744C171.016 253.695 170.98 253.642 170.94 253.589C169.83 253.045 168.623 252.763 167.283 252.741C168.24 253.457 169.456 253.706 170.874 253.693C170.946 253.692 170.991 253.724 171.009 253.768C171.044 253.833 171.003 253.93 170.889 253.953C169.169 254.241 167.546 253.668 166.522 252.69C166.388 252.566 166.529 252.373 166.737 252.364C168.077 252.306 169.332 252.497 170.455 252.933C170.126 252.49 169.791 252.05 169.47 251.605C169.392 251.596 169.327 251.559 169.324 251.483C169.321 251.456 169.313 251.427 169.309 251.4C167.643 251.392 166.339 250.238 166.566 248.915C166.582 248.8 166.746 248.687 166.9 248.731C168.36 249.152 169.812 250.061 169.749 251.422C170.17 251.925 170.576 252.435 170.997 252.938C170.836 251.703 170.93 250.345 172.434 249.525C172.56 249.457 172.782 249.464 172.796 249.608C172.908 250.982 172.63 252.307 171.916 253.628C171.868 253.718 171.77 253.762 171.673 253.771C171.975 254.141 172.274 254.519 172.574 254.893C172.55 253.787 173.118 252.671 174.182 251.793C174.282 251.71 174.496 251.733 174.541 251.836C175.211 253.33 174.963 254.975 173.781 256.391C174.286 257.029 174.789 257.671 175.291 258.313C175.277 257.117 176.007 255.936 177.383 255.188C177.492 255.133 177.666 255.195 177.671 255.289C177.761 256.778 177.326 258.181 176.341 259.528C176.325 259.551 176.303 259.563 176.285 259.577C176.743 260.165 177.195 260.75 177.653 261.338C177.866 260.344 178.455 259.414 179.409 258.608C179.538 258.497 179.797 258.565 179.815 258.702C179.985 260.116 179.669 261.476 178.923 262.829C178.909 262.857 178.889 262.879 178.862 262.899C179.703 263.987 180.551 265.071 181.392 266.157C185.073 266.78 188.716 267.531 192.342 268.456C192.824 268.575 192.543 269.169 192.055 269.061C188.444 268.278 184.844 267.484 181.194 266.819C180.712 267.186 180.217 267.536 179.724 267.891C179.797 267.899 179.862 267.936 179.89 268.004C180.211 268.949 180.216 269.923 179.981 270.916C179.955 271.039 179.751 271.169 179.605 271.073C178.588 270.414 178.555 269.451 178.872 268.494C178.316 268.879 177.757 269.258 177.19 269.632C177.967 270.912 177.364 272.612 175.914 273.631C175.751 273.744 175.468 273.692 175.449 273.524C175.315 272.44 175.479 271.399 176.021 270.37C175.083 270.959 174.134 271.536 173.162 272.09C173.735 273.464 172.899 274.996 171.289 275.854C171.107 275.95 170.932 275.808 170.929 275.674C170.913 274.725 171.012 273.717 171.686 272.909C170.899 273.329 170.117 273.74 169.317 274.14C169.363 274.159 169.403 274.191 169.401 274.252C169.354 275.567 168.42 276.887 167.064 277.741C166.917 277.831 166.653 277.775 166.692 277.612C166.939 276.594 167.21 275.569 168.033 274.772C167.326 275.105 166.616 275.432 165.895 275.748C165.729 276.978 164.85 278.146 163.533 278.909C163.368 279.003 163.072 278.953 163.123 278.766C163.367 277.81 163.789 277.013 164.589 276.3C164.203 276.464 163.828 276.629 163.442 276.783C163.43 276.891 163.317 276.989 163.158 276.943C163.133 276.937 163.113 276.933 163.093 276.928C163.079 276.934 163.066 276.939 163.052 276.945C163.039 276.951 163.027 276.952 163.015 276.954C162.253 278.052 160.467 277.879 159.226 277.624C159.041 277.586 159.021 277.395 159.157 277.294C160.291 276.468 161.924 276.163 163.264 276.591C163.855 276.342 164.436 276.079 165.016 275.815C163.795 275.807 162.65 275.313 161.919 274.61C161.812 274.51 161.893 274.352 162.061 274.311C163.614 273.953 165.155 274.365 165.904 275.414C166.587 275.098 167.259 274.771 167.932 274.44C166.788 274.384 165.749 274.038 165.446 273.08C165.41 272.97 165.558 272.854 165.695 272.854C167.033 272.871 168.252 273.138 169.321 273.698C169.334 273.706 169.341 273.716 169.348 273.722C169.938 273.416 170.528 273.101 171.107 272.784C170.039 272.834 169.003 272.529 168.266 271.917C168.171 271.838 168.21 271.674 168.355 271.623C169.927 271.088 171.52 271.124 172.92 271.738C173.68 271.294 174.426 270.834 175.164 270.367C173.792 270.445 172.046 270.338 172.165 269.451C172.239 268.889 173.21 268.834 173.731 268.79C174.9 268.688 176.011 268.825 177.056 269.145C177.454 268.897 178.032 268.57 178.593 268.222C177.519 268.447 176.369 268.253 175.487 267.798C175.325 267.712 175.334 267.484 175.545 267.409C176.965 266.905 178.299 266.894 179.678 267.265C179.747 267.281 179.795 267.319 179.818 267.364C180.061 267.164 180.248 266.968 180.338 266.789C180.357 266.75 180.364 266.711 180.376 266.675C178.318 266.311 176.245 265.992 174.139 265.741C169.904 265.243 165.606 264.995 161.305 264.751C160.331 265.043 159.405 265.409 158.525 265.83C158.561 265.847 158.599 265.869 158.623 265.901C159.371 266.825 159.468 268.011 159.013 269.108C158.95 269.252 158.713 269.313 158.561 269.238C157.444 268.675 156.874 267.642 157.085 266.594C156.389 267.009 155.724 267.461 155.112 267.953C155.948 268.796 156.088 269.995 155.493 271.051C155.415 271.193 155.18 271.249 155.054 271.132C154.379 270.529 154 269.695 154.077 268.85C153.601 269.298 153.156 269.761 152.754 270.248C153.303 270.436 153.733 270.779 153.981 271.207C154.159 271.513 154.449 272.327 154.065 272.65C153.598 273.033 152.976 272.549 152.769 272.267C152.503 271.9 152.304 271.475 152.153 271.042C151.876 271.429 151.625 271.831 151.398 272.239C152.196 272.896 152.699 273.781 152.937 274.68C152.982 274.841 152.751 274.991 152.56 274.943C151.703 274.745 151.011 274.188 150.793 273.514C150.625 273.926 150.477 274.343 150.358 274.767C151.604 275.059 152.46 275.906 152.723 276.89C152.768 277.051 152.55 277.187 152.365 277.148C151.395 276.947 150.529 276.398 150.15 275.669C150.111 275.89 150.073 276.111 150.043 276.335C150.141 276.349 150.229 276.395 150.264 276.483C150.512 277.142 150.479 277.872 150.116 278.545C149.933 278.883 149.553 279.569 148.958 279.458C148.326 279.343 148.364 278.578 148.419 278.184C148.513 277.49 148.916 276.871 149.556 276.355C149.604 276.313 149.657 276.303 149.711 276.307C149.721 276.136 149.752 275.967 149.768 275.794C149.046 276.458 147.938 276.826 146.872 276.837C146.697 276.836 146.605 276.705 146.654 276.579C147.084 275.498 148.523 274.782 149.893 274.938C149.887 274.893 149.906 274.844 149.939 274.808C150.022 274.446 150.129 274.095 150.247 273.742C149.518 274.167 148.58 274.362 147.733 274.317C147.535 274.307 147.435 274.146 147.55 274.009C148.295 273.098 149.495 272.49 150.82 272.349C150.824 272.341 150.83 272.329 150.834 272.321C150.746 272.204 150.843 272.08 150.981 272.046C151.103 271.822 151.233 271.595 151.368 271.379C150.58 271.768 149.636 271.917 148.755 271.794C148.559 271.766 148.559 271.558 148.688 271.46C149.614 270.758 150.772 269.95 152.063 270.111C152.121 270.093 152.184 270.098 152.227 270.135C152.227 270.135 152.232 270.136 152.234 270.132C152.61 269.653 153.037 269.194 153.483 268.749C152.573 269.012 151.617 269.07 150.702 268.882C150.536 268.848 150.514 268.675 150.639 268.584C151.664 267.826 153.184 267.376 154.473 267.717C154.502 267.724 154.523 267.738 154.542 267.755C154.568 267.735 154.598 267.72 154.637 267.706C155.157 267.282 155.715 266.88 156.299 266.506C155.394 266.563 154.518 266.428 153.693 266.14C153.528 266.084 153.462 265.875 153.679 265.801C154.994 265.335 156.395 265.251 157.697 265.564C157.756 265.578 157.789 265.603 157.812 265.635C158.508 265.278 159.231 264.958 159.991 264.678C158.525 264.596 157.06 264.511 155.596 264.412C152.892 264.231 150.171 264.002 147.481 263.687C146.856 263.765 146.252 263.881 145.659 264.019C145.954 265.215 144.99 266.518 143.531 267.092C143.343 267.164 143.177 267.063 143.174 266.917C143.179 265.981 143.616 265.082 144.391 264.363C143.412 264.668 142.468 265.048 141.561 265.479C142.17 266.65 141.645 268.058 140.277 268.902C140.121 268.999 139.916 268.956 139.876 268.81C139.645 267.942 139.751 266.99 140.257 266.143C139.509 266.55 138.778 266.992 138.06 267.45C138.595 268.651 138.099 269.997 136.844 270.941C136.707 271.042 136.455 271.019 136.392 270.885C136.006 270.032 136.154 269.106 136.749 268.315C136.346 268.584 135.947 268.859 135.552 269.135C135.147 270.337 133.666 271.225 132.096 271.164C131.92 271.154 131.829 271.01 131.931 270.887C132.577 270.139 133.243 269.408 134.199 269.014C133.426 268.928 132.72 268.633 132.256 268.142C132.175 268.057 132.224 267.931 132.371 267.898C133.73 267.593 135.097 267.651 136.174 268.302C136.807 267.811 137.46 267.338 138.137 266.884C136.982 267.316 135.648 267.164 134.728 266.554C134.586 266.459 134.612 266.266 134.825 266.222C136.247 265.935 137.637 265.91 138.999 266.189C139.053 266.202 139.087 266.223 139.11 266.255C139.408 266.067 139.709 265.884 140.016 265.712C138.985 265.651 138.041 265.266 137.46 264.592C137.358 264.472 137.416 264.304 137.618 264.258C139.019 263.935 140.414 264.084 141.557 264.675C141.65 264.722 141.671 264.794 141.649 264.864C142.426 264.499 143.23 264.181 144.064 263.917C144.26 263.852 144.791 263.762 145.336 263.658C145.356 263.649 145.38 263.646 145.408 263.644C145.636 263.603 145.868 263.555 146.071 263.509C141.184 262.869 136.426 261.887 132.07 260.277C131.958 261.207 131.103 262.119 129.876 262.354C129.712 262.387 129.541 262.285 129.566 262.15C129.698 261.433 130.114 260.742 130.769 260.216C130.137 260.265 129.511 260.355 128.889 260.486C129.311 261.578 127.735 262.537 126.641 263.071C126.449 263.164 126.23 263.034 126.249 262.879C126.336 262.001 126.995 261.133 128.001 260.692C127.578 260.807 127.157 260.931 126.733 261.072C126.724 261.136 126.678 261.2 126.606 261.237C125.854 262.452 123.852 262.977 122.383 262.576C122.209 262.527 122.158 262.343 122.315 262.233C123.516 261.391 124.972 260.498 126.581 260.882C126.591 260.884 126.599 260.89 126.609 260.893C127.112 260.677 127.618 260.502 128.136 260.36C126.885 260.475 125.692 259.978 125.2 259.104C125.133 258.992 125.252 258.833 125.423 258.842C126.41 258.893 128.837 259.125 128.776 260.194C129.502 260.029 130.233 259.924 130.982 259.862C129.565 259.293 128.197 258.646 126.878 257.917C126.087 259.158 123.679 258.71 122.501 258.381C122.339 258.339 122.259 258.148 122.434 258.047C123.149 257.628 124.093 257.155 124.99 257.035C124.943 257.019 124.898 256.996 124.879 256.956C124.874 256.955 124.872 256.959 124.867 256.958C123.028 257.025 122.315 255.402 122.024 254.255C121.992 254.125 122.166 254.014 122.321 254.045C123.904 254.392 125.055 255.392 125.333 256.671C125.552 256.788 125.78 256.898 126.004 257.016C125.412 256.146 125.271 255.03 125.779 254.063C125.831 253.965 126.002 253.894 126.117 253.965C126.567 254.245 126.885 254.593 127.103 254.979C127.132 254.963 127.171 254.95 127.207 254.954C128.037 255.035 128.745 255.313 129.276 255.745C129.201 255.59 129.12 255.439 129.051 255.282C129.013 255.189 129.058 255.107 129.139 255.05C127.359 254.321 128.547 251.748 129.427 250.668C129.526 250.541 129.775 250.549 129.843 250.671C130.576 251.941 131.384 253.781 129.529 254.901C129.574 254.955 129.55 255.03 129.493 255.082C129.496 255.088 129.5 255.089 129.504 255.093C129.683 255.422 129.864 255.747 130.05 256.073C130.208 255.185 130.951 254.348 131.974 253.881C132.092 253.829 132.27 253.883 132.279 253.991C132.371 255.097 131.932 256.243 130.473 256.782ZM169.234 251.009C168.964 250.142 168.117 249.554 167.066 249.21C167.14 250.156 168.028 250.9 169.234 251.009ZM172.367 250.034C171.26 250.955 171.308 252.16 171.506 253.306C172.088 252.242 172.385 251.152 172.367 250.034ZM174.216 252.295C173.217 253.245 172.83 254.42 173.098 255.543C173.207 255.684 173.322 255.825 173.436 255.966C174.349 254.819 174.643 253.525 174.216 252.295ZM172.917 256.262C172.224 255.152 170.583 255.172 169.129 255.389C170.281 256.004 171.569 256.301 173.04 256.362C173.034 256.351 173.026 256.345 173.02 256.335C172.982 256.321 172.941 256.303 172.917 256.262ZM177.272 255.683C176.065 256.607 175.495 257.82 175.878 259.062C175.916 259.111 175.95 259.154 175.987 259.203C176.867 258.101 177.302 256.919 177.272 255.683ZM154.637 251.594C153.728 252.41 153.612 253.475 154.12 254.397C154.129 254.412 154.136 254.432 154.134 254.449C154.169 254.421 154.209 254.404 154.252 254.396C154.26 254.39 154.262 254.386 154.271 254.379C155.384 253.574 155.105 252.493 154.637 251.594ZM156.719 254.709C156.755 254.54 156.687 254.498 156.513 254.586C156.356 254.594 156.25 254.667 156.204 254.798C156.036 254.967 155.895 255.276 155.804 255.48C155.609 255.913 155.549 256.341 155.546 256.787C155.546 256.822 155.521 256.852 155.49 256.871C155.49 256.871 155.493 256.876 155.491 256.88C156.207 256.412 157.082 255.425 156.719 254.709ZM175.104 259.087C173.866 258.431 172.468 258.077 170.916 258.038C171.838 259.232 173.584 259.718 175.406 259.479C175.313 259.351 175.213 259.227 175.115 259.098C175.109 259.097 175.106 259.092 175.104 259.087ZM179.351 259.235C178.566 260.009 178.124 260.906 178.042 261.843C178.201 262.051 178.367 262.258 178.526 262.467C179.134 261.417 179.398 260.338 179.351 259.235ZM141.662 253.552C142.428 252.747 143.134 251.861 142.679 250.934C142.042 251.362 141.661 251.876 141.503 252.533C141.491 252.579 141.463 252.616 141.425 252.639C141.639 252.918 141.73 253.236 141.662 253.552ZM139.011 251.751C139.15 252.676 139.873 253.351 140.97 253.679C141.018 253.646 141.093 253.628 141.148 253.649C141.684 252.672 140.012 252.132 139.011 251.751ZM154.526 256.308C153.878 256.066 152.706 256.207 151.9 256.229C152.514 257.007 153.634 257.296 154.872 257.166C154.747 256.885 154.631 256.598 154.526 256.308ZM158.085 256.518C157.162 257.26 156.704 258.247 156.925 259.231C158.018 258.581 158.115 257.485 158.085 256.518ZM177.613 262.655C176.645 261.848 175.326 261.456 173.875 261.537C174.768 262.446 176.125 262.758 177.613 262.655ZM142.466 256.199C143.408 255.51 143.908 254.631 143.841 253.66C142.926 254.316 142.388 255.218 142.432 256.143C142.445 256.164 142.454 256.179 142.466 256.199ZM129.586 251.184C128.909 252.195 128.22 253.867 129.173 254.661C130.701 253.696 130.215 252.301 129.586 251.184ZM159.441 258.953C158.684 259.623 158.413 260.494 158.761 261.312C158.763 261.321 158.759 261.329 158.76 261.338C158.817 261.391 158.871 261.439 158.928 261.492C159.525 260.662 159.764 259.81 159.441 258.953ZM155.87 258.952C155.169 258.707 154.326 258.769 153.505 258.889C154.235 259.412 155.214 259.619 156.242 259.489C156.113 259.309 155.989 259.13 155.87 258.952ZM143.783 258.355C144.905 257.924 145.213 256.916 145.371 256.016C144.416 256.569 143.851 257.403 143.748 258.303C143.755 258.323 143.769 258.339 143.783 258.355ZM142.036 256.445C141.423 255.782 140.564 255.31 139.549 255.076C140.024 255.858 140.914 256.332 142.049 256.466C142.045 256.461 142.045 256.452 142.036 256.445ZM146.137 258.213C145.796 257.993 145.744 258.449 145.625 258.7C145.486 258.982 145.393 259.283 145.356 259.58C145.31 259.945 145.359 260.293 145.467 260.632C145.588 260.784 145.713 260.936 145.84 261.085C146.058 260.649 146.217 260.208 146.295 259.744C146.362 259.335 146.558 258.482 146.137 258.213ZM130.324 256.412C131.227 256.015 132.073 255.158 131.916 254.343C131.086 254.912 130.592 255.581 130.324 256.412ZM157.904 261.393C157.491 261.28 157.067 261.213 156.599 261.203C156.377 261.196 156.061 261.18 155.843 261.245C155.571 261.205 155.473 261.283 155.564 261.486C155.491 261.628 155.533 261.713 155.689 261.744C155.975 262.022 156.959 262.077 157.401 262.073C157.765 262.068 158.125 262.005 158.478 261.932C158.282 261.755 158.091 261.578 157.904 261.393ZM143.202 258.54C143.177 258.499 143.15 258.453 143.125 258.412C142.267 258.219 141.393 258.07 140.501 257.958C141.184 258.521 142.155 258.674 143.202 258.54ZM129.598 256.612C129.185 255.919 128.425 255.448 127.469 255.299C127.642 255.71 127.945 256.067 128.399 256.327C128.829 256.567 129.28 256.622 129.77 256.714C129.761 256.698 129.755 256.688 129.749 256.678C129.691 256.682 129.627 256.667 129.598 256.612ZM179.26 267.579C178.321 267.345 177.312 267.378 176.333 267.634C177.225 267.955 178.169 267.934 179.185 267.725C179.207 267.678 179.237 267.627 179.26 267.579ZM126.12 254.448C125.9 255.468 126.026 256.372 126.648 257.249C127.249 256.296 126.991 255.149 126.12 254.448ZM124.79 256.64C124.536 255.657 123.75 254.884 122.591 254.501C122.983 255.468 123.45 256.313 124.79 256.64ZM131.851 258.869C132.729 258.152 133.238 257.345 133.108 256.404C132.267 257.006 131.764 257.779 131.675 258.625C131.736 258.705 131.792 258.784 131.851 258.869ZM144.92 260.696C144.258 260.088 143.125 259.893 142.069 259.791C142.727 260.686 143.883 261.12 145.25 261.112C145.239 261.087 145.227 261.067 145.211 261.041C145.113 260.926 145.014 260.81 144.92 260.696ZM129.879 256.911C128.908 257.151 127.944 256.659 127.406 256.009C127.434 256.506 127.314 257.027 127.025 257.531C128.497 258.237 130.014 258.861 131.572 259.41C131.541 259.372 131.517 259.331 131.485 259.292C131.355 259.333 131.203 259.307 131.196 259.173C131.194 259.084 131.197 258.996 131.207 258.905C130.723 258.259 130.273 257.599 129.879 256.911ZM179.486 268.272C179.188 269.039 179.055 269.818 179.582 270.457C179.692 269.713 179.653 268.996 179.486 268.272ZM126.412 257.69C125.454 257 124.148 257.54 123.131 258.11C124.337 258.393 125.449 258.481 126.542 257.809C126.481 257.786 126.431 257.743 126.412 257.69ZM176.543 269.473C176.077 269.344 175.593 269.254 175.083 269.216C174.618 269.18 173.664 269.093 173.221 269.287C172.199 269.737 174.33 269.936 174.588 269.947C175.034 269.97 175.477 269.94 175.922 269.879C176.131 269.741 176.34 269.612 176.543 269.473ZM176.806 269.985C176.806 270.007 176.81 270.035 176.793 270.057C176.205 270.996 175.91 271.967 175.964 272.952C176.887 272.073 177.129 271.006 176.806 269.985ZM156.761 266.223C156.947 266.111 157.136 266.001 157.324 265.893C156.368 265.709 155.396 265.732 154.427 265.969C155.164 266.173 155.947 266.248 156.761 266.223ZM158.087 266.126C158.072 266.101 158.066 266.078 158.059 266.058C157.901 266.137 157.751 266.222 157.596 266.305C157.376 267.196 157.734 268.088 158.572 268.648C158.817 267.75 158.624 266.904 158.087 266.126ZM131.603 260.178C131.558 260.181 131.52 260.181 131.474 260.184C130.827 260.622 130.373 261.15 130.181 261.787C130.95 261.429 131.49 260.846 131.603 260.178ZM128.388 260.135C128.278 259.5 126.749 259.271 125.832 259.214C126.403 259.815 127.254 260.117 128.293 260.104C128.332 260.105 128.364 260.117 128.388 260.135ZM126.86 262.454C127.664 262.02 128.352 261.542 128.563 260.821C127.678 261.17 127.037 261.734 126.86 262.454ZM143.711 266.558C144.726 266.027 145.25 265.153 145.23 264.247C144.356 264.872 143.827 265.674 143.711 266.558ZM172.426 272.039C171.356 271.607 170.112 271.532 168.901 271.85C169.705 272.403 170.791 272.569 171.865 272.352C172.051 272.249 172.236 272.15 172.417 272.046C172.419 272.042 172.419 272.042 172.426 272.039ZM141.26 265.007C140.336 264.534 139.26 264.383 138.142 264.563C138.805 265.087 139.648 265.37 140.638 265.368C140.726 265.322 140.811 265.27 140.903 265.225C141.036 265.154 141.177 265.089 141.317 265.025C141.299 265.016 141.278 265.016 141.26 265.007ZM154.013 268.243C154.088 268.176 154.162 268.113 154.237 268.047C153.192 267.947 152.172 268.071 151.294 268.589C152.185 268.666 153.08 268.563 153.952 268.255C153.972 268.247 153.994 268.247 154.013 268.243ZM126.156 261.217C124.987 261.054 123.926 261.645 123.01 262.269C124.195 262.432 125.339 261.979 126.156 261.217ZM154.729 268.262C154.669 268.319 154.603 268.365 154.538 268.421C154.447 269.214 154.616 269.947 155.178 270.581C155.497 269.756 155.324 268.93 154.729 268.262ZM141.21 265.646C141.144 265.679 141.077 265.717 141.005 265.753C141.001 265.761 141 265.774 140.995 265.786C140.411 266.647 140.134 267.485 140.29 268.383C141.226 267.639 141.599 266.598 141.21 265.646ZM172.775 272.403C171.503 273.082 171.407 274.232 171.423 275.275C172.508 274.53 172.969 273.465 172.775 272.403ZM138.635 266.547C138.659 266.53 138.686 266.519 138.71 266.503C137.637 266.299 136.526 266.278 135.419 266.469C136.321 266.885 137.438 266.881 138.494 266.519C138.561 266.494 138.611 266.515 138.635 266.547ZM168.89 273.957C168 273.54 167.063 273.293 166.005 273.23C166.42 274.011 167.527 274.121 168.574 274.114C168.681 274.064 168.782 274.012 168.89 273.957ZM151.978 270.471C151.975 270.465 151.975 270.465 151.977 270.461C150.988 270.392 150.135 270.882 149.408 271.43C150.254 271.431 151.046 271.207 151.759 270.769C151.828 270.671 151.904 270.569 151.978 270.471ZM152.479 270.595C152.477 270.6 152.474 270.607 152.47 270.615C152.588 270.864 152.707 271.112 152.839 271.355C152.962 271.582 153.212 272.281 153.644 272.332C153.795 271.584 153.301 270.913 152.479 270.595ZM167.258 277.087C168.136 276.312 168.673 275.459 168.988 274.457C167.903 275.078 167.48 276.108 167.258 277.087ZM137.744 267.88C136.904 268.562 136.565 269.475 136.804 270.325C137.549 269.613 137.862 268.743 137.744 267.88ZM165.475 275.611C164.915 274.81 163.749 274.386 162.555 274.575C163.346 275.143 164.24 275.424 165.334 275.618C165.366 275.621 165.38 275.638 165.391 275.649C165.418 275.638 165.447 275.622 165.475 275.611ZM135.822 268.574C134.942 268.114 133.879 267.9 132.788 268.104C133.491 268.554 134.301 268.78 135.261 268.749C135.292 268.743 135.317 268.736 135.345 268.733C135.362 268.732 135.37 268.739 135.385 268.742C135.454 268.736 135.519 268.738 135.595 268.729C135.6 268.73 135.602 268.735 135.613 268.737C135.677 268.682 135.752 268.628 135.822 268.574ZM165.445 275.94C165.398 275.96 165.343 275.982 165.295 276.002C165.293 276.006 165.291 276.01 165.289 276.014C164.507 276.621 163.901 277.436 163.701 278.274C164.549 277.609 165.125 276.835 165.445 275.94ZM151.165 272.693C151.152 272.721 151.139 272.749 151.126 272.777C151.178 273.43 151.529 274.011 152.212 274.332C151.967 273.736 151.611 273.203 151.165 272.693ZM135.224 269.152C135.206 269.122 135.209 269.078 135.238 269.041C134.068 269.076 133.15 269.992 132.531 270.777C133.705 270.664 134.752 270.03 135.224 269.152ZM150.422 273.243C150.482 273.08 150.558 272.921 150.629 272.76C149.694 272.924 148.86 273.316 148.245 273.917C149.041 273.884 149.735 273.637 150.422 273.243ZM159.848 277.33C160.846 277.507 161.999 277.578 162.706 276.839C161.726 276.67 160.702 276.837 159.848 277.33ZM149.823 275.35C149.823 275.337 149.827 275.329 149.828 275.316C148.799 275.216 147.756 275.666 147.288 276.411C148.258 276.321 149.104 275.928 149.823 275.35ZM152.053 276.59C151.767 275.953 151.177 275.494 150.4 275.21C150.77 275.821 151.283 276.302 152.053 276.59ZM149.716 276.71C149.433 277.029 149.21 277.372 149.085 277.741C149.026 277.922 148.764 278.949 149.17 278.95C149.449 278.952 149.778 277.866 149.799 277.751C149.868 277.386 149.827 277.045 149.716 276.71Z" fill="#4D504F" fill-opacity="0.7"/>
<defs>
<filter id="filter0_b_325_11717" x="58.9336" y="49.502" width="157.251" height="127.281" filterUnits="userSpaceOnUse" color-interpolation-filters="sRGB">
<feFlood flood-opacity="0" result="BackgroundImageFix"/>
<feGaussianBlur in="BackgroundImageFix" stdDeviation="8"/>
<feComposite in2="SourceAlpha" operator="in" result="effect1_backgroundBlur_325_11717"/>
<feBlend mode="normal" in="SourceGraphic" in2="effect1_backgroundBlur_325_11717" result="shape"/>
</filter>
</defs>
</svg>
