<svg width="24" height="25" viewBox="0 0 24 25" fill="none" xmlns="http://www.w3.org/2000/svg">
<path d="M8.62523 15.644C8.57419 15.5926 8.51349 15.5519 8.44664 15.5241M8.62523 15.644H7.84615C7.8972 15.5926 7.95789 15.5519 8.02474 15.5241C8.09159 15.4963 8.16329 15.482 8.23569 15.482C8.3081 15.482 8.37979 15.4963 8.44664 15.5241M8.62523 15.644L10.3687 17.3638M8.62523 15.644L10.3687 17.3638M8.44664 15.5241L8.2546 15.9857C8.24861 15.9832 8.24218 15.982 8.23569 15.982C8.2292 15.982 8.22278 15.9832 8.21679 15.9857L8.21678 15.9857C8.21079 15.9882 8.20535 15.9919 8.20078 15.9965L8.19335 16.004L8.19327 16.0039L7.39377 16.7751M8.44664 15.5241L8.2546 15.9857C8.26059 15.9882 8.26603 15.9919 8.27061 15.9965L8.27059 15.9965L8.2741 16L10.3796 18.0769L10.8078 18.4992L11.1449 18.0011L15.6735 11.3088L15.6735 11.3089L15.6776 11.3027C15.6799 11.2992 15.6828 11.2962 15.6863 11.2939C15.6897 11.2916 15.6935 11.2901 15.6976 11.2893M7.39377 16.7751L15.6976 11.2893M7.39377 16.7751C7.38123 16.7894 7.37428 16.8078 7.37428 16.8269C7.37428 16.8469 7.38184 16.866 7.39539 16.8806L10.5923 20.0776C10.5926 20.0778 10.5929 20.0781 10.5932 20.0784C10.6979 20.1815 10.8624 20.2495 10.9615 20.2495C11.0191 20.2495 11.1497 20.1975 11.2403 20.0651C11.2405 20.0649 11.2406 20.0647 11.2408 20.0644L16.6916 12.0174L16.6936 12.0145C16.7026 12.0013 16.7061 11.9851 16.7032 11.9694C16.7003 11.9536 16.6912 11.9397 16.6781 11.9307L15.7616 11.301C15.7425 11.2894 15.7197 11.2852 15.6977 11.2893L7.39377 16.7751ZM15.6976 11.2893L15.6055 10.7978C15.5353 10.811 15.4684 10.8382 15.4089 10.8779C15.3494 10.9176 15.2986 10.9688 15.2594 11.0286L11.0158 17.2997L11.0819 17.365L10.7308 17.7209L10.3167 17.4407L10.3687 17.3638M15.6976 11.2893L10.3687 17.3638M1.84615 8.30769H1.34615V8.80769V21.7308C1.34615 22.5155 1.98447 23.1538 2.76923 23.1538H21.2308C22.0155 23.1538 22.6538 22.5155 22.6538 21.7308V8.80769V8.30769H22.1538H1.84615ZM6.03846 1.42308C6.03846 1.1906 6.22906 1 6.46154 1C6.69401 1 6.88461 1.1906 6.88461 1.42308V4.19231C6.88461 4.42478 6.69401 4.61538 6.46154 4.61538C6.22906 4.61538 6.03846 4.42478 6.03846 4.19231V1.42308ZM17.1154 1.42308C17.1154 1.1906 17.306 1 17.5385 1C17.7709 1 17.9615 1.1906 17.9615 1.42308V4.19231C17.9615 4.42478 17.7709 4.61538 17.5385 4.61538C17.306 4.61538 17.1154 4.42478 17.1154 4.19231V1.42308ZM0.5 5.11538C0.5 3.86291 1.51676 2.84615 2.76923 2.84615H4.11538V4.19231C4.11538 4.81455 4.36257 5.4113 4.80256 5.85129C5.24255 6.29128 5.8393 6.53846 6.46154 6.53846C7.08378 6.53846 7.68053 6.29128 8.12052 5.85129C8.56051 5.4113 8.80769 4.81455 8.80769 4.19231V2.84615H15.1923V4.19231C15.1923 4.81455 15.4395 5.4113 15.8795 5.85129C16.3195 6.29128 16.9162 6.53846 17.5385 6.53846C18.1607 6.53846 18.7575 6.29128 19.1974 5.85129C19.6374 5.4113 19.8846 4.81455 19.8846 4.19231V2.84615H21.2308C22.4832 2.84615 23.5 3.86291 23.5 5.11538V21.7308C23.5 22.9832 22.4832 24 21.2308 24H2.76923C1.51676 24 0.5 22.9832 0.5 21.7308V5.11538ZM856.115 1357.85H833.115V1357H856.115V1357.85ZM852.423 1362.46H836.808V1361.62H852.423V1362.46ZM856.115 1367.08H833.115V1366.23H856.115V1367.08ZM852.423 1371.69H836.808V1370.85H852.423V1371.69ZM856.115 1376.31H833.115V1375.46H856.115V1376.31Z" fill="#444444" stroke="#444444"/>
</svg>
