<svg width="96" height="97" viewBox="0 0 96 97" fill="none" xmlns="http://www.w3.org/2000/svg">
<ellipse cx="48.0002" cy="48.2484" rx="28.1564" ry="28.1557" fill="white"/>
<path d="M40.5734 43.233H37.7627C34.252 43.233 31.5047 53.4096 36.0837 53.4096H38.4366C39.9629 53.4096 40.5733 55.3177 40.4208 56.1128L39.9629 60.247C39.8101 61.5191 41.3365 62.9502 41.9471 62.9502H46.0681C47.2891 62.9502 49.2733 61.3601 49.7313 60.247L50.9523 56.1128C51.4101 54.8407 53.5469 53.4096 54.6155 53.4096H58.126C62.5522 53.4096 64.5364 43.233 60.5681 43.233H57.5155C56.2943 43.233 54.8127 41.24 55.0734 40.3708C55.8364 37.8267 55.989 33.3744 53.6997 33.3744H49.5787C47.4417 33.3744 45.4575 36.3956 44.6945 40.3708C44.2366 41.9609 41.9471 43.233 40.5734 43.233Z" fill="#E87D24"/>
<path d="M64.6622 16.9142C68.7775 19.1023 72.4215 22.0795 75.3862 25.6759C78.3509 29.2722 80.5781 33.4172 81.9408 37.8743C83.3035 42.3314 83.775 47.0133 83.3283 51.6525C82.8815 56.2918 81.5254 60.7977 79.3372 64.9129C77.1491 69.0281 74.1718 72.672 70.5754 75.6366C66.979 78.6012 62.8338 80.8284 58.3766 82.1911C53.9194 83.5537 49.2375 84.0252 44.5981 83.5784C39.9587 83.1317 35.4527 81.7756 31.3374 79.5875L35.1698 72.3801C38.3385 74.0649 41.8081 75.1091 45.3805 75.4531C48.9528 75.7971 52.5579 75.4341 55.99 74.3848C59.422 73.3356 62.6138 71.6206 65.383 69.3379C68.1523 67.0551 70.4448 64.2493 72.1296 61.0806C73.8145 57.9119 74.8587 54.4424 75.2027 50.8702C75.5467 47.2979 75.1837 43.6929 74.1344 40.2609C73.0851 36.829 71.3701 33.6373 69.0873 30.8681C66.8045 28.0989 63.9986 25.8065 60.8299 24.1216L64.6622 16.9142Z" fill="#E87D24"/>
<path d="M64.6622 16.9115C60.5469 14.7234 56.0409 13.3673 51.4015 12.9206C46.7621 12.4739 42.0802 12.9453 37.623 14.308C33.1658 15.6707 29.0206 17.8979 25.4242 20.8625C21.8278 23.8271 18.8505 27.471 16.6624 31.5862C14.4742 35.7014 13.1181 40.2072 12.6713 44.8465C12.2246 49.4858 12.6961 54.1676 14.0588 58.6247C15.4215 63.0818 17.6488 67.2269 20.6134 70.8232C23.5781 74.4195 27.2221 77.3967 31.3374 79.5848L35.1697 72.3774C32.001 70.6926 29.1951 68.4001 26.9123 65.6309C24.6295 62.8618 22.9145 59.6701 21.8652 56.2381C20.8159 52.8062 20.4529 49.2011 20.7969 45.6289C21.1409 42.0567 22.1851 38.5871 23.87 35.4184C25.5548 32.2497 27.8473 29.4439 30.6166 27.1612C33.3858 24.8784 36.5776 23.1635 40.0096 22.1142C43.4417 21.065 47.0468 20.702 50.6191 21.0459C54.1915 21.3899 57.6611 22.4341 60.8298 24.1189L64.6622 16.9115Z" fill="#087E69"/>
<path d="M86.4555 48.2484C86.4555 69.4861 69.2385 86.7027 48.0002 86.7027C26.7619 86.7027 9.54492 69.4861 9.54492 48.2484C9.54492 27.0107 26.7619 9.79407 48.0002 9.79407C69.2385 9.79407 86.4555 27.0107 86.4555 48.2484Z" stroke="#E87D24" stroke-width="3"/>
</svg>
