<svg width="16" height="23" viewBox="0 0 16 23" fill="none" xmlns="http://www.w3.org/2000/svg">
<path d="M1 1.5H12C12.7956 1.5 13.5587 1.81607 14.1213 2.37868C14.6839 2.94129 15 3.70435 15 4.5V18.5C15 18.7652 14.8946 19.0196 14.7071 19.2071C14.5196 19.3946 14.2652 19.5 14 19.5H11" stroke="#444444" stroke-width="2" stroke-linecap="round" stroke-linejoin="round"/>
<path d="M8 11.5V13.5M1 1.5L8.588 3.018C9.268 3.15392 9.87991 3.52121 10.3197 4.05739C10.7594 4.59358 10.9998 5.26555 11 5.959V20.28C10.9999 20.4279 10.967 20.5739 10.9037 20.7076C10.8404 20.8412 10.7482 20.9592 10.6338 21.0529C10.5194 21.1466 10.3856 21.2138 10.2422 21.2496C10.0987 21.2854 9.94902 21.289 9.804 21.26L2.608 19.822C2.15444 19.7313 1.74633 19.4863 1.45314 19.1286C1.15995 18.7708 0.999817 18.3225 1 17.86V1.5Z" stroke="#444444" stroke-width="2" stroke-linecap="round" stroke-linejoin="round"/>
</svg>
