<svg width="160" height="50" viewBox="0 0 160 50" fill="none" xmlns="http://www.w3.org/2000/svg">
<rect x="0.890869" y="5.96899" width="150.646" height="26.637" rx="12.0267" stroke="#E87D24" stroke-width="1.78174"/>
<path d="M149.31 19.3767C149.31 13.2757 144.364 8.28538 138.263 8.28538H94.6107L50.5573 8.19629L43.6085 30.3789L108.506 30.468H138.263C144.364 30.468 149.31 25.4777 149.31 19.3767Z" fill="#E87D24"/>
<path d="M3.11816 19.2876C3.11816 13.1866 8.06397 8.19629 14.1649 8.19629H57.8175C55.8948 9.31902 55.1555 10.2646 54.1562 12.2455L50.5263 25.1577C50.2433 26.1645 49.795 27.1307 49.0834 27.897C47.6975 29.3896 46.3736 30.0329 43.9221 30.3789H14.1649C8.06397 30.3789 3.11816 25.3886 3.11816 19.2876Z" fill="#087E69"/>
<path d="M133.662 12.4017C133.662 12.2236 128.775 12.2681 128.775 12.4017L126.681 26.3883C126.637 26.5665 131.537 26.5665 131.581 26.3883L132.428 20.8649H135.946L135.1 26.3883C135.1 26.5665 140 26.611 140 26.3883L142.138 12.4017C142.138 12.2681 137.283 12.2235 137.238 12.4017L136.436 17.3014H132.962L133.662 12.4017Z" fill="white"/>
<path d="M117.728 12.4011C117.773 12.223 112.873 12.2675 112.829 12.4011L111.448 21.488C111.314 22.3789 111.225 23.4115 111.314 23.7597C111.708 25.2991 112.171 25.9328 113.72 26.3878C114.209 26.5317 116.08 26.6105 117.06 26.3878C118.04 26.1651 119.243 25.3633 119.243 25.4969L119.154 26.3878C119.109 26.566 124.009 26.566 124.054 26.3878L126.192 12.4011C126.192 12.2231 121.292 12.223 121.203 12.4011L120.045 20.5971C119.688 22.6017 116.348 22.2008 116.481 21.488L117.728 12.4011Z" fill="white"/>
<path d="M99.3763 16.3212C99.154 16.3212 99.733 12.4014 99.9108 12.4014H110.868C111.003 12.4014 110.468 16.3212 110.289 16.3212H107.127L105.612 26.388C105.568 26.5662 100.668 26.5216 100.713 26.388L102.227 16.3212H99.3763Z" fill="white"/>
<path d="M97.8624 12.7574C97.8623 12.5166 97.3278 12.4901 96.9715 12.401C94.5216 11.7886 93.2744 11.7774 91.1808 12.401C87.8401 13.6928 85.702 17.4609 85.3902 19.7952C85.3598 20.023 85.3177 20.5344 85.3902 21.4879C85.5683 23.8306 86.5928 25.4787 89.1318 26.3877C90.957 27.0411 92.3939 26.8778 94.388 26.3877C96.437 25.884 96.437 24.7841 96.437 22.0224C96.437 21.9333 96.3479 21.7997 96.2588 21.7551L96.2559 21.7543C96.2142 21.7371 96.1697 21.7371 96.1252 21.7551C93.492 22.8255 90.6463 22.5569 90.6463 20.3743V19.4834C90.6463 16.9457 94.2136 14.7088 96.9153 16.7412C96.9955 16.8016 97.1119 16.7898 97.1694 16.7075C97.8222 15.7747 97.8627 14.795 97.8624 12.7574Z" fill="white"/>
<path d="M75.0558 13.0695C75.1004 12.8023 75.4567 12.4014 75.6794 12.4014H84.5881L84.0536 16.3212H79.5102L79.332 17.3011H83.4745L82.94 20.8646H78.8866L78.6193 22.4682H83.0737L82.5391 26.388H74.0759C73.7642 26.388 73.2296 26.1207 73.2741 25.6753L75.0558 13.0695Z" fill="white"/>
<path fill-rule="evenodd" clip-rule="evenodd" d="M60.7131 12.4014L58.6641 26.388H66.9491C72.7398 26.388 73.1852 18.4593 69.5327 18.4593V18.2811C72.2498 18.2811 73.1852 12.4014 68.9981 12.4014H60.7131ZM64.8111 18.0138L65.1674 15.6085H66.5037C67.6173 15.6085 67.3055 18.0138 66.2364 18.0138H64.8111ZM64.0984 23.1363L64.4547 20.7755H65.8801C67.35 20.8201 66.771 23.1363 65.3901 23.1363H64.0984Z" fill="white"/>
<path fill-rule="evenodd" clip-rule="evenodd" d="M47.9176 26.3286C53.1738 26.3286 56.8062 23.2965 57.0935 19.0235C57.3061 15.8616 56.4699 11.6292 49.6993 11.7629C45.5664 11.7629 42.127 15.0153 41.637 18.9343C41.3698 22.4986 42.6614 26.3286 47.9176 26.3286ZM46.3586 17.1974H47.3386C47.7395 17.1974 48.4076 16.841 48.5413 16.3956C48.7639 15.282 49.343 14.4357 49.9667 14.4357H51.1693C51.8374 14.4357 51.7929 15.6829 51.5702 16.3956C51.4941 16.6391 51.9265 17.1974 52.2829 17.1974H53.1738C54.3319 17.1974 53.7528 20.0482 52.4611 20.0482H51.4366C51.1247 20.0482 50.5011 20.4491 50.3675 20.8054L50.0112 21.9635C49.8775 22.2753 49.2985 22.7208 48.9422 22.7208H47.7395C47.5613 22.7208 47.1158 22.3199 47.1604 21.9635L47.294 20.8054C47.3386 20.5827 47.1604 20.0482 46.715 20.0482H45.8687C44.5323 20.0482 45.3341 17.1974 46.3586 17.1974Z" fill="white"/>
<path d="M47.3386 17.1974H46.3586C45.3341 17.1974 44.5323 20.0482 45.8687 20.0482H46.715C47.1604 20.0482 47.3386 20.5827 47.294 20.8054L47.1604 21.9635C47.1158 22.3199 47.5613 22.7208 47.7395 22.7208H48.9422C49.2985 22.7208 49.8775 22.2753 50.0112 21.9635L50.3675 20.8054C50.5011 20.4491 51.1247 20.0482 51.4366 20.0482H52.4611C53.7528 20.0482 54.3319 17.1974 53.1738 17.1974H52.2829C51.9265 17.1974 51.4941 16.6391 51.5702 16.3956C51.7929 15.6829 51.8374 14.4357 51.1693 14.4357H49.9667C49.343 14.4357 48.7639 15.282 48.5413 16.3956C48.4076 16.841 47.7395 17.1974 47.3386 17.1974Z" fill="#E87D24"/>
<path d="M24.5433 22.8242L26.0132 12.401C27.9207 12.2343 28.9927 12.2097 30.913 12.401L29.6658 20.9534C29.2652 22.9133 33.0068 22.1115 33.1847 20.8197L34.4319 12.401C36.3104 12.2177 37.3822 12.2277 39.3317 12.401L37.2827 26.3877C35.3902 26.5925 34.312 26.5861 32.3829 26.3877L32.472 25.4968C27.5725 27.724 24.187 25.9868 24.5433 22.8242Z" fill="white"/>
<path fill-rule="evenodd" clip-rule="evenodd" d="M12.3387 12.4014L10.2451 26.388H17.9312C22.9845 26.388 25.1672 17.5684 19.0202 17.5684H16.4367L16.6148 16.3212H22.2273C22.6512 15.07 22.7847 14.2051 22.8509 12.4014H12.3387ZM15.6349 23.1809L15.9467 20.9537H16.9712C17.4166 20.9537 17.773 21.3991 17.773 21.8891C17.773 22.7802 17.0157 23.1809 16.5257 23.1809H15.6349Z" fill="white"/>
<circle cx="156.882" cy="3.11804" r="2.93987" stroke="#E87D24" stroke-width="0.356347"/>
<path d="M155.875 4.44531V1.32727H157.042C157.306 1.32727 157.533 1.37033 157.724 1.45645C157.914 1.5396 158.059 1.66135 158.16 1.8217C158.264 1.97909 158.316 2.17063 158.316 2.39631C158.316 2.61606 158.264 2.80611 158.16 2.96647C158.059 3.12386 157.914 3.24561 157.724 3.33173C157.533 3.41487 157.306 3.45645 157.042 3.45645H156.058L156.205 3.305V4.44531H155.875ZM158.004 4.44531L157.202 3.31391H157.559L158.365 4.44531H158.004ZM156.205 3.33173L156.058 3.17582H157.033C157.345 3.17582 157.581 3.10752 157.741 2.97092C157.905 2.83433 157.986 2.64279 157.986 2.39631C157.986 2.14687 157.905 1.95385 157.741 1.81725C157.581 1.68065 157.345 1.61235 157.033 1.61235H156.058L156.205 1.45645V3.33173Z" fill="#E87D24"/>
<path d="M15.0451 47.0474C14.827 47.0474 14.6635 47.0314 14.5544 46.9993C14.4454 46.9672 14.3909 46.9512 14.3909 46.9512L14.4775 46.422C14.6956 46.422 14.8719 46.3707 15.0066 46.2681C15.1413 46.159 15.2376 46.0339 15.2953 45.8928L15.8052 44.642C15.9592 44.2572 16.142 43.9814 16.3536 43.8146C16.5653 43.6414 16.7738 43.5228 16.979 43.4586V43.4201C16.7994 43.356 16.6583 43.2405 16.5557 43.0738C16.4531 42.9006 16.3761 42.6216 16.3248 42.2367L16.2093 41.2746C16.1901 41.1078 16.1324 40.9795 16.0361 40.8897C15.9463 40.7935 15.7924 40.7454 15.5743 40.7454L15.6705 40.2162C15.6705 40.2162 15.7315 40.2002 15.8533 40.1681C15.9752 40.136 16.1452 40.12 16.3633 40.12C16.7225 40.12 16.9758 40.2162 17.1234 40.4086C17.2709 40.6011 17.3671 40.8897 17.412 41.2746L17.5275 42.2367C17.5595 42.551 17.6173 42.7659 17.7006 42.8813C17.784 42.9968 17.8866 43.0545 18.0085 43.0545H18.1528L18.6532 40.2162H19.8077L19.3074 43.0545H19.4517C19.5736 43.0545 19.6955 42.9968 19.8173 42.8813C19.9392 42.7659 20.0739 42.551 20.2214 42.2367L20.6833 41.2746C20.8693 40.8897 21.0681 40.6011 21.2798 40.4086C21.4915 40.2162 21.7769 40.12 22.1361 40.12C22.3542 40.12 22.5177 40.136 22.6268 40.1681C22.7358 40.2002 22.7903 40.2162 22.7903 40.2162L22.6941 40.7454C22.476 40.7454 22.3061 40.7935 22.1842 40.8897C22.0623 40.9795 21.9629 41.1078 21.8859 41.2746L21.4241 42.2367C21.2445 42.6216 21.0713 42.9006 20.9046 43.0738C20.7378 43.2405 20.5518 43.356 20.3465 43.4201V43.4586C20.5261 43.5228 20.6897 43.6414 20.8372 43.8146C20.9911 43.9814 21.0777 44.2572 21.097 44.642L21.1643 45.8928C21.1772 46.0339 21.2285 46.159 21.3183 46.2681C21.4145 46.3707 21.5716 46.422 21.7897 46.422L21.7031 46.9512C21.7031 46.9512 21.6422 46.9672 21.5203 46.9993C21.3985 47.0314 21.2285 47.0474 21.0104 47.0474C20.6512 47.0474 20.3914 46.9512 20.2311 46.7587C20.0707 46.5663 19.9809 46.2777 19.9617 45.8928L19.8943 44.642C19.8751 44.3277 19.8141 44.1129 19.7115 43.9974C19.6153 43.882 19.4838 43.8242 19.317 43.8242H19.1727L18.6243 46.9512H17.4697L18.0181 43.8242H17.8738C17.707 43.8242 17.5531 43.882 17.412 43.9974C17.2709 44.1129 17.1362 44.3277 17.0079 44.642L16.498 45.8928C16.344 46.2777 16.1516 46.5663 15.9207 46.7587C15.6962 46.9512 15.4043 47.0474 15.0451 47.0474ZM23.1899 46.9512L24.3734 40.2162H25.4798L24.7005 44.642H24.7486L27.3079 40.2162H28.5106L27.3271 46.9512H26.2207L27.0096 42.4291H26.9615L24.3445 46.9512H23.1899ZM31.1113 47.0474C30.7521 47.0474 30.4443 47.0314 30.1877 46.9993C29.9311 46.9736 29.6874 46.9255 29.4565 46.855L30.611 40.3124C30.8676 40.2419 31.1274 40.1938 31.3904 40.1681C31.6598 40.136 31.9741 40.12 32.3333 40.12C33.0581 40.12 33.5616 40.2803 33.8438 40.6011C34.1325 40.9154 34.2287 41.3483 34.1325 41.8999C34.0811 42.1886 33.9529 42.4644 33.7476 42.7274C33.5423 42.9904 33.2826 43.1892 32.9683 43.3239L32.9586 43.3624C33.3178 43.4971 33.5744 43.7152 33.7284 44.0167C33.8887 44.3181 33.9304 44.6869 33.8534 45.1231C33.7829 45.54 33.6418 45.8928 33.4301 46.1815C33.2184 46.4637 32.9234 46.6786 32.5449 46.8261C32.1665 46.9736 31.6886 47.0474 31.1113 47.0474ZM30.7072 46.3258H31.2364C31.6469 46.3258 31.9676 46.2264 32.1986 46.0275C32.4295 45.8223 32.5834 45.5048 32.6604 45.075C32.7438 44.6196 32.7053 44.2893 32.5449 44.084C32.3846 43.8787 32.0991 43.7761 31.6886 43.7761H31.1594L30.7072 46.3258ZM31.2845 43.0545H31.7175C32.0318 43.0545 32.2948 42.9615 32.5064 42.7755C32.7181 42.5831 32.856 42.3073 32.9202 41.9481C32.9843 41.5889 32.9426 41.3162 32.7951 41.1302C32.6476 40.9378 32.4166 40.8416 32.1023 40.8416H31.6694L31.2845 43.0545ZM36.983 47.0474C36.6238 47.0474 36.3159 47.0314 36.0594 46.9993C35.8028 46.9736 35.559 46.9255 35.3281 46.855L36.5019 40.2162H37.6565L37.1851 42.9102C37.3069 42.8845 37.4577 42.8621 37.6373 42.8428C37.8169 42.8236 37.9419 42.814 38.0125 42.814C38.6411 42.814 39.0869 42.9904 39.3499 43.3432C39.6193 43.6895 39.6898 44.2347 39.5615 44.9788C39.4782 45.4406 39.3306 45.8255 39.119 46.1334C38.9137 46.4412 38.6347 46.6722 38.2819 46.8261C37.9291 46.9736 37.4961 47.0474 36.983 47.0474ZM36.5789 46.3258H37.1081C37.448 46.3258 37.7271 46.2232 37.9451 46.0179C38.1696 45.8062 38.3236 45.4599 38.407 44.9788C38.4968 44.4464 38.4679 44.0808 38.3204 43.882C38.1729 43.6831 37.9291 43.5837 37.5892 43.5837H37.06L36.5789 46.3258ZM39.8887 46.9512L41.0721 40.2162H42.2267L41.0432 46.9512H39.8887ZM43.1633 46.9512L44.3467 40.2162H47.8586L47.7239 40.9859H45.3666L45.001 43.0545H47.0696L46.9349 43.8242H44.8663L44.4526 46.1815H46.8098L46.6751 46.9512H43.1633ZM53.339 47.0474C52.9798 47.0474 52.6719 47.0314 52.4153 46.9993C52.1588 46.9736 51.915 46.9255 51.6841 46.855L52.8579 40.2162H56.4659L56.3312 40.9859H53.8778L53.5507 42.814H54.0798C54.8752 42.814 55.4204 42.9904 55.7155 43.3432C56.0105 43.6895 56.0939 44.2347 55.9656 44.9788C55.8822 45.4406 55.7347 45.8255 55.523 46.1334C55.3114 46.4412 55.0259 46.6722 54.6667 46.8261C54.3139 46.9736 53.8714 47.0474 53.339 47.0474ZM52.9349 46.3258H53.4641C53.8233 46.3258 54.1151 46.2232 54.3396 46.0179C54.5705 45.8062 54.7277 45.4599 54.8111 44.9788C54.9009 44.4721 54.8688 44.1129 54.7148 43.9012C54.5609 43.6895 54.3043 43.5837 53.9451 43.5837H53.416L52.9349 46.3258ZM57.3958 46.9512L58.5793 40.2162H59.6857L58.9064 44.642H58.9545L61.5138 40.2162H62.7164L61.533 46.9512H60.4266L61.2155 42.4291H61.1674L58.5504 46.9512H57.3958ZM65.7791 47.1436L65.8849 46.5182C65.1088 46.422 64.5283 46.1269 64.1434 45.633C63.765 45.1327 63.6527 44.4496 63.8067 43.5837C63.9606 42.7178 64.3134 42.0379 64.865 41.544C65.4231 41.0436 66.1094 40.7454 66.924 40.6492L67.0298 40.0238H68.1844L68.0786 40.6492C68.8547 40.7454 69.432 41.0436 69.8104 41.544C70.1953 42.0379 70.3107 42.7178 70.1568 43.5837C70.0028 44.4496 69.6468 45.1327 69.0888 45.633C68.5372 46.1269 67.8541 46.422 67.0395 46.5182L66.9336 47.1436H65.7791ZM66.0196 45.7966L66.7989 41.3708C66.5744 41.3836 66.3339 41.4798 66.0773 41.6594C65.8272 41.8326 65.5995 42.0795 65.3942 42.4003C65.1889 42.721 65.0446 43.1154 64.9612 43.5837C64.8843 44.0455 64.8907 44.44 64.9805 44.7671C65.0703 45.0878 65.2114 45.3348 65.4038 45.508C65.5962 45.6811 65.8015 45.7774 66.0196 45.7966ZM67.1742 45.7966C67.4051 45.7774 67.6456 45.6811 67.8958 45.508C68.1459 45.3348 68.3736 45.0878 68.5789 44.7671C68.7841 44.44 68.9252 44.0455 69.0022 43.5837C69.0856 43.1154 69.0824 42.721 68.9926 42.4003C68.9028 42.0795 68.7617 41.8326 68.5693 41.6594C68.3832 41.4798 68.178 41.3836 67.9535 41.3708L67.1742 45.7966ZM71.2532 46.9512L72.4367 40.2162H73.5431L72.7638 44.642H72.8119L75.3712 40.2162H76.5739L75.3904 46.9512H74.284L75.0729 42.4291H75.0248L72.4078 46.9512H71.2532ZM76.6827 48.3944L77.0676 46.1815H77.5486C77.5486 46.1815 77.5967 46.1173 77.6929 45.989C77.7892 45.8543 77.8982 45.6491 78.0201 45.3733C78.1484 45.091 78.2606 44.735 78.3568 44.3053L79.2709 40.2162H82.7346L81.6858 46.1815H82.3112L81.9167 48.3944H81.1951C81.131 48.202 81.0861 47.9839 81.0604 47.7401C81.0412 47.5028 81.0444 47.2398 81.0701 46.9512H78.0393C77.9623 47.2398 77.8661 47.5028 77.7507 47.7401C77.6416 47.9839 77.523 48.202 77.3947 48.3944H76.6827ZM78.7032 46.1815H80.5313L81.4645 40.8897H80.2811L79.5114 44.3053C79.4152 44.735 79.3029 45.091 79.1746 45.3733C79.0528 45.6491 78.9437 45.8543 78.8475 45.989C78.7513 46.1173 78.7032 46.1815 78.7032 46.1815ZM85.7202 47.0474C85.3866 47.0474 85.0916 46.9897 84.835 46.8742C84.5849 46.7523 84.386 46.5599 84.2385 46.2969C84.091 46.0275 84.0044 45.6715 83.9787 45.2289C83.9531 44.7799 83.998 44.2315 84.1134 43.5837C84.2674 42.7178 84.479 42.0346 84.7484 41.5343C85.0242 41.0276 85.345 40.6652 85.7106 40.4471C86.0826 40.229 86.4931 40.12 86.9421 40.12C87.2821 40.12 87.5771 40.1809 87.8273 40.3028C88.0774 40.4183 88.2731 40.6107 88.4142 40.8801C88.5617 41.1431 88.6483 41.4991 88.674 41.9481C88.6996 42.3906 88.6547 42.9358 88.5393 43.5837C88.3917 44.4496 88.1801 45.1359 87.9042 45.6427C87.6348 46.1494 87.3141 46.5118 86.9421 46.7299C86.5765 46.9416 86.1692 47.0474 85.7202 47.0474ZM85.8356 46.3739C86.0152 46.3739 86.1981 46.2969 86.3841 46.143C86.5765 45.9826 86.7593 45.7004 86.9325 45.2963C87.1057 44.8922 87.2564 44.3213 87.3847 43.5837C87.4809 43.0321 87.5322 42.5767 87.5386 42.2175C87.545 41.8518 87.513 41.5664 87.4424 41.3611C87.3783 41.1559 87.2917 41.0116 87.1826 40.9282C87.0736 40.8384 86.9517 40.7935 86.817 40.7935C86.6438 40.7935 86.461 40.8737 86.2686 41.034C86.0826 41.188 85.903 41.467 85.7298 41.8711C85.5566 42.2752 85.4027 42.846 85.268 43.5837C85.1718 44.1353 85.1205 44.5939 85.114 44.9595C85.114 45.3187 85.1461 45.601 85.2103 45.8062C85.2744 46.0115 85.361 46.159 85.47 46.2488C85.5791 46.3322 85.7009 46.3739 85.8356 46.3739ZM91.4911 47.0474C91.1319 47.0474 90.8241 47.0314 90.5675 46.9993C90.3109 46.9736 90.0672 46.9255 89.8363 46.855L91.0101 40.2162H94.6181L94.4834 40.9859H92.0299L91.7028 42.814H92.232C93.0274 42.814 93.5726 42.9904 93.8676 43.3432C94.1627 43.6895 94.2461 44.2347 94.1178 44.9788C94.0344 45.4406 93.8869 45.8255 93.6752 46.1334C93.4635 46.4412 93.1781 46.6722 92.8189 46.8261C92.4661 46.9736 92.0235 47.0474 91.4911 47.0474ZM91.087 46.3258H91.6162C91.9754 46.3258 92.2673 46.2232 92.4918 46.0179C92.7227 45.8062 92.8798 45.4599 92.9632 44.9788C93.053 44.4721 93.0209 44.1129 92.867 43.9012C92.7131 43.6895 92.4565 43.5837 92.0973 43.5837H91.5681L91.087 46.3258ZM95.0188 46.9512L97.9341 40.2162H99.3773L99.9257 46.9512H98.723L98.5883 45.2674H96.9335L96.2215 46.9512H95.0188ZM97.2221 44.4977H98.5595L98.4055 41.7556H98.367L97.2221 44.4977ZM105.102 47.0474C104.743 47.0474 104.483 46.9512 104.323 46.7587C104.163 46.5663 104.073 46.2777 104.054 45.8928L103.986 44.642C103.967 44.3277 103.906 44.1129 103.803 43.9974C103.707 43.882 103.576 43.8242 103.409 43.8242H103.217L102.668 46.9512H101.514L102.697 40.2162H103.852L103.351 43.0545H103.544C103.666 43.0545 103.787 42.9968 103.909 42.8813C104.031 42.7659 104.166 42.551 104.313 42.2367L104.775 41.2746C104.961 40.8897 105.16 40.6011 105.372 40.4086C105.583 40.2162 105.869 40.12 106.228 40.12C106.446 40.12 106.61 40.136 106.719 40.1681C106.828 40.2002 106.882 40.2162 106.882 40.2162L106.786 40.7454C106.568 40.7454 106.398 40.7935 106.276 40.8897C106.154 40.9795 106.055 41.1078 105.978 41.2746L105.516 42.2367C105.337 42.6216 105.163 42.9006 104.997 43.0738C104.83 43.2405 104.644 43.356 104.439 43.4201V43.4586C104.618 43.5228 104.782 43.6414 104.929 43.8146C105.083 43.9814 105.17 44.2572 105.189 44.642L105.256 45.8928C105.269 46.0339 105.32 46.159 105.41 46.2681C105.506 46.3707 105.664 46.422 105.882 46.422L105.795 46.9512C105.795 46.9512 105.734 46.9672 105.612 46.9993C105.49 47.0314 105.32 47.0474 105.102 47.0474ZM108.196 46.9512L109.245 40.9859H107.753L107.888 40.2162H112.025L111.891 40.9859H110.399L109.351 46.9512H108.196ZM112.383 46.9512L113.567 40.2162H117.078L116.944 40.9859H114.586L114.221 43.0545H116.289L116.155 43.8242H114.086L113.672 46.1815H116.03L115.895 46.9512H112.383ZM117.719 46.9512L118.883 40.3124C119.14 40.2419 119.4 40.1938 119.663 40.1681C119.932 40.136 120.246 40.12 120.606 40.12C121.138 40.12 121.555 40.2002 121.856 40.3605C122.158 40.5209 122.357 40.7775 122.453 41.1302C122.549 41.483 122.546 41.9481 122.443 42.5253C122.334 43.1347 122.174 43.6222 121.962 43.9878C121.751 44.3534 121.484 44.6196 121.164 44.7864C120.843 44.9467 120.465 45.0269 120.028 45.0269C119.958 45.0269 119.836 45.0173 119.663 44.998C119.49 44.9788 119.345 44.9563 119.23 44.9307L118.874 46.9512H117.719ZM119.345 44.2572H119.874C120.118 44.2572 120.33 44.2059 120.509 44.1032C120.689 44.0006 120.843 43.8242 120.971 43.5741C121.106 43.3239 121.212 42.9743 121.289 42.5253C121.366 42.0892 121.382 41.7492 121.337 41.5055C121.292 41.2617 121.196 41.0918 121.048 40.9955C120.907 40.8929 120.715 40.8416 120.471 40.8416H119.942L119.345 44.2572ZM123.441 46.9512L124.624 40.2162H125.73L124.951 44.642H124.999L127.559 40.2162H128.761L127.578 46.9512H126.471L127.26 42.4291H127.212L124.595 46.9512H123.441ZM129.697 46.9512L130.881 40.2162H131.987L131.208 44.642H131.256L133.815 40.2162H135.018L133.835 46.9512H132.728L133.517 42.4291H133.469L130.852 46.9512H129.697Z" fill="#087E69"/>
</svg>
