<svg width="11" height="11" viewBox="0 0 11 11" fill="none" xmlns="http://www.w3.org/2000/svg">
<path d="M0.0834961 2.24967C0.0834961 1.22809 0.0834961 0.717841 0.400913 0.400424C0.718329 0.0830078 1.22858 0.0830078 2.25016 0.0830078C3.27175 0.0830078 3.782 0.0830078 4.09941 0.400424C4.41683 0.717841 4.41683 1.22809 4.41683 2.24967V8.74967C4.41683 9.77126 4.41683 10.2815 4.09941 10.5989C3.782 10.9163 3.27175 10.9163 2.25016 10.9163C1.22858 10.9163 0.718329 10.9163 0.400913 10.5989C0.0834961 10.2815 0.0834961 9.77126 0.0834961 8.74967V2.24967ZM6.5835 2.24967C6.5835 1.22809 6.5835 0.717841 6.90091 0.400424C7.21833 0.0830078 7.72858 0.0830078 8.75016 0.0830078C9.77175 0.0830078 10.282 0.0830078 10.5994 0.400424C10.9168 0.717841 10.9168 1.22809 10.9168 2.24967V8.74967C10.9168 9.77126 10.9168 10.2815 10.5994 10.5989C10.282 10.9163 9.77175 10.9163 8.75016 10.9163C7.72858 10.9163 7.21833 10.9163 6.90091 10.5989C6.5835 10.2815 6.5835 9.77126 6.5835 8.74967V2.24967Z" fill="white"/>
</svg>
