<svg width="51" height="48" viewBox="0 0 51 48" fill="none" xmlns="http://www.w3.org/2000/svg">
<g clip-path="url(#clip0_188_3030)">
<path d="M39.9326 38.3184H50.9999C50.9999 38.3184 38.2387 19.97 38.2387 5.67773H28.8735C28.8735 23.1577 39.9326 38.3184 39.9326 38.3184Z" fill="#CDCCD4"/>
<path d="M28.866 38.3184H39.9325C39.9325 38.3184 28.8735 19.97 28.8735 5.67773H19.5083C19.5083 23.1577 28.866 38.3184 28.866 38.3184Z" fill="#BDC21C"/>
<path d="M17.7993 38.3184H28.8659C28.8659 38.3184 19.5082 19.97 19.5082 5.67773H10.1431C10.1431 23.1577 17.7993 38.3184 17.7993 38.3184Z" fill="#CDCCD4"/>
<path d="M6.7332 38.3184H17.7998C17.7998 38.3184 10.1435 19.97 10.1435 5.67773H0.77832C0.77832 23.1577 6.7332 38.3184 6.7332 38.3184Z" fill="#BDC21C"/>
<path d="M-4.33343 38.3184H6.73314C6.73314 38.3184 0.778256 19.97 0.778256 5.67773H-8.58691C-8.58691 23.1577 -4.33343 38.3184 -4.33343 38.3184Z" fill="#CDCCD4"/>
<path d="M-4.3335 38.3184H6.73307V43.8133C6.73307 46.124 4.25375 48 1.19979 48C-1.85417 48 -4.3335 46.124 -4.3335 43.8133V38.3184Z" fill="#E8EAF1"/>
<path d="M12.2662 48C9.20998 48 6.73291 46.1258 6.73291 43.8133V38.3184H17.7995V43.8133C17.7995 46.1258 15.3224 48 12.2662 48Z" fill="#9CA106"/>
<path d="M23.3326 48C20.2764 48 17.7993 46.1258 17.7993 43.8133V38.3184H28.8659V43.8133C28.8659 46.1258 26.3888 48 23.3326 48Z" fill="#E8EAF1"/>
<path d="M34.3995 48C31.3433 48 28.8662 46.1258 28.8662 43.8133V38.3184H39.9328V43.8133C39.9328 46.1258 37.4557 48 34.3995 48Z" fill="#9CA106"/>
<path d="M45.4659 48C42.4097 48 39.9326 46.1258 39.9326 43.8133V38.3184H50.9992V43.8133C50.9992 46.1258 48.5221 48 45.4659 48Z" fill="#E8EAF1"/>
<path d="M30.7673 0H-93.0302C-97.1749 0 -100.534 2.54173 -100.534 5.67774H38.2713C38.2713 2.54173 34.9112 0 30.7673 0Z" fill="#9CA106"/>
</g>
<defs>
<clipPath id="clip0_188_3030">
<rect width="166" height="48" fill="white" transform="translate(-115)"/>
</clipPath>
</defs>
</svg>
