<svg width="20" height="16" viewBox="0 0 20 16" fill="none" xmlns="http://www.w3.org/2000/svg">
<path d="M0.682766 7.2935C0.726399 7.2713 0.770053 7.25021 0.812595 7.23023C1.55218 6.88169 2.30158 6.55536 3.04989 6.22902C3.09025 6.22902 3.15786 6.18129 3.19604 6.16575C3.25385 6.14022 3.31168 6.1158 3.36949 6.09027C3.48076 6.04143 3.59202 5.9937 3.7022 5.94486C3.92473 5.84829 4.14615 5.75171 4.36868 5.65514L5.70058 5.07462C6.58851 4.68834 7.47756 4.30095 8.36549 3.91467C9.25343 3.52839 10.1424 3.141 11.0304 2.75472C11.9183 2.36844 12.8073 1.98106 13.6953 1.59478C14.5832 1.2085 15.4722 0.821113 16.3602 0.434834C16.5576 0.348254 16.7714 0.219492 16.983 0.181752C17.1608 0.149562 17.3343 0.0874049 17.5132 0.052995C17.8524 -0.0124948 18.2266 -0.0391323 18.5516 0.104057C18.664 0.154007 18.7676 0.223936 18.8538 0.311626C19.2661 0.726765 19.2083 1.4083 19.121 1.99216C18.5135 6.0614 17.9059 10.1318 17.2972 14.201C17.2143 14.7593 17.1008 15.3721 16.6678 15.725C16.3013 16.0236 15.7798 16.0569 15.3271 15.9304C14.8744 15.8027 14.4752 15.5352 14.0836 15.2722C12.4594 14.1777 10.834 13.0832 9.20979 11.9888C8.82364 11.729 8.39386 11.3894 8.39822 10.9176C8.4004 10.6335 8.56728 10.3804 8.73745 10.1551C10.149 8.2814 12.1856 6.9938 13.7007 5.20671C13.9145 4.95474 14.0825 4.49964 13.7891 4.35423C13.6146 4.26765 13.4138 4.38531 13.2546 4.49742C11.2518 5.91266 9.25015 7.32902 7.24739 8.74427C6.59399 9.20603 5.90895 9.68111 5.12137 9.79433C4.41669 9.89645 3.70766 9.69664 3.02589 9.4924C2.4543 9.32146 1.88377 9.14608 1.31545 8.96515C1.01329 8.8697 0.701313 8.76647 0.467876 8.55002C0.234439 8.33357 0.100285 7.96949 0.241002 7.68089C0.329359 7.49996 0.500622 7.38563 0.680609 7.29239L0.682766 7.2935Z" fill="white"/>
</svg>
