<svg width="42" height="42" viewBox="0 0 42 42" fill="none" xmlns="http://www.w3.org/2000/svg">
<path d="M20.6388 0.168457H20.545C9.1983 0.168457 0 9.36946 0 20.7195V20.8133C0 32.1633 9.1983 41.3643 20.545 41.3643H20.6388C31.9854 41.3643 41.1837 32.1633 41.1837 20.8133V20.7195C41.1837 9.36946 31.9854 0.168457 20.6388 0.168457Z" fill="#444444"/>
<path d="M26.964 8.5498H14.2206C10.7 8.5498 7.83594 11.4147 7.83594 14.9364V26.5982C7.83594 30.1198 10.7 32.9847 14.2206 32.9847H26.964C30.4846 32.9847 33.3487 30.1198 33.3487 26.5982V14.9364C33.3487 11.4147 30.4846 8.5498 26.964 8.5498ZM10.0883 14.9364C10.0883 12.6574 11.9423 10.8028 14.2206 10.8028H26.964C29.2423 10.8028 31.0964 12.6574 31.0964 14.9364V26.5982C31.0964 28.8771 29.2423 30.7317 26.964 30.7317H14.2206C11.9423 30.7317 10.0883 28.8771 10.0883 26.5982V14.9364Z" fill="white"/>
<path d="M20.5922 26.7064C23.866 26.7064 26.531 24.042 26.531 20.7658C26.531 17.4895 23.8675 14.8252 20.5922 14.8252C17.3169 14.8252 14.6533 17.4895 14.6533 20.7658C14.6533 24.042 17.3169 26.7064 20.5922 26.7064ZM20.5922 17.0796C22.6252 17.0796 24.2787 18.7336 24.2787 20.7672C24.2787 22.8008 22.6252 24.4548 20.5922 24.4548C18.5592 24.4548 16.9056 22.8008 16.9056 20.7672C16.9056 18.7336 18.5592 17.0796 20.5922 17.0796Z" fill="white"/>
<path d="M27.0806 15.7852C27.9622 15.7852 28.6807 15.0679 28.6807 14.1846C28.6807 13.3013 27.9636 12.584 27.0806 12.584C26.1976 12.584 25.4805 13.3013 25.4805 14.1846C25.4805 15.0679 26.1976 15.7852 27.0806 15.7852Z" fill="white"/>
</svg>
