<svg width="52" height="52" viewBox="0 0 52 52" fill="none" xmlns="http://www.w3.org/2000/svg">
<g filter="url(#filter0_d_387_9325)">
<path d="M25.4552 4.16846H25.3614C14.0147 4.16846 4.81641 13.3695 4.81641 24.7195V24.8133C4.81641 36.1633 14.0147 45.3643 25.3614 45.3643H25.4552C36.8018 45.3643 46.0001 36.1633 46.0001 24.8133V24.7195C46.0001 13.3695 36.8018 4.16846 25.4552 4.16846Z" fill="#0C71DE"/>
<path d="M12.6163 24.0641C12.674 24.0352 12.7318 24.0078 12.7881 23.9818C13.7663 23.5286 14.7576 23.1043 15.7474 22.6799C15.8008 22.6799 15.8902 22.6179 15.9407 22.5977C16.0172 22.5645 16.0936 22.5327 16.1701 22.4995C16.3173 22.436 16.4645 22.374 16.6102 22.3105C16.9045 22.1849 17.1974 22.0593 17.4918 21.9338L19.2535 21.1789C20.428 20.6767 21.604 20.1729 22.7785 19.6707C23.9529 19.1684 25.1289 18.6647 26.3034 18.1624C27.4779 17.6602 28.6538 17.1565 29.8283 16.6542C31.0028 16.1519 32.1787 15.6482 33.3532 15.146C33.6144 15.0334 33.8972 14.866 34.1771 14.8169C34.4123 14.775 34.6417 14.6942 34.8783 14.6495C35.327 14.5643 35.8219 14.5297 36.2519 14.7159C36.4005 14.7808 36.5376 14.8717 36.6516 14.9858C37.197 15.5256 37.1205 16.4117 37.0051 17.1709C36.2014 22.462 35.3977 27.7546 34.5926 33.0457C34.483 33.7716 34.3329 34.5683 33.7601 35.0273C33.2753 35.4155 32.5856 35.4588 31.9868 35.2943C31.388 35.1283 30.8599 34.7805 30.3419 34.4384C28.1935 33.0154 26.0437 31.5923 23.8952 30.1692C23.3845 29.8314 22.816 29.3898 22.8217 28.7764C22.8246 28.4069 23.0454 28.0779 23.2705 27.7849C25.1375 25.3486 27.8314 23.6744 29.8355 21.3507C30.1183 21.023 30.3405 20.4313 29.9524 20.2422C29.7215 20.1296 29.456 20.2826 29.2454 20.4284C26.5963 22.2686 23.9486 24.1102 21.2995 25.9504C20.4352 26.5508 19.5291 27.1686 18.4874 27.3158C17.5553 27.4486 16.6174 27.1888 15.7156 26.9232C14.9596 26.701 14.2049 26.4729 13.4532 26.2377C13.0535 26.1135 12.6409 25.9793 12.3321 25.6979C12.0233 25.4164 11.8459 24.943 12.032 24.5678C12.1489 24.3325 12.3754 24.1839 12.6135 24.0626L12.6163 24.0641Z" fill="white"/>
</g>
<defs>
<filter id="filter0_d_387_9325" x="0.816406" y="0.168457" width="51.1836" height="51.1958" filterUnits="userSpaceOnUse" color-interpolation-filters="sRGB">
<feFlood flood-opacity="0" result="BackgroundImageFix"/>
<feColorMatrix in="SourceAlpha" type="matrix" values="0 0 0 0 0 0 0 0 0 0 0 0 0 0 0 0 0 0 127 0" result="hardAlpha"/>
<feOffset dx="1" dy="1"/>
<feGaussianBlur stdDeviation="2.5"/>
<feComposite in2="hardAlpha" operator="out"/>
<feColorMatrix type="matrix" values="0 0 0 0 0.458578 0 0 0 0 0.466667 0 0 0 0 0.441389 0 0 0 0.2 0"/>
<feBlend mode="normal" in2="BackgroundImageFix" result="effect1_dropShadow_387_9325"/>
<feBlend mode="normal" in="SourceGraphic" in2="effect1_dropShadow_387_9325" result="shape"/>
</filter>
</defs>
</svg>
