<svg width="42" height="42" viewBox="0 0 42 42" fill="none" xmlns="http://www.w3.org/2000/svg">
<path d="M21.2042 0.168457H21.1104C9.76373 0.168457 0.56543 9.36947 0.56543 20.7195V20.8133C0.56543 32.1633 9.76373 41.3643 21.1104 41.3643H21.2042C32.5509 41.3643 41.7492 32.1633 41.7492 20.8133V20.7195C41.7492 9.36947 32.5509 0.168457 21.2042 0.168457Z" fill="#46BA07"/>
<path d="M25.1708 26.5832C19.9 26.5832 15.6118 22.2923 15.6104 17.02C15.6118 15.6835 16.6997 14.5967 18.0329 14.5967C18.17 14.5967 18.3056 14.6082 18.4355 14.6313C18.7212 14.6789 18.9924 14.7756 19.2421 14.9214C19.2781 14.9431 19.3026 14.9777 19.3084 15.0181L19.8654 18.5296C19.8726 18.5701 19.8596 18.6119 19.8322 18.6422C19.5248 18.9828 19.1324 19.2282 18.6952 19.3509L18.4845 19.4101L18.5639 19.6136C19.2824 21.4437 20.7455 22.9057 22.5765 23.6274L22.78 23.7082L22.8391 23.4975C22.9618 23.0601 23.207 22.6676 23.5476 22.3601C23.5721 22.3371 23.6053 22.3255 23.6385 22.3255C23.6457 22.3255 23.6529 22.3255 23.6616 22.3269L27.172 22.8841C27.2139 22.8913 27.2485 22.9144 27.2702 22.9504C27.4144 23.2001 27.5111 23.4729 27.5602 23.7587C27.5833 23.8857 27.5934 24.0199 27.5934 24.1599C27.5934 25.495 26.5069 26.5818 25.1708 26.5832Z" fill="white"/>
<path d="M34.517 19.6091C34.2327 16.3964 32.761 13.416 30.373 11.2178C27.9707 9.00671 24.8541 7.78857 21.5946 7.78857C14.4409 7.78857 8.6204 13.6108 8.6204 20.7666C8.6204 23.1683 9.28266 25.5079 10.5365 27.5458L7.74023 33.7375L16.6932 32.7835C18.2501 33.4214 19.8978 33.7447 21.5932 33.7447C22.039 33.7447 22.4964 33.7216 22.9553 33.674C23.3593 33.6307 23.7676 33.5672 24.1687 33.4864C30.1595 32.2754 34.5328 26.9569 34.5674 20.8359V20.7666C34.5674 20.377 34.5501 19.9873 34.5155 19.6106L34.517 19.6091ZM17.0381 30.0658L12.0847 30.594L13.5637 27.3163L13.2679 26.9194C13.2462 26.8905 13.2246 26.8617 13.2001 26.8285C11.9159 25.0547 11.2377 22.959 11.2377 20.7681C11.2377 15.0555 15.8838 10.4082 21.5946 10.4082C26.9448 10.4082 31.4797 14.5836 31.9169 19.9137C31.94 20.1994 31.953 20.4866 31.953 20.7695C31.953 20.8504 31.9515 20.9297 31.9501 21.0149C31.8404 25.7936 28.5031 29.8522 23.834 30.8856C23.4776 30.9649 23.1125 31.0256 22.7489 31.0645C22.3709 31.1078 21.9828 31.1295 21.5975 31.1295C20.2254 31.1295 18.8922 30.8639 17.6325 30.3385C17.4926 30.2823 17.3555 30.2216 17.2271 30.1596L17.0395 30.0687L17.0381 30.0658Z" fill="white"/>
</svg>
