<svg width="42" height="42" viewBox="0 0 42 42" fill="none" xmlns="http://www.w3.org/2000/svg">
<path d="M41.8159 20.7079C41.8159 9.36429 32.6228 0.168457 21.2825 0.168457C9.94216 0.168457 0.749023 9.36429 0.749023 20.7079C0.749023 32.0516 9.94216 41.2474 21.2825 41.2474C32.6228 41.2474 41.8159 32.0516 41.8159 20.7079Z" fill="#EC3108"/>
<path d="M34.2126 16.4515C34.051 14.8913 33.7032 13.1666 32.4234 12.2602C31.4322 11.5573 30.1292 11.5313 28.9129 11.5328C26.3417 11.5328 23.7691 11.5371 21.1979 11.5385C18.7248 11.5414 16.2518 11.5429 13.7787 11.5458C12.7456 11.5458 11.7414 11.4664 10.7819 11.9138C9.95798 12.2977 9.31302 13.028 8.92488 13.8406C8.3867 14.9707 8.27416 16.2509 8.20923 17.5008C8.08947 19.7768 8.10246 22.0587 8.2453 24.3333C8.35063 25.9931 8.61756 27.8275 9.90026 28.8855C11.0372 29.8222 12.6417 29.8683 14.1163 29.8698C18.797 29.8741 23.4791 29.8784 28.1612 29.8813C28.7614 29.8828 29.3876 29.8712 29.9994 29.8048C31.2027 29.6749 32.3498 29.33 33.1232 28.438C33.9038 27.5389 34.1043 26.2875 34.2227 25.1026C34.5112 22.2276 34.5083 19.3251 34.2126 16.4515ZM18.4911 24.7374V16.6767L25.4688 20.7063L18.4911 24.7374Z" fill="white"/>
</svg>
