<svg width="19" height="17" viewBox="0 0 19 17" fill="none" xmlns="http://www.w3.org/2000/svg">
<path d="M18.5043 7.93556L16.3481 2.90431C16.2926 2.77505 16.2005 2.66488 16.0831 2.58746C15.9657 2.51004 15.8282 2.46877 15.6875 2.46875H13.5313V1.03125C13.5313 0.840626 13.4556 0.657809 13.3208 0.523017C13.186 0.388225 13.0032 0.3125 12.8125 0.3125H1.31253V1.75H12.0938V10.7746C11.7665 10.9651 11.48 11.2183 11.2508 11.5197C11.0216 11.8212 10.8543 12.1649 10.7583 12.5312H6.24171C6.06677 11.8537 5.65074 11.2632 5.07158 10.8705C4.49243 10.4778 3.78992 10.3097 3.09575 10.3979C2.40157 10.4861 1.76337 10.8244 1.3008 11.3495C0.838216 11.8745 0.583008 12.5502 0.583008 13.25C0.583008 13.9498 0.838216 14.6255 1.3008 15.1505C1.76337 15.6756 2.40157 16.0139 3.09575 16.1021C3.78992 16.1903 4.49243 16.0222 5.07158 15.6295C5.65074 15.2368 6.06677 14.6463 6.24171 13.9688H10.7583C10.9147 14.5856 11.2723 15.1327 11.7745 15.5235C12.2767 15.9143 12.8949 16.1265 13.5313 16.1265C14.1676 16.1265 14.7858 15.9143 15.2881 15.5235C15.7903 15.1327 16.1479 14.5856 16.3042 13.9688H17.8438C18.0344 13.9688 18.2172 13.893 18.352 13.7582C18.4868 13.6234 18.5625 13.4406 18.5625 13.25V8.21875C18.5625 8.12139 18.5427 8.02504 18.5043 7.93556ZM3.46878 14.6875C3.18447 14.6875 2.90654 14.6032 2.67014 14.4452C2.43375 14.2873 2.2495 14.0628 2.1407 13.8001C2.0319 13.5374 2.00343 13.2484 2.0589 12.9696C2.11436 12.6907 2.25127 12.4346 2.45231 12.2335C2.65335 12.0325 2.90949 11.8956 3.18833 11.8401C3.46718 11.7847 3.75622 11.8131 4.01888 11.9219C4.28155 12.0307 4.50606 12.215 4.66401 12.4514C4.82197 12.6878 4.90628 12.9657 4.90628 13.25C4.90628 13.6312 4.75483 13.9969 4.48524 14.2665C4.21566 14.536 3.85003 14.6875 3.46878 14.6875ZM13.5313 3.90625H15.2132L16.7541 7.5H13.5313V3.90625ZM13.5313 14.6875C13.247 14.6875 12.969 14.6032 12.7326 14.4452C12.4962 14.2873 12.312 14.0628 12.2032 13.8001C12.0944 13.5374 12.0659 13.2484 12.1214 12.9696C12.1769 12.6907 12.3138 12.4346 12.5148 12.2335C12.7158 12.0325 12.972 11.8956 13.2508 11.8401C13.5297 11.7847 13.8187 11.8131 14.0814 11.9219C14.3441 12.0307 14.5686 12.215 14.7265 12.4514C14.8845 12.6878 14.9688 12.9657 14.9688 13.25C14.9688 13.6312 14.8173 13.9969 14.5477 14.2665C14.2782 14.536 13.9125 14.6875 13.5313 14.6875ZM17.125 12.5312H16.3042C16.1459 11.9156 15.7877 11.3699 15.2859 10.9797C14.7841 10.5894 14.167 10.3768 13.5313 10.375V8.9375H17.125V12.5312Z" fill="#272625"/>
</svg>
