<svg width="18" height="21" viewBox="0 0 18 21" fill="none" xmlns="http://www.w3.org/2000/svg">
<mask id="path-1-inside-1_291_5788" fill="white">
<path fill-rule="evenodd" clip-rule="evenodd" d="M8.9998 0.5C9.26502 0.5 9.51937 0.605357 9.70691 0.792893C9.89445 0.98043 9.9998 1.23478 9.9998 1.5V2.462L10.6538 2.116C10.8883 1.99201 11.1624 1.96624 11.4158 2.04435C11.6693 2.12245 11.8813 2.29805 12.0053 2.5325C12.1293 2.76695 12.1551 3.04105 12.077 3.29451C11.9989 3.54797 11.8233 3.76001 11.5888 3.884L9.9998 4.724V6.626C10.7148 6.81 11.3518 7.186 11.8538 7.697L13.5018 6.746L13.4348 4.95C13.4249 4.68492 13.5206 4.42674 13.701 4.23226C13.8814 4.03779 14.1317 3.92295 14.3968 3.913C14.6619 3.90305 14.9201 3.99882 15.1145 4.17923C15.309 4.35964 15.4239 4.60992 15.4338 4.875L15.4608 5.615L16.2938 5.134C16.4076 5.0673 16.5334 5.02377 16.6641 5.0059C16.7947 4.98804 16.9277 4.99619 17.0552 5.0299C17.1826 5.06361 17.3022 5.12221 17.407 5.20231C17.5117 5.28242 17.5996 5.38246 17.6656 5.49667C17.7315 5.61088 17.7742 5.73701 17.7912 5.86779C17.8082 5.99857 17.7992 6.13142 17.7646 6.25869C17.7301 6.38597 17.6707 6.50515 17.5899 6.60937C17.5091 6.7136 17.4085 6.80082 17.2938 6.866L16.4608 7.346L17.0878 7.74C17.199 7.80986 17.2954 7.90095 17.3714 8.00806C17.4475 8.11517 17.5017 8.23621 17.5309 8.36426C17.5602 8.49231 17.5639 8.62487 17.5419 8.75437C17.5199 8.88387 17.4727 9.00777 17.4028 9.119C17.3329 9.23023 17.2419 9.32661 17.1347 9.40264C17.0276 9.47866 16.9066 9.53285 16.7785 9.5621C16.6505 9.59135 16.5179 9.59509 16.3884 9.57311C16.2589 9.55113 16.135 9.50386 16.0238 9.434L14.5018 8.478L12.8548 9.428C13.0497 10.129 13.0497 10.87 12.8548 11.571L14.5018 12.522L16.0238 11.566C16.2484 11.4249 16.5199 11.3788 16.7785 11.4379C17.0372 11.497 17.2617 11.6564 17.4028 11.881C17.5439 12.1056 17.59 12.3771 17.5309 12.6357C17.4718 12.8944 17.3124 13.1189 17.0878 13.26L16.4618 13.653L17.2938 14.134C17.4085 14.1992 17.5091 14.2864 17.5899 14.3906C17.6707 14.4949 17.7301 14.614 17.7646 14.7413C17.7992 14.8686 17.8082 15.0014 17.7912 15.1322C17.7742 15.263 17.7315 15.3891 17.6656 15.5033C17.5996 15.6175 17.5117 15.7176 17.407 15.7977C17.3022 15.8778 17.1826 15.9364 17.0552 15.9701C16.9277 16.0038 16.7947 16.012 16.6641 15.9941C16.5334 15.9762 16.4076 15.9327 16.2938 15.866L15.4618 15.386L15.4338 16.125C15.4239 16.3901 15.309 16.6404 15.1145 16.8208C14.9201 17.0012 14.6619 17.0969 14.3968 17.087C14.1317 17.0771 13.8814 16.9622 13.701 16.7677C13.5206 16.5733 13.4249 16.3151 13.4348 16.05L13.5018 14.254L11.8538 13.303C11.3518 13.813 10.7138 14.19 9.9998 14.374V16.276L11.5888 17.116C11.8233 17.24 11.9989 17.452 12.077 17.7055C12.1551 17.9589 12.1293 18.233 12.0053 18.4675C11.8813 18.702 11.6693 18.8775 11.4158 18.9557C11.1624 19.0338 10.8883 19.008 10.6538 18.884L9.9998 18.538V19.5C9.9998 19.7652 9.89445 20.0196 9.70691 20.2071C9.51937 20.3946 9.26502 20.5 8.9998 20.5C8.73459 20.5 8.48023 20.3946 8.2927 20.2071C8.10516 20.0196 7.9998 19.7652 7.9998 19.5V18.538L7.3458 18.884C7.22972 18.9454 7.10267 18.9833 6.97193 18.9956C6.84118 19.0079 6.70929 18.9943 6.5838 18.9557C6.4583 18.917 6.34164 18.854 6.2405 18.7702C6.13936 18.6864 6.0557 18.5836 5.99431 18.4675C5.93291 18.3514 5.89499 18.2244 5.88269 18.0936C5.8704 17.9629 5.88397 17.831 5.92265 17.7055C5.96133 17.58 6.02434 17.4633 6.1081 17.3622C6.19186 17.261 6.29472 17.1774 6.41081 17.116L7.9998 16.276V14.374C7.29586 14.1918 6.65488 13.8212 6.1458 13.302L4.49781 14.254L4.56481 16.05C4.56966 16.1813 4.54862 16.3122 4.50288 16.4353C4.45714 16.5584 4.3876 16.6713 4.29822 16.7676C4.20884 16.8638 4.10139 16.9415 3.98198 16.9963C3.86258 17.051 3.73356 17.0816 3.6023 17.0865C3.47105 17.0914 3.34012 17.0703 3.217 17.0246C3.09387 16.9788 2.98096 16.9093 2.88471 16.8199C2.78847 16.7305 2.71077 16.6231 2.65605 16.5037C2.60133 16.3843 2.57066 16.2553 2.5658 16.124L2.5388 15.385L1.7058 15.865C1.59197 15.9354 1.46515 15.9823 1.33287 16.0028C1.20059 16.0233 1.06554 16.017 0.935722 15.9844C0.805906 15.9517 0.683968 15.8933 0.577136 15.8127C0.470305 15.732 0.380754 15.6307 0.313794 15.5148C0.246833 15.3989 0.203825 15.2707 0.187319 15.1379C0.170813 15.0051 0.181146 14.8703 0.217704 14.7415C0.254262 14.6127 0.316301 14.4926 0.400145 14.3882C0.483988 14.2839 0.587929 14.1974 0.705805 14.134L1.5388 13.653L0.911805 13.259C0.693113 13.1153 0.539477 12.8915 0.483867 12.6358C0.428256 12.3801 0.475102 12.1128 0.614352 11.8912C0.753602 11.6696 0.974158 11.5115 1.22869 11.4507C1.48322 11.3899 1.75145 11.4313 1.9758 11.566L3.4978 12.522L5.14481 11.571C4.95008 10.8703 4.95008 10.1297 5.14481 9.429L3.4978 8.479L1.9758 9.434C1.75145 9.56871 1.48322 9.61011 1.22869 9.54931C0.974158 9.48851 0.753602 9.33036 0.614352 9.10879C0.475102 8.88722 0.428256 8.61989 0.483867 8.36417C0.539477 8.10846 0.693113 7.88473 0.911805 7.741L1.5388 7.347L0.705805 6.867C0.475995 6.73439 0.308276 6.51592 0.239543 6.25965C0.170811 6.00339 0.206696 5.73031 0.339305 5.5005C0.471913 5.27069 0.690382 5.10297 0.94665 5.03424C1.20292 4.96551 1.47599 5.00139 1.7058 5.134L2.5388 5.615L2.5658 4.875C2.57575 4.60992 2.69059 4.35964 2.88507 4.17923C2.98136 4.0899 3.09431 4.02041 3.21746 3.97473C3.34061 3.92905 3.47155 3.90808 3.6028 3.913C3.73406 3.91792 3.86306 3.94865 3.98244 4.00343C4.10182 4.05821 4.20924 4.13597 4.29857 4.23226C4.38791 4.32856 4.45739 4.4415 4.50307 4.56465C4.54875 4.6878 4.56973 4.81874 4.56481 4.95L4.49781 6.746L6.1458 7.698C6.65488 7.17879 7.29586 6.80818 7.9998 6.626V4.724L6.41081 3.884C6.17635 3.76001 6.00076 3.54797 5.92265 3.29451C5.84454 3.04105 5.87032 2.76695 5.99431 2.5325C6.11829 2.29805 6.33034 2.12245 6.5838 2.04435C6.83725 1.96624 7.11135 1.99201 7.3458 2.116L7.9998 2.462V1.5C7.9998 1.23478 8.10516 0.98043 8.2927 0.792893C8.48023 0.605357 8.73459 0.5 8.9998 0.5ZM8.9998 12.5C9.53024 12.5 10.0389 12.2893 10.414 11.9142C10.7891 11.5391 10.9998 11.0304 10.9998 10.5C10.9998 9.96957 10.7891 9.46086 10.414 9.08579C10.0389 8.71071 9.53024 8.5 8.9998 8.5C8.46937 8.5 7.96066 8.71071 7.58559 9.08579C7.21052 9.46086 6.9998 9.96957 6.9998 10.5C6.9998 11.0304 7.21052 11.5391 7.58559 11.9142C7.96066 12.2893 8.46937 12.5 8.9998 12.5Z"/>
</mask>
<path fill-rule="evenodd" clip-rule="evenodd" d="M8.9998 0.5C9.26502 0.5 9.51937 0.605357 9.70691 0.792893C9.89445 0.98043 9.9998 1.23478 9.9998 1.5V2.462L10.6538 2.116C10.8883 1.99201 11.1624 1.96624 11.4158 2.04435C11.6693 2.12245 11.8813 2.29805 12.0053 2.5325C12.1293 2.76695 12.1551 3.04105 12.077 3.29451C11.9989 3.54797 11.8233 3.76001 11.5888 3.884L9.9998 4.724V6.626C10.7148 6.81 11.3518 7.186 11.8538 7.697L13.5018 6.746L13.4348 4.95C13.4249 4.68492 13.5206 4.42674 13.701 4.23226C13.8814 4.03779 14.1317 3.92295 14.3968 3.913C14.6619 3.90305 14.9201 3.99882 15.1145 4.17923C15.309 4.35964 15.4239 4.60992 15.4338 4.875L15.4608 5.615L16.2938 5.134C16.4076 5.0673 16.5334 5.02377 16.6641 5.0059C16.7947 4.98804 16.9277 4.99619 17.0552 5.0299C17.1826 5.06361 17.3022 5.12221 17.407 5.20231C17.5117 5.28242 17.5996 5.38246 17.6656 5.49667C17.7315 5.61088 17.7742 5.73701 17.7912 5.86779C17.8082 5.99857 17.7992 6.13142 17.7646 6.25869C17.7301 6.38597 17.6707 6.50515 17.5899 6.60937C17.5091 6.7136 17.4085 6.80082 17.2938 6.866L16.4608 7.346L17.0878 7.74C17.199 7.80986 17.2954 7.90095 17.3714 8.00806C17.4475 8.11517 17.5017 8.23621 17.5309 8.36426C17.5602 8.49231 17.5639 8.62487 17.5419 8.75437C17.5199 8.88387 17.4727 9.00777 17.4028 9.119C17.3329 9.23023 17.2419 9.32661 17.1347 9.40264C17.0276 9.47866 16.9066 9.53285 16.7785 9.5621C16.6505 9.59135 16.5179 9.59509 16.3884 9.57311C16.2589 9.55113 16.135 9.50386 16.0238 9.434L14.5018 8.478L12.8548 9.428C13.0497 10.129 13.0497 10.87 12.8548 11.571L14.5018 12.522L16.0238 11.566C16.2484 11.4249 16.5199 11.3788 16.7785 11.4379C17.0372 11.497 17.2617 11.6564 17.4028 11.881C17.5439 12.1056 17.59 12.3771 17.5309 12.6357C17.4718 12.8944 17.3124 13.1189 17.0878 13.26L16.4618 13.653L17.2938 14.134C17.4085 14.1992 17.5091 14.2864 17.5899 14.3906C17.6707 14.4949 17.7301 14.614 17.7646 14.7413C17.7992 14.8686 17.8082 15.0014 17.7912 15.1322C17.7742 15.263 17.7315 15.3891 17.6656 15.5033C17.5996 15.6175 17.5117 15.7176 17.407 15.7977C17.3022 15.8778 17.1826 15.9364 17.0552 15.9701C16.9277 16.0038 16.7947 16.012 16.6641 15.9941C16.5334 15.9762 16.4076 15.9327 16.2938 15.866L15.4618 15.386L15.4338 16.125C15.4239 16.3901 15.309 16.6404 15.1145 16.8208C14.9201 17.0012 14.6619 17.0969 14.3968 17.087C14.1317 17.0771 13.8814 16.9622 13.701 16.7677C13.5206 16.5733 13.4249 16.3151 13.4348 16.05L13.5018 14.254L11.8538 13.303C11.3518 13.813 10.7138 14.19 9.9998 14.374V16.276L11.5888 17.116C11.8233 17.24 11.9989 17.452 12.077 17.7055C12.1551 17.9589 12.1293 18.233 12.0053 18.4675C11.8813 18.702 11.6693 18.8775 11.4158 18.9557C11.1624 19.0338 10.8883 19.008 10.6538 18.884L9.9998 18.538V19.5C9.9998 19.7652 9.89445 20.0196 9.70691 20.2071C9.51937 20.3946 9.26502 20.5 8.9998 20.5C8.73459 20.5 8.48023 20.3946 8.2927 20.2071C8.10516 20.0196 7.9998 19.7652 7.9998 19.5V18.538L7.3458 18.884C7.22972 18.9454 7.10267 18.9833 6.97193 18.9956C6.84118 19.0079 6.70929 18.9943 6.5838 18.9557C6.4583 18.917 6.34164 18.854 6.2405 18.7702C6.13936 18.6864 6.0557 18.5836 5.99431 18.4675C5.93291 18.3514 5.89499 18.2244 5.88269 18.0936C5.8704 17.9629 5.88397 17.831 5.92265 17.7055C5.96133 17.58 6.02434 17.4633 6.1081 17.3622C6.19186 17.261 6.29472 17.1774 6.41081 17.116L7.9998 16.276V14.374C7.29586 14.1918 6.65488 13.8212 6.1458 13.302L4.49781 14.254L4.56481 16.05C4.56966 16.1813 4.54862 16.3122 4.50288 16.4353C4.45714 16.5584 4.3876 16.6713 4.29822 16.7676C4.20884 16.8638 4.10139 16.9415 3.98198 16.9963C3.86258 17.051 3.73356 17.0816 3.6023 17.0865C3.47105 17.0914 3.34012 17.0703 3.217 17.0246C3.09387 16.9788 2.98096 16.9093 2.88471 16.8199C2.78847 16.7305 2.71077 16.6231 2.65605 16.5037C2.60133 16.3843 2.57066 16.2553 2.5658 16.124L2.5388 15.385L1.7058 15.865C1.59197 15.9354 1.46515 15.9823 1.33287 16.0028C1.20059 16.0233 1.06554 16.017 0.935722 15.9844C0.805906 15.9517 0.683968 15.8933 0.577136 15.8127C0.470305 15.732 0.380754 15.6307 0.313794 15.5148C0.246833 15.3989 0.203825 15.2707 0.187319 15.1379C0.170813 15.0051 0.181146 14.8703 0.217704 14.7415C0.254262 14.6127 0.316301 14.4926 0.400145 14.3882C0.483988 14.2839 0.587929 14.1974 0.705805 14.134L1.5388 13.653L0.911805 13.259C0.693113 13.1153 0.539477 12.8915 0.483867 12.6358C0.428256 12.3801 0.475102 12.1128 0.614352 11.8912C0.753602 11.6696 0.974158 11.5115 1.22869 11.4507C1.48322 11.3899 1.75145 11.4313 1.9758 11.566L3.4978 12.522L5.14481 11.571C4.95008 10.8703 4.95008 10.1297 5.14481 9.429L3.4978 8.479L1.9758 9.434C1.75145 9.56871 1.48322 9.61011 1.22869 9.54931C0.974158 9.48851 0.753602 9.33036 0.614352 9.10879C0.475102 8.88722 0.428256 8.61989 0.483867 8.36417C0.539477 8.10846 0.693113 7.88473 0.911805 7.741L1.5388 7.347L0.705805 6.867C0.475995 6.73439 0.308276 6.51592 0.239543 6.25965C0.170811 6.00339 0.206696 5.73031 0.339305 5.5005C0.471913 5.27069 0.690382 5.10297 0.94665 5.03424C1.20292 4.96551 1.47599 5.00139 1.7058 5.134L2.5388 5.615L2.5658 4.875C2.57575 4.60992 2.69059 4.35964 2.88507 4.17923C2.98136 4.0899 3.09431 4.02041 3.21746 3.97473C3.34061 3.92905 3.47155 3.90808 3.6028 3.913C3.73406 3.91792 3.86306 3.94865 3.98244 4.00343C4.10182 4.05821 4.20924 4.13597 4.29857 4.23226C4.38791 4.32856 4.45739 4.4415 4.50307 4.56465C4.54875 4.6878 4.56973 4.81874 4.56481 4.95L4.49781 6.746L6.1458 7.698C6.65488 7.17879 7.29586 6.80818 7.9998 6.626V4.724L6.41081 3.884C6.17635 3.76001 6.00076 3.54797 5.92265 3.29451C5.84454 3.04105 5.87032 2.76695 5.99431 2.5325C6.11829 2.29805 6.33034 2.12245 6.5838 2.04435C6.83725 1.96624 7.11135 1.99201 7.3458 2.116L7.9998 2.462V1.5C7.9998 1.23478 8.10516 0.98043 8.2927 0.792893C8.48023 0.605357 8.73459 0.5 8.9998 0.5ZM8.9998 12.5C9.53024 12.5 10.0389 12.2893 10.414 11.9142C10.7891 11.5391 10.9998 11.0304 10.9998 10.5C10.9998 9.96957 10.7891 9.46086 10.414 9.08579C10.0389 8.71071 9.53024 8.5 8.9998 8.5C8.46937 8.5 7.96066 8.71071 7.58559 9.08579C7.21052 9.46086 6.9998 9.96957 6.9998 10.5C6.9998 11.0304 7.21052 11.5391 7.58559 11.9142C7.96066 12.2893 8.46937 12.5 8.9998 12.5Z" stroke="#444444" stroke-width="2" mask="url(#path-1-inside-1_291_5788)"/>
</svg>
